G04 EAGLE Gerber RS-274X export*
G75*
%MOMM*%
%FSLAX34Y34*%
%LPD*%
%INSoldermask Top*%
%IPPOS*%
%AMOC8*
5,1,8,0,0,1.08239X$1,22.5*%
G01*
%ADD10C,0.419859*%
%ADD11C,0.297525*%
%ADD12C,0.257809*%
%ADD13R,0.401600X1.301600*%
%ADD14R,1.301600X0.401600*%
%ADD15C,1.101600*%
%ADD16C,1.752600*%
%ADD17C,1.409600*%
%ADD18C,0.142238*%
%ADD19C,0.260094*%
%ADD20C,1.309600*%
%ADD21C,1.371600*%
%ADD22R,0.701600X1.451600*%
%ADD23R,1.301600X2.101600*%
%ADD24R,0.971600X2.101600*%
%ADD25R,0.601600X0.901600*%
%ADD26R,0.351600X0.901600*%
%ADD27R,0.601600X0.351600*%
%ADD28R,0.501600X1.301600*%
%ADD29C,0.544828*%
%ADD30R,1.301600X0.901600*%


D10*
X269739Y198904D02*
X272907Y198904D01*
X272907Y195736D01*
X269739Y195736D01*
X269739Y198904D01*
X264017Y198904D02*
X260849Y198904D01*
X264017Y198904D02*
X264017Y195736D01*
X260849Y195736D01*
X260849Y198904D01*
X302251Y186084D02*
X305419Y186084D01*
X302251Y186084D02*
X302251Y189252D01*
X305419Y189252D01*
X305419Y186084D01*
X311141Y186084D02*
X314309Y186084D01*
X311141Y186084D02*
X311141Y189252D01*
X314309Y189252D01*
X314309Y186084D01*
X239887Y187608D02*
X236719Y187608D01*
X236719Y190776D01*
X239887Y190776D01*
X239887Y187608D01*
X245609Y187608D02*
X248777Y187608D01*
X245609Y187608D02*
X245609Y190776D01*
X248777Y190776D01*
X248777Y187608D01*
X239887Y148492D02*
X236719Y148492D01*
X236719Y151660D01*
X239887Y151660D01*
X239887Y148492D01*
X245609Y148492D02*
X248777Y148492D01*
X245609Y148492D02*
X245609Y151660D01*
X248777Y151660D01*
X248777Y148492D01*
X380229Y363750D02*
X383397Y363750D01*
X383397Y360582D01*
X380229Y360582D01*
X380229Y363750D01*
X374507Y363750D02*
X371339Y363750D01*
X374507Y363750D02*
X374507Y360582D01*
X371339Y360582D01*
X371339Y363750D01*
X185785Y234852D02*
X182617Y234852D01*
X182617Y238020D01*
X185785Y238020D01*
X185785Y234852D01*
X191507Y234852D02*
X194675Y234852D01*
X191507Y234852D02*
X191507Y238020D01*
X194675Y238020D01*
X194675Y234852D01*
X186046Y302035D02*
X186046Y305203D01*
X189214Y305203D01*
X189214Y302035D01*
X186046Y302035D01*
X186046Y296313D02*
X186046Y293145D01*
X186046Y296313D02*
X189214Y296313D01*
X189214Y293145D01*
X186046Y293145D01*
X219066Y361725D02*
X219066Y364893D01*
X222234Y364893D01*
X222234Y361725D01*
X219066Y361725D01*
X219066Y356003D02*
X219066Y352835D01*
X219066Y356003D02*
X222234Y356003D01*
X222234Y352835D01*
X219066Y352835D01*
X376419Y184560D02*
X379587Y184560D01*
X376419Y184560D02*
X376419Y187728D01*
X379587Y187728D01*
X379587Y184560D01*
X385309Y184560D02*
X388477Y184560D01*
X385309Y184560D02*
X385309Y187728D01*
X388477Y187728D01*
X388477Y184560D01*
X382889Y243354D02*
X379721Y243354D01*
X382889Y243354D02*
X382889Y240186D01*
X379721Y240186D01*
X379721Y243354D01*
X373999Y243354D02*
X370831Y243354D01*
X373999Y243354D02*
X373999Y240186D01*
X370831Y240186D01*
X370831Y243354D01*
X382007Y309140D02*
X385175Y309140D01*
X385175Y305972D01*
X382007Y305972D01*
X382007Y309140D01*
X376285Y309140D02*
X373117Y309140D01*
X376285Y309140D02*
X376285Y305972D01*
X373117Y305972D01*
X373117Y309140D01*
X276463Y141888D02*
X273295Y141888D01*
X273295Y145056D01*
X276463Y145056D01*
X276463Y141888D01*
X282185Y141888D02*
X285353Y141888D01*
X282185Y141888D02*
X282185Y145056D01*
X285353Y145056D01*
X285353Y141888D01*
X249800Y361725D02*
X249800Y364893D01*
X252968Y364893D01*
X252968Y361725D01*
X249800Y361725D01*
X249800Y356003D02*
X249800Y352835D01*
X249800Y356003D02*
X252968Y356003D01*
X252968Y352835D01*
X249800Y352835D01*
X229480Y361725D02*
X229480Y364893D01*
X232648Y364893D01*
X232648Y361725D01*
X229480Y361725D01*
X229480Y356003D02*
X229480Y352835D01*
X229480Y356003D02*
X232648Y356003D01*
X232648Y352835D01*
X229480Y352835D01*
X382007Y319046D02*
X385175Y319046D01*
X385175Y315878D01*
X382007Y315878D01*
X382007Y319046D01*
X376285Y319046D02*
X373117Y319046D01*
X376285Y319046D02*
X376285Y315878D01*
X373117Y315878D01*
X373117Y319046D01*
X379721Y253768D02*
X382889Y253768D01*
X382889Y250600D01*
X379721Y250600D01*
X379721Y253768D01*
X373999Y253768D02*
X370831Y253768D01*
X373999Y253768D02*
X373999Y250600D01*
X370831Y250600D01*
X370831Y253768D01*
X185785Y224692D02*
X182617Y224692D01*
X182617Y227860D01*
X185785Y227860D01*
X185785Y224692D01*
X191507Y224692D02*
X194675Y224692D01*
X191507Y224692D02*
X191507Y227860D01*
X194675Y227860D01*
X194675Y224692D01*
X185785Y214532D02*
X182617Y214532D01*
X182617Y217700D01*
X185785Y217700D01*
X185785Y214532D01*
X191507Y214532D02*
X194675Y214532D01*
X191507Y214532D02*
X191507Y217700D01*
X194675Y217700D01*
X194675Y214532D01*
X218939Y170964D02*
X222107Y170964D01*
X222107Y167796D01*
X218939Y167796D01*
X218939Y170964D01*
X213217Y170964D02*
X210049Y170964D01*
X213217Y170964D02*
X213217Y167796D01*
X210049Y167796D01*
X210049Y170964D01*
X302251Y196244D02*
X305419Y196244D01*
X302251Y196244D02*
X302251Y199412D01*
X305419Y199412D01*
X305419Y196244D01*
X311141Y196244D02*
X314309Y196244D01*
X311141Y196244D02*
X311141Y199412D01*
X314309Y199412D01*
X314309Y196244D01*
D11*
X371761Y427217D02*
X379803Y427217D01*
X371761Y427217D02*
X371761Y433259D01*
X379803Y433259D01*
X379803Y427217D01*
X379803Y430043D02*
X371761Y430043D01*
X371761Y432869D02*
X379803Y432869D01*
X395761Y427217D02*
X403803Y427217D01*
X395761Y427217D02*
X395761Y433259D01*
X403803Y433259D01*
X403803Y427217D01*
X403803Y430043D02*
X395761Y430043D01*
X395761Y432869D02*
X403803Y432869D01*
D12*
X298355Y408477D02*
X293567Y408477D01*
X293567Y414915D01*
X298355Y414915D01*
X298355Y408477D01*
X298355Y410926D02*
X293567Y410926D01*
X293567Y413375D02*
X298355Y413375D01*
X307537Y408477D02*
X312325Y408477D01*
X307537Y408477D02*
X307537Y414915D01*
X312325Y414915D01*
X312325Y408477D01*
X312325Y410926D02*
X307537Y410926D01*
X307537Y413375D02*
X312325Y413375D01*
X298355Y420669D02*
X293567Y420669D01*
X293567Y427107D01*
X298355Y427107D01*
X298355Y420669D01*
X298355Y423118D02*
X293567Y423118D01*
X293567Y425567D02*
X298355Y425567D01*
X307537Y420669D02*
X312325Y420669D01*
X307537Y420669D02*
X307537Y427107D01*
X312325Y427107D01*
X312325Y420669D01*
X312325Y423118D02*
X307537Y423118D01*
X307537Y425567D02*
X312325Y425567D01*
X299727Y447529D02*
X299727Y452317D01*
X306165Y452317D01*
X306165Y447529D01*
X299727Y447529D01*
X299727Y449978D02*
X306165Y449978D01*
X299727Y438347D02*
X299727Y433559D01*
X299727Y438347D02*
X306165Y438347D01*
X306165Y433559D01*
X299727Y433559D01*
X299727Y436008D02*
X306165Y436008D01*
X306165Y461499D02*
X306165Y466287D01*
X306165Y461499D02*
X299727Y461499D01*
X299727Y466287D01*
X306165Y466287D01*
X306165Y463948D02*
X299727Y463948D01*
X306165Y475469D02*
X306165Y480257D01*
X306165Y475469D02*
X299727Y475469D01*
X299727Y480257D01*
X306165Y480257D01*
X306165Y477918D02*
X299727Y477918D01*
D13*
X252746Y222370D03*
X257746Y222370D03*
X262746Y222370D03*
X267746Y222370D03*
X272746Y222370D03*
X277746Y222370D03*
X282746Y222370D03*
X287746Y222370D03*
X292746Y222370D03*
X297746Y222370D03*
X302746Y222370D03*
X307746Y222370D03*
X312746Y222370D03*
X317746Y222370D03*
X322746Y222370D03*
X327746Y222370D03*
D14*
X347746Y242370D03*
X347746Y247370D03*
X347746Y252370D03*
X347746Y257370D03*
X347746Y262370D03*
X347746Y267370D03*
X347746Y272370D03*
X347746Y277370D03*
X347746Y282370D03*
X347746Y287370D03*
X347746Y292370D03*
X347746Y297370D03*
X347746Y302370D03*
X347746Y307370D03*
X347746Y312370D03*
X347746Y317370D03*
D13*
X327746Y337370D03*
X322746Y337370D03*
X317746Y337370D03*
X312746Y337370D03*
X307746Y337370D03*
X302746Y337370D03*
X297746Y337370D03*
X292746Y337370D03*
X287746Y337370D03*
X282746Y337370D03*
X277746Y337370D03*
X272746Y337370D03*
X267746Y337370D03*
X262746Y337370D03*
X257746Y337370D03*
X252746Y337370D03*
D14*
X232746Y317370D03*
X232746Y312370D03*
X232746Y307370D03*
X232746Y302370D03*
X232746Y297370D03*
X232746Y292370D03*
X232746Y287370D03*
X232746Y282370D03*
X232746Y277370D03*
X232746Y272370D03*
X232746Y267370D03*
X232746Y262370D03*
X232746Y257370D03*
X232746Y252370D03*
X232746Y247370D03*
X232746Y242370D03*
D15*
X188906Y457606D03*
X268706Y457606D03*
D16*
X417500Y91275D03*
X417500Y116675D03*
X417500Y142075D03*
X417500Y167475D03*
X417500Y192875D03*
X417500Y218275D03*
X417500Y243675D03*
X417500Y269075D03*
X366700Y91275D03*
X366700Y116675D03*
X366700Y142075D03*
X366700Y167475D03*
X392100Y167475D03*
X392100Y142075D03*
X392100Y116675D03*
X392100Y91275D03*
D17*
X337584Y141948D03*
X317584Y141948D03*
D18*
X366903Y459372D02*
X370561Y459372D01*
X370561Y446316D01*
X366903Y446316D01*
X366903Y459372D01*
X366903Y447667D02*
X370561Y447667D01*
X370561Y449018D02*
X366903Y449018D01*
X366903Y450369D02*
X370561Y450369D01*
X370561Y451720D02*
X366903Y451720D01*
X366903Y453071D02*
X370561Y453071D01*
X370561Y454422D02*
X366903Y454422D01*
X366903Y455773D02*
X370561Y455773D01*
X370561Y457124D02*
X366903Y457124D01*
X366903Y458475D02*
X370561Y458475D01*
X363957Y459372D02*
X360299Y459372D01*
X363957Y459372D02*
X363957Y446316D01*
X360299Y446316D01*
X360299Y459372D01*
X360299Y447667D02*
X363957Y447667D01*
X363957Y449018D02*
X360299Y449018D01*
X360299Y450369D02*
X363957Y450369D01*
X363957Y451720D02*
X360299Y451720D01*
X360299Y453071D02*
X363957Y453071D01*
X363957Y454422D02*
X360299Y454422D01*
X360299Y455773D02*
X363957Y455773D01*
X363957Y457124D02*
X360299Y457124D01*
X360299Y458475D02*
X363957Y458475D01*
X357353Y459372D02*
X353695Y459372D01*
X357353Y459372D02*
X357353Y446316D01*
X353695Y446316D01*
X353695Y459372D01*
X353695Y447667D02*
X357353Y447667D01*
X357353Y449018D02*
X353695Y449018D01*
X353695Y450369D02*
X357353Y450369D01*
X357353Y451720D02*
X353695Y451720D01*
X353695Y453071D02*
X357353Y453071D01*
X357353Y454422D02*
X353695Y454422D01*
X353695Y455773D02*
X357353Y455773D01*
X357353Y457124D02*
X353695Y457124D01*
X353695Y458475D02*
X357353Y458475D01*
X350749Y459372D02*
X347091Y459372D01*
X350749Y459372D02*
X350749Y446316D01*
X347091Y446316D01*
X347091Y459372D01*
X347091Y447667D02*
X350749Y447667D01*
X350749Y449018D02*
X347091Y449018D01*
X347091Y450369D02*
X350749Y450369D01*
X350749Y451720D02*
X347091Y451720D01*
X347091Y453071D02*
X350749Y453071D01*
X350749Y454422D02*
X347091Y454422D01*
X347091Y455773D02*
X350749Y455773D01*
X350749Y457124D02*
X347091Y457124D01*
X347091Y458475D02*
X350749Y458475D01*
X344145Y459372D02*
X340487Y459372D01*
X344145Y459372D02*
X344145Y446316D01*
X340487Y446316D01*
X340487Y459372D01*
X340487Y447667D02*
X344145Y447667D01*
X344145Y449018D02*
X340487Y449018D01*
X340487Y450369D02*
X344145Y450369D01*
X344145Y451720D02*
X340487Y451720D01*
X340487Y453071D02*
X344145Y453071D01*
X344145Y454422D02*
X340487Y454422D01*
X340487Y455773D02*
X344145Y455773D01*
X344145Y457124D02*
X340487Y457124D01*
X340487Y458475D02*
X344145Y458475D01*
D19*
X358856Y486596D02*
X372512Y486596D01*
X372512Y472940D01*
X358856Y472940D01*
X358856Y486596D01*
X358856Y475411D02*
X372512Y475411D01*
X372512Y477882D02*
X358856Y477882D01*
X358856Y480353D02*
X372512Y480353D01*
X372512Y482824D02*
X358856Y482824D01*
X358856Y485295D02*
X372512Y485295D01*
X352192Y486596D02*
X338536Y486596D01*
X352192Y486596D02*
X352192Y472940D01*
X338536Y472940D01*
X338536Y486596D01*
X338536Y475411D02*
X352192Y475411D01*
X352192Y477882D02*
X338536Y477882D01*
X338536Y480353D02*
X352192Y480353D01*
X352192Y482824D02*
X338536Y482824D01*
X338536Y485295D02*
X352192Y485295D01*
D20*
X381686Y452844D03*
X379146Y452844D03*
X380416Y452844D03*
X331902Y452844D03*
X329362Y452844D03*
X330886Y452844D03*
D21*
X390576Y477228D03*
X320472Y477228D03*
X390576Y482308D03*
X390576Y480022D03*
X320472Y482308D03*
X320472Y479768D03*
D16*
X138100Y472275D03*
X138100Y446875D03*
X138100Y421475D03*
X138100Y396075D03*
X138100Y370675D03*
X138100Y345275D03*
X138100Y319875D03*
X138100Y294475D03*
D22*
X273750Y440779D03*
X263750Y440779D03*
X253750Y440779D03*
X243750Y440779D03*
D23*
X230750Y477529D03*
X286750Y477529D03*
D22*
X201900Y440779D03*
X191900Y440779D03*
X181900Y440779D03*
X171900Y440779D03*
D23*
X158900Y477529D03*
X214900Y477529D03*
D16*
X138100Y269075D03*
X138100Y243675D03*
X138100Y218275D03*
X138100Y192875D03*
X138100Y167475D03*
X138100Y142075D03*
X138100Y116675D03*
X138100Y91275D03*
X163500Y116675D03*
X188900Y116675D03*
X214300Y116675D03*
X239700Y116675D03*
X265100Y116675D03*
X290500Y116675D03*
X315900Y116675D03*
X341300Y116675D03*
X163500Y91275D03*
X188900Y91275D03*
X214300Y91275D03*
X239700Y91275D03*
X265100Y91275D03*
X290500Y91275D03*
X315900Y91275D03*
X341300Y91275D03*
X417500Y294475D03*
X417500Y319875D03*
X417500Y345275D03*
X417500Y370675D03*
X417500Y396075D03*
X417500Y421475D03*
X417500Y446875D03*
X417500Y472275D03*
D24*
X344208Y386550D03*
X390208Y386550D03*
X254546Y386550D03*
X300546Y386550D03*
D10*
X330445Y189252D02*
X333613Y189252D01*
X333613Y186084D01*
X330445Y186084D01*
X330445Y189252D01*
X324723Y189252D02*
X321555Y189252D01*
X324723Y189252D02*
X324723Y186084D01*
X321555Y186084D01*
X321555Y189252D01*
D25*
X324178Y177286D03*
X311178Y177286D03*
X317678Y157286D03*
D10*
X362576Y432591D02*
X362576Y435759D01*
X365744Y435759D01*
X365744Y432591D01*
X362576Y432591D01*
X362576Y426869D02*
X362576Y423701D01*
X362576Y426869D02*
X365744Y426869D01*
X365744Y423701D01*
X362576Y423701D01*
X329556Y391563D02*
X329556Y388395D01*
X329556Y391563D02*
X332724Y391563D01*
X332724Y388395D01*
X329556Y388395D01*
X329556Y382673D02*
X329556Y379505D01*
X329556Y382673D02*
X332724Y382673D01*
X332724Y379505D01*
X329556Y379505D01*
X232775Y416074D02*
X229607Y416074D01*
X232775Y416074D02*
X232775Y412906D01*
X229607Y412906D01*
X229607Y416074D01*
X223885Y416074D02*
X220717Y416074D01*
X223885Y416074D02*
X223885Y412906D01*
X220717Y412906D01*
X220717Y416074D01*
X229607Y426488D02*
X232775Y426488D01*
X232775Y423320D01*
X229607Y423320D01*
X229607Y426488D01*
X223885Y426488D02*
X220717Y426488D01*
X223885Y426488D02*
X223885Y423320D01*
X220717Y423320D01*
X220717Y426488D01*
X239640Y364893D02*
X239640Y361725D01*
X239640Y364893D02*
X242808Y364893D01*
X242808Y361725D01*
X239640Y361725D01*
X239640Y356003D02*
X239640Y352835D01*
X239640Y356003D02*
X242808Y356003D01*
X242808Y352835D01*
X239640Y352835D01*
X175886Y305203D02*
X175886Y302035D01*
X175886Y305203D02*
X179054Y305203D01*
X179054Y302035D01*
X175886Y302035D01*
X175886Y296313D02*
X175886Y293145D01*
X175886Y296313D02*
X179054Y296313D01*
X179054Y293145D01*
X175886Y293145D01*
X178807Y157128D02*
X181975Y157128D01*
X178807Y157128D02*
X178807Y160296D01*
X181975Y160296D01*
X181975Y157128D01*
X187697Y157128D02*
X190865Y157128D01*
X187697Y157128D02*
X187697Y160296D01*
X190865Y160296D01*
X190865Y157128D01*
X319396Y388395D02*
X319396Y391563D01*
X322564Y391563D01*
X322564Y388395D01*
X319396Y388395D01*
X319396Y382673D02*
X319396Y379505D01*
X319396Y382673D02*
X322564Y382673D01*
X322564Y379505D01*
X319396Y379505D01*
X173854Y364385D02*
X173854Y361217D01*
X173854Y364385D02*
X177022Y364385D01*
X177022Y361217D01*
X173854Y361217D01*
X173854Y355495D02*
X173854Y352327D01*
X173854Y355495D02*
X177022Y355495D01*
X177022Y352327D01*
X173854Y352327D01*
X335017Y175670D02*
X338185Y175670D01*
X335017Y175670D02*
X335017Y178838D01*
X338185Y178838D01*
X338185Y175670D01*
X343907Y175670D02*
X347075Y175670D01*
X343907Y175670D02*
X343907Y178838D01*
X347075Y178838D01*
X347075Y175670D01*
X222107Y161058D02*
X218939Y161058D01*
X222107Y161058D02*
X222107Y157890D01*
X218939Y157890D01*
X218939Y161058D01*
X213217Y161058D02*
X210049Y161058D01*
X213217Y161058D02*
X213217Y157890D01*
X210049Y157890D01*
X210049Y161058D01*
X351908Y432591D02*
X351908Y435759D01*
X355076Y435759D01*
X355076Y432591D01*
X351908Y432591D01*
X351908Y426869D02*
X351908Y423701D01*
X351908Y426869D02*
X355076Y426869D01*
X355076Y423701D01*
X351908Y423701D01*
X165726Y305203D02*
X165726Y302035D01*
X165726Y305203D02*
X168894Y305203D01*
X168894Y302035D01*
X165726Y302035D01*
X165726Y296313D02*
X165726Y293145D01*
X165726Y296313D02*
X168894Y296313D01*
X168894Y293145D01*
X165726Y293145D01*
X360925Y363750D02*
X364093Y363750D01*
X364093Y360582D01*
X360925Y360582D01*
X360925Y363750D01*
X355203Y363750D02*
X352035Y363750D01*
X355203Y363750D02*
X355203Y360582D01*
X352035Y360582D01*
X352035Y363750D01*
X263128Y356003D02*
X263128Y352835D01*
X259960Y352835D01*
X259960Y356003D01*
X263128Y356003D01*
X263128Y361725D02*
X263128Y364893D01*
X263128Y361725D02*
X259960Y361725D01*
X259960Y364893D01*
X263128Y364893D01*
X187436Y355749D02*
X187436Y352581D01*
X184268Y352581D01*
X184268Y355749D01*
X187436Y355749D01*
X187436Y361471D02*
X187436Y364639D01*
X187436Y361471D02*
X184268Y361471D01*
X184268Y364639D01*
X187436Y364639D01*
X208518Y355749D02*
X208518Y352581D01*
X205350Y352581D01*
X205350Y355749D01*
X208518Y355749D01*
X208518Y361471D02*
X208518Y364639D01*
X208518Y361471D02*
X205350Y361471D01*
X205350Y364639D01*
X208518Y364639D01*
X197850Y355749D02*
X197850Y352581D01*
X194682Y352581D01*
X194682Y355749D01*
X197850Y355749D01*
X197850Y361471D02*
X197850Y364639D01*
X197850Y361471D02*
X194682Y361471D01*
X194682Y364639D01*
X197850Y364639D01*
X180458Y406683D02*
X180458Y409851D01*
X183626Y409851D01*
X183626Y406683D01*
X180458Y406683D01*
X180458Y400961D02*
X180458Y397793D01*
X180458Y400961D02*
X183626Y400961D01*
X183626Y397793D01*
X180458Y397793D01*
X170044Y406683D02*
X170044Y409851D01*
X173212Y409851D01*
X173212Y406683D01*
X170044Y406683D01*
X170044Y400961D02*
X170044Y397793D01*
X170044Y400961D02*
X173212Y400961D01*
X173212Y397793D01*
X170044Y397793D01*
D26*
X191534Y278888D03*
X186534Y278888D03*
X181534Y278888D03*
X176534Y278888D03*
X171534Y278888D03*
X171534Y251388D03*
X176534Y251388D03*
X181534Y251388D03*
X186534Y251388D03*
X191534Y251388D03*
D27*
X166534Y265138D03*
X196534Y265138D03*
D28*
X371932Y201083D03*
X381432Y201083D03*
X390932Y201083D03*
X390932Y227085D03*
X371932Y227085D03*
D29*
X281921Y185833D02*
X281921Y178835D01*
X281921Y185833D02*
X286379Y185833D01*
X286379Y178835D01*
X281921Y178835D01*
X281921Y184011D02*
X286379Y184011D01*
X281921Y160433D02*
X281921Y153435D01*
X281921Y160433D02*
X286379Y160433D01*
X286379Y153435D01*
X281921Y153435D01*
X281921Y158611D02*
X286379Y158611D01*
X261601Y178835D02*
X261601Y185833D01*
X266059Y185833D01*
X266059Y178835D01*
X261601Y178835D01*
X261601Y184011D02*
X266059Y184011D01*
X261601Y160433D02*
X261601Y153435D01*
X261601Y160433D02*
X266059Y160433D01*
X266059Y153435D01*
X261601Y153435D01*
X261601Y158611D02*
X266059Y158611D01*
D30*
X247066Y160634D03*
X247066Y178634D03*
D10*
X312150Y379505D02*
X312150Y382673D01*
X312150Y379505D02*
X308982Y379505D01*
X308982Y382673D01*
X312150Y382673D01*
X312150Y388395D02*
X312150Y391563D01*
X312150Y388395D02*
X308982Y388395D01*
X308982Y391563D01*
X312150Y391563D01*
M02*
