G04 EAGLE Gerber RS-274X export*
G75*
%MOMM*%
%FSLAX34Y34*%
%LPD*%
%INSoldermask Bottom*%
%IPPOS*%
%AMOC8*
5,1,8,0,0,1.08239X$1,22.5*%
G01*
%ADD10R,0.801600X1.501600*%
%ADD11R,1.301600X1.501600*%
%ADD12R,1.301600X2.301600*%
%ADD13R,1.701600X1.501600*%
%ADD14C,1.101600*%
%ADD15C,1.752600*%
%ADD16C,1.409600*%
%ADD17C,1.309600*%
%ADD18C,1.371600*%
%ADD19R,1.301600X0.701600*%


D10*
X260206Y350606D03*
X249206Y350606D03*
X238206Y350606D03*
X227206Y350606D03*
X216206Y350606D03*
X205206Y350606D03*
X194206Y350606D03*
X183206Y350606D03*
X172206Y350606D03*
D11*
X159706Y357606D03*
D12*
X160706Y453606D03*
X315706Y453606D03*
D13*
X306706Y357606D03*
D14*
X188906Y457606D03*
X268706Y457606D03*
D15*
X417500Y91275D03*
X417500Y116675D03*
X417500Y142075D03*
X417500Y167475D03*
X417500Y192875D03*
X417500Y218275D03*
X417500Y243675D03*
X417500Y269075D03*
X366700Y91275D03*
X366700Y116675D03*
X366700Y142075D03*
X366700Y167475D03*
X392100Y167475D03*
X392100Y142075D03*
X392100Y116675D03*
X392100Y91275D03*
D16*
X337584Y141948D03*
X317584Y141948D03*
D17*
X381686Y452844D03*
X379146Y452844D03*
X380416Y452844D03*
X331902Y452844D03*
X329362Y452844D03*
X330886Y452844D03*
D18*
X390576Y477228D03*
X320472Y477228D03*
X390576Y482308D03*
X390576Y480022D03*
X320472Y482308D03*
X320472Y479768D03*
D15*
X138100Y472275D03*
X138100Y446875D03*
X138100Y421475D03*
X138100Y396075D03*
X138100Y370675D03*
X138100Y345275D03*
X138100Y319875D03*
X138100Y294475D03*
X138100Y269075D03*
X138100Y243675D03*
X138100Y218275D03*
X138100Y192875D03*
X138100Y167475D03*
X138100Y142075D03*
X138100Y116675D03*
X138100Y91275D03*
X163500Y116675D03*
X188900Y116675D03*
X214300Y116675D03*
X239700Y116675D03*
X265100Y116675D03*
X290500Y116675D03*
X315900Y116675D03*
X341300Y116675D03*
X163500Y91275D03*
X188900Y91275D03*
X214300Y91275D03*
X239700Y91275D03*
X265100Y91275D03*
X290500Y91275D03*
X315900Y91275D03*
X341300Y91275D03*
X417500Y294475D03*
X417500Y319875D03*
X417500Y345275D03*
X417500Y370675D03*
X417500Y396075D03*
X417500Y421475D03*
X417500Y446875D03*
X417500Y472275D03*
D19*
X342516Y385686D03*
X342516Y395186D03*
X342516Y404686D03*
X367516Y404686D03*
X367516Y385686D03*
M02*
