G04 EAGLE Gerber RS-274X export*
G75*
%MOMM*%
%FSLAX34Y34*%
%LPD*%
%INSolderpaste Top*%
%IPPOS*%
%AMOC8*
5,1,8,0,0,1.08239X$1,22.5*%
G01*
%ADD10C,0.317500*%
%ADD11C,0.200000*%
%ADD12C,0.158750*%
%ADD13R,0.300000X1.200000*%
%ADD14R,1.200000X0.300000*%
%ADD15C,0.040638*%
%ADD16C,0.152400*%
%ADD17R,0.600000X1.350000*%
%ADD18R,1.200000X2.000000*%
%ADD19R,0.870000X2.000000*%
%ADD20R,0.500000X0.800000*%
%ADD21R,0.250000X0.800000*%
%ADD22R,0.500000X0.250000*%
%ADD23R,0.400000X1.200000*%
%ADD24C,0.444500*%
%ADD25R,1.200000X0.800000*%

G36*
X391741Y470990D02*
X391741Y470990D01*
X391764Y470996D01*
X391887Y471019D01*
X392935Y471337D01*
X392957Y471347D01*
X393073Y471394D01*
X394039Y471910D01*
X394058Y471925D01*
X394163Y471993D01*
X395010Y472688D01*
X395026Y472706D01*
X395116Y472794D01*
X395811Y473641D01*
X395823Y473661D01*
X395894Y473765D01*
X396410Y474731D01*
X396418Y474754D01*
X396467Y474869D01*
X396785Y475917D01*
X396788Y475941D01*
X396814Y476063D01*
X396922Y477153D01*
X396920Y477180D01*
X396925Y477228D01*
X396925Y483578D01*
X396921Y483607D01*
X396920Y483663D01*
X396812Y484624D01*
X396812Y484625D01*
X396812Y484627D01*
X396774Y484790D01*
X396455Y485703D01*
X396454Y485704D01*
X396454Y485706D01*
X396381Y485857D01*
X395867Y486675D01*
X395866Y486676D01*
X395865Y486678D01*
X395760Y486809D01*
X395077Y487492D01*
X395075Y487493D01*
X395075Y487494D01*
X394943Y487599D01*
X394125Y488113D01*
X394123Y488113D01*
X394122Y488114D01*
X393971Y488187D01*
X393058Y488506D01*
X393057Y488507D01*
X393056Y488507D01*
X392892Y488544D01*
X391931Y488652D01*
X391902Y488651D01*
X391846Y488657D01*
X390322Y488657D01*
X390293Y488653D01*
X390237Y488652D01*
X389050Y488519D01*
X389048Y488518D01*
X389047Y488518D01*
X388884Y488481D01*
X387756Y488086D01*
X387755Y488086D01*
X387754Y488085D01*
X387603Y488012D01*
X386591Y487377D01*
X386590Y487376D01*
X386589Y487375D01*
X386458Y487271D01*
X385613Y486426D01*
X385613Y486425D01*
X385612Y486424D01*
X385507Y486293D01*
X384872Y485281D01*
X384871Y485280D01*
X384870Y485279D01*
X384798Y485128D01*
X384403Y484000D01*
X384403Y483999D01*
X384402Y483998D01*
X384365Y483834D01*
X384232Y482647D01*
X384233Y482618D01*
X384227Y482562D01*
X384227Y477228D01*
X384231Y477202D01*
X384230Y477153D01*
X384338Y476063D01*
X384344Y476040D01*
X384367Y475917D01*
X384685Y474869D01*
X384695Y474847D01*
X384742Y474731D01*
X385258Y473765D01*
X385273Y473746D01*
X385341Y473641D01*
X386036Y472794D01*
X386054Y472778D01*
X386142Y472688D01*
X386989Y471993D01*
X387009Y471981D01*
X387113Y471910D01*
X388079Y471394D01*
X388102Y471386D01*
X388217Y471337D01*
X389265Y471019D01*
X389289Y471016D01*
X389411Y470990D01*
X390501Y470882D01*
X390525Y470884D01*
X390651Y470882D01*
X391741Y470990D01*
G37*
G36*
X321517Y471137D02*
X321517Y471137D01*
X321573Y471138D01*
X322591Y471252D01*
X322592Y471253D01*
X322593Y471252D01*
X322757Y471290D01*
X323723Y471628D01*
X323724Y471629D01*
X323726Y471629D01*
X323877Y471702D01*
X324744Y472247D01*
X324745Y472248D01*
X324746Y472248D01*
X324877Y472353D01*
X325601Y473077D01*
X325602Y473078D01*
X325603Y473079D01*
X325707Y473210D01*
X326252Y474077D01*
X326252Y474079D01*
X326253Y474080D01*
X326326Y474231D01*
X326664Y475197D01*
X326664Y475199D01*
X326665Y475200D01*
X326702Y475363D01*
X326816Y476381D01*
X326815Y476410D01*
X326821Y476466D01*
X326821Y482816D01*
X326817Y482845D01*
X326816Y482901D01*
X326695Y483975D01*
X326695Y483976D01*
X326695Y483978D01*
X326658Y484141D01*
X326301Y485161D01*
X326300Y485163D01*
X326300Y485164D01*
X326227Y485315D01*
X325652Y486230D01*
X325651Y486231D01*
X325650Y486232D01*
X325545Y486363D01*
X324781Y487127D01*
X324780Y487128D01*
X324779Y487129D01*
X324648Y487234D01*
X323733Y487809D01*
X323732Y487809D01*
X323731Y487810D01*
X323579Y487883D01*
X322559Y488240D01*
X322558Y488240D01*
X322557Y488240D01*
X322393Y488277D01*
X321319Y488398D01*
X321290Y488397D01*
X321234Y488403D01*
X319202Y488403D01*
X319173Y488399D01*
X319117Y488398D01*
X318156Y488290D01*
X318155Y488290D01*
X318153Y488290D01*
X317990Y488252D01*
X317077Y487933D01*
X317076Y487932D01*
X317075Y487932D01*
X316924Y487859D01*
X316105Y487345D01*
X316104Y487344D01*
X316102Y487343D01*
X315972Y487238D01*
X315288Y486555D01*
X315287Y486553D01*
X315286Y486553D01*
X315182Y486421D01*
X314667Y485603D01*
X314667Y485601D01*
X314666Y485600D01*
X314593Y485449D01*
X314274Y484536D01*
X314273Y484535D01*
X314273Y484534D01*
X314236Y484370D01*
X314128Y483409D01*
X314129Y483380D01*
X314123Y483324D01*
X314123Y476466D01*
X314127Y476443D01*
X314124Y476422D01*
X314128Y476407D01*
X314128Y476381D01*
X314242Y475363D01*
X314243Y475362D01*
X314242Y475361D01*
X314280Y475197D01*
X314618Y474231D01*
X314619Y474230D01*
X314619Y474228D01*
X314692Y474077D01*
X315237Y473210D01*
X315238Y473209D01*
X315238Y473208D01*
X315343Y473077D01*
X316067Y472353D01*
X316068Y472352D01*
X316069Y472351D01*
X316200Y472247D01*
X317067Y471702D01*
X317069Y471702D01*
X317070Y471701D01*
X317221Y471628D01*
X318187Y471290D01*
X318189Y471290D01*
X318190Y471289D01*
X318353Y471252D01*
X319371Y471138D01*
X319400Y471139D01*
X319456Y471133D01*
X321488Y471133D01*
X321517Y471137D01*
G37*
G36*
X331674Y446753D02*
X331674Y446753D01*
X331723Y446752D01*
X332813Y446860D01*
X332836Y446866D01*
X332959Y446889D01*
X334007Y447207D01*
X334029Y447217D01*
X334145Y447264D01*
X335111Y447780D01*
X335130Y447795D01*
X335235Y447863D01*
X336082Y448558D01*
X336098Y448576D01*
X336188Y448664D01*
X336883Y449511D01*
X336895Y449531D01*
X336966Y449635D01*
X337482Y450601D01*
X337490Y450624D01*
X337539Y450739D01*
X337857Y451787D01*
X337860Y451811D01*
X337886Y451933D01*
X337994Y453023D01*
X337993Y453037D01*
X337992Y453183D01*
X337865Y454314D01*
X337865Y454315D01*
X337865Y454316D01*
X337827Y454480D01*
X337451Y455554D01*
X337451Y455555D01*
X337451Y455556D01*
X337378Y455707D01*
X336772Y456670D01*
X336771Y456671D01*
X336771Y456673D01*
X336666Y456804D01*
X335862Y457608D01*
X335861Y457609D01*
X335860Y457610D01*
X335728Y457714D01*
X334765Y458320D01*
X334764Y458320D01*
X334763Y458321D01*
X334612Y458393D01*
X333538Y458769D01*
X333537Y458769D01*
X333535Y458770D01*
X333372Y458807D01*
X332241Y458934D01*
X332212Y458933D01*
X332156Y458939D01*
X329616Y458939D01*
X329590Y458935D01*
X329541Y458936D01*
X328451Y458828D01*
X328428Y458822D01*
X328305Y458799D01*
X327257Y458481D01*
X327235Y458471D01*
X327119Y458424D01*
X326153Y457908D01*
X326134Y457893D01*
X326029Y457825D01*
X325182Y457130D01*
X325166Y457112D01*
X325076Y457024D01*
X324381Y456177D01*
X324369Y456157D01*
X324298Y456053D01*
X323782Y455087D01*
X323774Y455064D01*
X323725Y454949D01*
X323407Y453901D01*
X323404Y453877D01*
X323378Y453755D01*
X323270Y452665D01*
X323272Y452638D01*
X323267Y452590D01*
X323267Y452082D01*
X323271Y452059D01*
X323268Y452038D01*
X323272Y452023D01*
X323272Y451997D01*
X323386Y450979D01*
X323387Y450978D01*
X323386Y450977D01*
X323424Y450813D01*
X323762Y449847D01*
X323763Y449846D01*
X323763Y449844D01*
X323836Y449693D01*
X324381Y448826D01*
X324382Y448825D01*
X324382Y448824D01*
X324487Y448693D01*
X325211Y447969D01*
X325212Y447968D01*
X325213Y447967D01*
X325344Y447863D01*
X326211Y447318D01*
X326213Y447318D01*
X326214Y447317D01*
X326365Y447244D01*
X327331Y446906D01*
X327333Y446906D01*
X327334Y446905D01*
X327497Y446868D01*
X328515Y446754D01*
X328544Y446755D01*
X328600Y446749D01*
X331648Y446749D01*
X331674Y446753D01*
G37*
G36*
X381204Y446753D02*
X381204Y446753D01*
X381253Y446752D01*
X382392Y446865D01*
X382416Y446871D01*
X382539Y446894D01*
X383635Y447226D01*
X383656Y447237D01*
X383772Y447283D01*
X384783Y447823D01*
X384802Y447838D01*
X384907Y447906D01*
X385792Y448633D01*
X385808Y448651D01*
X385897Y448738D01*
X386624Y449623D01*
X386636Y449644D01*
X386707Y449748D01*
X387247Y450758D01*
X387255Y450780D01*
X387304Y450895D01*
X387636Y451991D01*
X387639Y452015D01*
X387665Y452138D01*
X387778Y453277D01*
X387777Y453291D01*
X387776Y453437D01*
X387655Y454511D01*
X387655Y454512D01*
X387655Y454514D01*
X387618Y454677D01*
X387261Y455697D01*
X387260Y455699D01*
X387260Y455700D01*
X387187Y455851D01*
X386612Y456766D01*
X386611Y456767D01*
X386610Y456768D01*
X386505Y456899D01*
X385741Y457663D01*
X385740Y457664D01*
X385739Y457665D01*
X385608Y457770D01*
X384693Y458345D01*
X384692Y458345D01*
X384691Y458346D01*
X384539Y458419D01*
X383519Y458776D01*
X383518Y458776D01*
X383517Y458776D01*
X383353Y458813D01*
X382279Y458934D01*
X382250Y458933D01*
X382194Y458939D01*
X379654Y458939D01*
X379628Y458935D01*
X379579Y458936D01*
X378440Y458823D01*
X378416Y458817D01*
X378293Y458794D01*
X377197Y458462D01*
X377176Y458451D01*
X377060Y458405D01*
X376050Y457865D01*
X376030Y457850D01*
X375925Y457782D01*
X375040Y457055D01*
X375024Y457037D01*
X374935Y456950D01*
X374208Y456065D01*
X374196Y456044D01*
X374125Y455941D01*
X373585Y454930D01*
X373578Y454908D01*
X373528Y454793D01*
X373196Y453697D01*
X373193Y453673D01*
X373167Y453550D01*
X373054Y452411D01*
X373055Y452397D01*
X373056Y452251D01*
X373177Y451177D01*
X373177Y451176D01*
X373177Y451174D01*
X373214Y451011D01*
X373571Y449991D01*
X373572Y449989D01*
X373572Y449988D01*
X373645Y449837D01*
X374220Y448922D01*
X374221Y448921D01*
X374222Y448920D01*
X374327Y448789D01*
X375091Y448025D01*
X375092Y448024D01*
X375093Y448023D01*
X375224Y447918D01*
X376139Y447343D01*
X376140Y447343D01*
X376141Y447342D01*
X376293Y447269D01*
X377313Y446912D01*
X377314Y446912D01*
X377315Y446912D01*
X377479Y446875D01*
X378553Y446754D01*
X378582Y446755D01*
X378638Y446749D01*
X381178Y446749D01*
X381204Y446753D01*
G37*
D10*
X269735Y198908D02*
X272911Y198908D01*
X272911Y195732D01*
X269735Y195732D01*
X269735Y198908D01*
X269735Y198748D02*
X272911Y198748D01*
X264021Y198908D02*
X260845Y198908D01*
X264021Y198908D02*
X264021Y195732D01*
X260845Y195732D01*
X260845Y198908D01*
X260845Y198748D02*
X264021Y198748D01*
X302247Y186080D02*
X305423Y186080D01*
X302247Y186080D02*
X302247Y189256D01*
X305423Y189256D01*
X305423Y186080D01*
X305423Y189096D02*
X302247Y189096D01*
X311137Y186080D02*
X314313Y186080D01*
X311137Y186080D02*
X311137Y189256D01*
X314313Y189256D01*
X314313Y186080D01*
X314313Y189096D02*
X311137Y189096D01*
X239891Y187604D02*
X236715Y187604D01*
X236715Y190780D01*
X239891Y190780D01*
X239891Y187604D01*
X239891Y190620D02*
X236715Y190620D01*
X245605Y187604D02*
X248781Y187604D01*
X245605Y187604D02*
X245605Y190780D01*
X248781Y190780D01*
X248781Y187604D01*
X248781Y190620D02*
X245605Y190620D01*
X239891Y148488D02*
X236715Y148488D01*
X236715Y151664D01*
X239891Y151664D01*
X239891Y148488D01*
X239891Y151504D02*
X236715Y151504D01*
X245605Y148488D02*
X248781Y148488D01*
X245605Y148488D02*
X245605Y151664D01*
X248781Y151664D01*
X248781Y148488D01*
X248781Y151504D02*
X245605Y151504D01*
X380225Y363754D02*
X383401Y363754D01*
X383401Y360578D01*
X380225Y360578D01*
X380225Y363754D01*
X380225Y363594D02*
X383401Y363594D01*
X374511Y363754D02*
X371335Y363754D01*
X374511Y363754D02*
X374511Y360578D01*
X371335Y360578D01*
X371335Y363754D01*
X371335Y363594D02*
X374511Y363594D01*
X185789Y234848D02*
X182613Y234848D01*
X182613Y238024D01*
X185789Y238024D01*
X185789Y234848D01*
X185789Y237864D02*
X182613Y237864D01*
X191503Y234848D02*
X194679Y234848D01*
X191503Y234848D02*
X191503Y238024D01*
X194679Y238024D01*
X194679Y234848D01*
X194679Y237864D02*
X191503Y237864D01*
X186042Y302031D02*
X186042Y305207D01*
X189218Y305207D01*
X189218Y302031D01*
X186042Y302031D01*
X186042Y305047D02*
X189218Y305047D01*
X186042Y296317D02*
X186042Y293141D01*
X186042Y296317D02*
X189218Y296317D01*
X189218Y293141D01*
X186042Y293141D01*
X186042Y296157D02*
X189218Y296157D01*
X219062Y361721D02*
X219062Y364897D01*
X222238Y364897D01*
X222238Y361721D01*
X219062Y361721D01*
X219062Y364737D02*
X222238Y364737D01*
X219062Y356007D02*
X219062Y352831D01*
X219062Y356007D02*
X222238Y356007D01*
X222238Y352831D01*
X219062Y352831D01*
X219062Y355847D02*
X222238Y355847D01*
X376415Y184556D02*
X379591Y184556D01*
X376415Y184556D02*
X376415Y187732D01*
X379591Y187732D01*
X379591Y184556D01*
X379591Y187572D02*
X376415Y187572D01*
X385305Y184556D02*
X388481Y184556D01*
X385305Y184556D02*
X385305Y187732D01*
X388481Y187732D01*
X388481Y184556D01*
X388481Y187572D02*
X385305Y187572D01*
X382893Y243358D02*
X379717Y243358D01*
X382893Y243358D02*
X382893Y240182D01*
X379717Y240182D01*
X379717Y243358D01*
X379717Y243198D02*
X382893Y243198D01*
X374003Y243358D02*
X370827Y243358D01*
X374003Y243358D02*
X374003Y240182D01*
X370827Y240182D01*
X370827Y243358D01*
X370827Y243198D02*
X374003Y243198D01*
X382003Y309144D02*
X385179Y309144D01*
X385179Y305968D01*
X382003Y305968D01*
X382003Y309144D01*
X382003Y308984D02*
X385179Y308984D01*
X376289Y309144D02*
X373113Y309144D01*
X376289Y309144D02*
X376289Y305968D01*
X373113Y305968D01*
X373113Y309144D01*
X373113Y308984D02*
X376289Y308984D01*
X276467Y141884D02*
X273291Y141884D01*
X273291Y145060D01*
X276467Y145060D01*
X276467Y141884D01*
X276467Y144900D02*
X273291Y144900D01*
X282181Y141884D02*
X285357Y141884D01*
X282181Y141884D02*
X282181Y145060D01*
X285357Y145060D01*
X285357Y141884D01*
X285357Y144900D02*
X282181Y144900D01*
X249796Y361721D02*
X249796Y364897D01*
X252972Y364897D01*
X252972Y361721D01*
X249796Y361721D01*
X249796Y364737D02*
X252972Y364737D01*
X249796Y356007D02*
X249796Y352831D01*
X249796Y356007D02*
X252972Y356007D01*
X252972Y352831D01*
X249796Y352831D01*
X249796Y355847D02*
X252972Y355847D01*
X229476Y361721D02*
X229476Y364897D01*
X232652Y364897D01*
X232652Y361721D01*
X229476Y361721D01*
X229476Y364737D02*
X232652Y364737D01*
X229476Y356007D02*
X229476Y352831D01*
X229476Y356007D02*
X232652Y356007D01*
X232652Y352831D01*
X229476Y352831D01*
X229476Y355847D02*
X232652Y355847D01*
X382003Y319050D02*
X385179Y319050D01*
X385179Y315874D01*
X382003Y315874D01*
X382003Y319050D01*
X382003Y318890D02*
X385179Y318890D01*
X376289Y319050D02*
X373113Y319050D01*
X376289Y319050D02*
X376289Y315874D01*
X373113Y315874D01*
X373113Y319050D01*
X373113Y318890D02*
X376289Y318890D01*
X379717Y253772D02*
X382893Y253772D01*
X382893Y250596D01*
X379717Y250596D01*
X379717Y253772D01*
X379717Y253612D02*
X382893Y253612D01*
X374003Y253772D02*
X370827Y253772D01*
X374003Y253772D02*
X374003Y250596D01*
X370827Y250596D01*
X370827Y253772D01*
X370827Y253612D02*
X374003Y253612D01*
X185789Y224688D02*
X182613Y224688D01*
X182613Y227864D01*
X185789Y227864D01*
X185789Y224688D01*
X185789Y227704D02*
X182613Y227704D01*
X191503Y224688D02*
X194679Y224688D01*
X191503Y224688D02*
X191503Y227864D01*
X194679Y227864D01*
X194679Y224688D01*
X194679Y227704D02*
X191503Y227704D01*
X185789Y214528D02*
X182613Y214528D01*
X182613Y217704D01*
X185789Y217704D01*
X185789Y214528D01*
X185789Y217544D02*
X182613Y217544D01*
X191503Y214528D02*
X194679Y214528D01*
X191503Y214528D02*
X191503Y217704D01*
X194679Y217704D01*
X194679Y214528D01*
X194679Y217544D02*
X191503Y217544D01*
X218935Y170968D02*
X222111Y170968D01*
X222111Y167792D01*
X218935Y167792D01*
X218935Y170968D01*
X218935Y170808D02*
X222111Y170808D01*
X213221Y170968D02*
X210045Y170968D01*
X213221Y170968D02*
X213221Y167792D01*
X210045Y167792D01*
X210045Y170968D01*
X210045Y170808D02*
X213221Y170808D01*
X302247Y196240D02*
X305423Y196240D01*
X302247Y196240D02*
X302247Y199416D01*
X305423Y199416D01*
X305423Y196240D01*
X305423Y199256D02*
X302247Y199256D01*
X311137Y196240D02*
X314313Y196240D01*
X311137Y196240D02*
X311137Y199416D01*
X314313Y199416D01*
X314313Y196240D01*
X314313Y199256D02*
X311137Y199256D01*
D11*
X371782Y427238D02*
X379782Y427238D01*
X371782Y427238D02*
X371782Y433238D01*
X379782Y433238D01*
X379782Y427238D01*
X379782Y429138D02*
X371782Y429138D01*
X371782Y431038D02*
X379782Y431038D01*
X379782Y432938D02*
X371782Y432938D01*
X395782Y427238D02*
X403782Y427238D01*
X395782Y427238D02*
X395782Y433238D01*
X403782Y433238D01*
X403782Y427238D01*
X403782Y429138D02*
X395782Y429138D01*
X395782Y431038D02*
X403782Y431038D01*
X403782Y432938D02*
X395782Y432938D01*
D12*
X298342Y408490D02*
X293580Y408490D01*
X293580Y414902D01*
X298342Y414902D01*
X298342Y408490D01*
X298342Y409999D02*
X293580Y409999D01*
X293580Y411508D02*
X298342Y411508D01*
X298342Y413017D02*
X293580Y413017D01*
X293580Y414526D02*
X298342Y414526D01*
X307550Y408490D02*
X312312Y408490D01*
X307550Y408490D02*
X307550Y414902D01*
X312312Y414902D01*
X312312Y408490D01*
X312312Y409999D02*
X307550Y409999D01*
X307550Y411508D02*
X312312Y411508D01*
X312312Y413017D02*
X307550Y413017D01*
X307550Y414526D02*
X312312Y414526D01*
X298342Y420682D02*
X293580Y420682D01*
X293580Y427094D01*
X298342Y427094D01*
X298342Y420682D01*
X298342Y422191D02*
X293580Y422191D01*
X293580Y423700D02*
X298342Y423700D01*
X298342Y425209D02*
X293580Y425209D01*
X293580Y426718D02*
X298342Y426718D01*
X307550Y420682D02*
X312312Y420682D01*
X307550Y420682D02*
X307550Y427094D01*
X312312Y427094D01*
X312312Y420682D01*
X312312Y422191D02*
X307550Y422191D01*
X307550Y423700D02*
X312312Y423700D01*
X312312Y425209D02*
X307550Y425209D01*
X307550Y426718D02*
X312312Y426718D01*
X299740Y447542D02*
X299740Y452304D01*
X306152Y452304D01*
X306152Y447542D01*
X299740Y447542D01*
X299740Y449051D02*
X306152Y449051D01*
X306152Y450560D02*
X299740Y450560D01*
X299740Y452069D02*
X306152Y452069D01*
X299740Y438334D02*
X299740Y433572D01*
X299740Y438334D02*
X306152Y438334D01*
X306152Y433572D01*
X299740Y433572D01*
X299740Y435081D02*
X306152Y435081D01*
X306152Y436590D02*
X299740Y436590D01*
X299740Y438099D02*
X306152Y438099D01*
X306152Y461512D02*
X306152Y466274D01*
X306152Y461512D02*
X299740Y461512D01*
X299740Y466274D01*
X306152Y466274D01*
X306152Y463021D02*
X299740Y463021D01*
X299740Y464530D02*
X306152Y464530D01*
X306152Y466039D02*
X299740Y466039D01*
X306152Y475482D02*
X306152Y480244D01*
X306152Y475482D02*
X299740Y475482D01*
X299740Y480244D01*
X306152Y480244D01*
X306152Y476991D02*
X299740Y476991D01*
X299740Y478500D02*
X306152Y478500D01*
X306152Y480009D02*
X299740Y480009D01*
D13*
X252746Y222370D03*
X257746Y222370D03*
X262746Y222370D03*
X267746Y222370D03*
X272746Y222370D03*
X277746Y222370D03*
X282746Y222370D03*
X287746Y222370D03*
X292746Y222370D03*
X297746Y222370D03*
X302746Y222370D03*
X307746Y222370D03*
X312746Y222370D03*
X317746Y222370D03*
X322746Y222370D03*
X327746Y222370D03*
D14*
X347746Y242370D03*
X347746Y247370D03*
X347746Y252370D03*
X347746Y257370D03*
X347746Y262370D03*
X347746Y267370D03*
X347746Y272370D03*
X347746Y277370D03*
X347746Y282370D03*
X347746Y287370D03*
X347746Y292370D03*
X347746Y297370D03*
X347746Y302370D03*
X347746Y307370D03*
X347746Y312370D03*
X347746Y317370D03*
D13*
X327746Y337370D03*
X322746Y337370D03*
X317746Y337370D03*
X312746Y337370D03*
X307746Y337370D03*
X302746Y337370D03*
X297746Y337370D03*
X292746Y337370D03*
X287746Y337370D03*
X282746Y337370D03*
X277746Y337370D03*
X272746Y337370D03*
X267746Y337370D03*
X262746Y337370D03*
X257746Y337370D03*
X252746Y337370D03*
D14*
X232746Y317370D03*
X232746Y312370D03*
X232746Y307370D03*
X232746Y302370D03*
X232746Y297370D03*
X232746Y292370D03*
X232746Y287370D03*
X232746Y282370D03*
X232746Y277370D03*
X232746Y272370D03*
X232746Y267370D03*
X232746Y262370D03*
X232746Y257370D03*
X232746Y252370D03*
X232746Y247370D03*
X232746Y242370D03*
D15*
X366903Y459372D02*
X370561Y459372D01*
X370561Y446316D01*
X366903Y446316D01*
X366903Y459372D01*
X366903Y446702D02*
X370561Y446702D01*
X370561Y447088D02*
X366903Y447088D01*
X366903Y447474D02*
X370561Y447474D01*
X370561Y447860D02*
X366903Y447860D01*
X366903Y448246D02*
X370561Y448246D01*
X370561Y448632D02*
X366903Y448632D01*
X366903Y449018D02*
X370561Y449018D01*
X370561Y449404D02*
X366903Y449404D01*
X366903Y449790D02*
X370561Y449790D01*
X370561Y450176D02*
X366903Y450176D01*
X366903Y450562D02*
X370561Y450562D01*
X370561Y450948D02*
X366903Y450948D01*
X366903Y451334D02*
X370561Y451334D01*
X370561Y451720D02*
X366903Y451720D01*
X366903Y452106D02*
X370561Y452106D01*
X370561Y452492D02*
X366903Y452492D01*
X366903Y452878D02*
X370561Y452878D01*
X370561Y453264D02*
X366903Y453264D01*
X366903Y453650D02*
X370561Y453650D01*
X370561Y454036D02*
X366903Y454036D01*
X366903Y454422D02*
X370561Y454422D01*
X370561Y454808D02*
X366903Y454808D01*
X366903Y455194D02*
X370561Y455194D01*
X370561Y455580D02*
X366903Y455580D01*
X366903Y455966D02*
X370561Y455966D01*
X370561Y456352D02*
X366903Y456352D01*
X366903Y456738D02*
X370561Y456738D01*
X370561Y457124D02*
X366903Y457124D01*
X366903Y457510D02*
X370561Y457510D01*
X370561Y457896D02*
X366903Y457896D01*
X366903Y458282D02*
X370561Y458282D01*
X370561Y458668D02*
X366903Y458668D01*
X366903Y459054D02*
X370561Y459054D01*
X363957Y459372D02*
X360299Y459372D01*
X363957Y459372D02*
X363957Y446316D01*
X360299Y446316D01*
X360299Y459372D01*
X360299Y446702D02*
X363957Y446702D01*
X363957Y447088D02*
X360299Y447088D01*
X360299Y447474D02*
X363957Y447474D01*
X363957Y447860D02*
X360299Y447860D01*
X360299Y448246D02*
X363957Y448246D01*
X363957Y448632D02*
X360299Y448632D01*
X360299Y449018D02*
X363957Y449018D01*
X363957Y449404D02*
X360299Y449404D01*
X360299Y449790D02*
X363957Y449790D01*
X363957Y450176D02*
X360299Y450176D01*
X360299Y450562D02*
X363957Y450562D01*
X363957Y450948D02*
X360299Y450948D01*
X360299Y451334D02*
X363957Y451334D01*
X363957Y451720D02*
X360299Y451720D01*
X360299Y452106D02*
X363957Y452106D01*
X363957Y452492D02*
X360299Y452492D01*
X360299Y452878D02*
X363957Y452878D01*
X363957Y453264D02*
X360299Y453264D01*
X360299Y453650D02*
X363957Y453650D01*
X363957Y454036D02*
X360299Y454036D01*
X360299Y454422D02*
X363957Y454422D01*
X363957Y454808D02*
X360299Y454808D01*
X360299Y455194D02*
X363957Y455194D01*
X363957Y455580D02*
X360299Y455580D01*
X360299Y455966D02*
X363957Y455966D01*
X363957Y456352D02*
X360299Y456352D01*
X360299Y456738D02*
X363957Y456738D01*
X363957Y457124D02*
X360299Y457124D01*
X360299Y457510D02*
X363957Y457510D01*
X363957Y457896D02*
X360299Y457896D01*
X360299Y458282D02*
X363957Y458282D01*
X363957Y458668D02*
X360299Y458668D01*
X360299Y459054D02*
X363957Y459054D01*
X357353Y459372D02*
X353695Y459372D01*
X357353Y459372D02*
X357353Y446316D01*
X353695Y446316D01*
X353695Y459372D01*
X353695Y446702D02*
X357353Y446702D01*
X357353Y447088D02*
X353695Y447088D01*
X353695Y447474D02*
X357353Y447474D01*
X357353Y447860D02*
X353695Y447860D01*
X353695Y448246D02*
X357353Y448246D01*
X357353Y448632D02*
X353695Y448632D01*
X353695Y449018D02*
X357353Y449018D01*
X357353Y449404D02*
X353695Y449404D01*
X353695Y449790D02*
X357353Y449790D01*
X357353Y450176D02*
X353695Y450176D01*
X353695Y450562D02*
X357353Y450562D01*
X357353Y450948D02*
X353695Y450948D01*
X353695Y451334D02*
X357353Y451334D01*
X357353Y451720D02*
X353695Y451720D01*
X353695Y452106D02*
X357353Y452106D01*
X357353Y452492D02*
X353695Y452492D01*
X353695Y452878D02*
X357353Y452878D01*
X357353Y453264D02*
X353695Y453264D01*
X353695Y453650D02*
X357353Y453650D01*
X357353Y454036D02*
X353695Y454036D01*
X353695Y454422D02*
X357353Y454422D01*
X357353Y454808D02*
X353695Y454808D01*
X353695Y455194D02*
X357353Y455194D01*
X357353Y455580D02*
X353695Y455580D01*
X353695Y455966D02*
X357353Y455966D01*
X357353Y456352D02*
X353695Y456352D01*
X353695Y456738D02*
X357353Y456738D01*
X357353Y457124D02*
X353695Y457124D01*
X353695Y457510D02*
X357353Y457510D01*
X357353Y457896D02*
X353695Y457896D01*
X353695Y458282D02*
X357353Y458282D01*
X357353Y458668D02*
X353695Y458668D01*
X353695Y459054D02*
X357353Y459054D01*
X350749Y459372D02*
X347091Y459372D01*
X350749Y459372D02*
X350749Y446316D01*
X347091Y446316D01*
X347091Y459372D01*
X347091Y446702D02*
X350749Y446702D01*
X350749Y447088D02*
X347091Y447088D01*
X347091Y447474D02*
X350749Y447474D01*
X350749Y447860D02*
X347091Y447860D01*
X347091Y448246D02*
X350749Y448246D01*
X350749Y448632D02*
X347091Y448632D01*
X347091Y449018D02*
X350749Y449018D01*
X350749Y449404D02*
X347091Y449404D01*
X347091Y449790D02*
X350749Y449790D01*
X350749Y450176D02*
X347091Y450176D01*
X347091Y450562D02*
X350749Y450562D01*
X350749Y450948D02*
X347091Y450948D01*
X347091Y451334D02*
X350749Y451334D01*
X350749Y451720D02*
X347091Y451720D01*
X347091Y452106D02*
X350749Y452106D01*
X350749Y452492D02*
X347091Y452492D01*
X347091Y452878D02*
X350749Y452878D01*
X350749Y453264D02*
X347091Y453264D01*
X347091Y453650D02*
X350749Y453650D01*
X350749Y454036D02*
X347091Y454036D01*
X347091Y454422D02*
X350749Y454422D01*
X350749Y454808D02*
X347091Y454808D01*
X347091Y455194D02*
X350749Y455194D01*
X350749Y455580D02*
X347091Y455580D01*
X347091Y455966D02*
X350749Y455966D01*
X350749Y456352D02*
X347091Y456352D01*
X347091Y456738D02*
X350749Y456738D01*
X350749Y457124D02*
X347091Y457124D01*
X347091Y457510D02*
X350749Y457510D01*
X350749Y457896D02*
X347091Y457896D01*
X347091Y458282D02*
X350749Y458282D01*
X350749Y458668D02*
X347091Y458668D01*
X347091Y459054D02*
X350749Y459054D01*
X344145Y459372D02*
X340487Y459372D01*
X344145Y459372D02*
X344145Y446316D01*
X340487Y446316D01*
X340487Y459372D01*
X340487Y446702D02*
X344145Y446702D01*
X344145Y447088D02*
X340487Y447088D01*
X340487Y447474D02*
X344145Y447474D01*
X344145Y447860D02*
X340487Y447860D01*
X340487Y448246D02*
X344145Y448246D01*
X344145Y448632D02*
X340487Y448632D01*
X340487Y449018D02*
X344145Y449018D01*
X344145Y449404D02*
X340487Y449404D01*
X340487Y449790D02*
X344145Y449790D01*
X344145Y450176D02*
X340487Y450176D01*
X340487Y450562D02*
X344145Y450562D01*
X344145Y450948D02*
X340487Y450948D01*
X340487Y451334D02*
X344145Y451334D01*
X344145Y451720D02*
X340487Y451720D01*
X340487Y452106D02*
X344145Y452106D01*
X344145Y452492D02*
X340487Y452492D01*
X340487Y452878D02*
X344145Y452878D01*
X344145Y453264D02*
X340487Y453264D01*
X340487Y453650D02*
X344145Y453650D01*
X344145Y454036D02*
X340487Y454036D01*
X340487Y454422D02*
X344145Y454422D01*
X344145Y454808D02*
X340487Y454808D01*
X340487Y455194D02*
X344145Y455194D01*
X344145Y455580D02*
X340487Y455580D01*
X340487Y455966D02*
X344145Y455966D01*
X344145Y456352D02*
X340487Y456352D01*
X340487Y456738D02*
X344145Y456738D01*
X344145Y457124D02*
X340487Y457124D01*
X340487Y457510D02*
X344145Y457510D01*
X344145Y457896D02*
X340487Y457896D01*
X340487Y458282D02*
X344145Y458282D01*
X344145Y458668D02*
X340487Y458668D01*
X340487Y459054D02*
X344145Y459054D01*
D16*
X358826Y486626D02*
X372542Y486626D01*
X372542Y472910D01*
X358826Y472910D01*
X358826Y486626D01*
X358826Y474358D02*
X372542Y474358D01*
X372542Y475806D02*
X358826Y475806D01*
X358826Y477254D02*
X372542Y477254D01*
X372542Y478702D02*
X358826Y478702D01*
X358826Y480150D02*
X372542Y480150D01*
X372542Y481598D02*
X358826Y481598D01*
X358826Y483046D02*
X372542Y483046D01*
X372542Y484494D02*
X358826Y484494D01*
X358826Y485942D02*
X372542Y485942D01*
X352222Y486626D02*
X338506Y486626D01*
X352222Y486626D02*
X352222Y472910D01*
X338506Y472910D01*
X338506Y486626D01*
X338506Y474358D02*
X352222Y474358D01*
X352222Y475806D02*
X338506Y475806D01*
X338506Y477254D02*
X352222Y477254D01*
X352222Y478702D02*
X338506Y478702D01*
X338506Y480150D02*
X352222Y480150D01*
X352222Y481598D02*
X338506Y481598D01*
X338506Y483046D02*
X352222Y483046D01*
X352222Y484494D02*
X338506Y484494D01*
X338506Y485942D02*
X352222Y485942D01*
D17*
X273750Y440779D03*
X263750Y440779D03*
X253750Y440779D03*
X243750Y440779D03*
D18*
X230750Y477529D03*
X286750Y477529D03*
D17*
X201900Y440779D03*
X191900Y440779D03*
X181900Y440779D03*
X171900Y440779D03*
D18*
X158900Y477529D03*
X214900Y477529D03*
D19*
X344208Y386550D03*
X390208Y386550D03*
X254546Y386550D03*
X300546Y386550D03*
D10*
X330441Y189256D02*
X333617Y189256D01*
X333617Y186080D01*
X330441Y186080D01*
X330441Y189256D01*
X330441Y189096D02*
X333617Y189096D01*
X324727Y189256D02*
X321551Y189256D01*
X324727Y189256D02*
X324727Y186080D01*
X321551Y186080D01*
X321551Y189256D01*
X321551Y189096D02*
X324727Y189096D01*
D20*
X324178Y177286D03*
X311178Y177286D03*
X317678Y157286D03*
D10*
X362572Y432587D02*
X362572Y435763D01*
X365748Y435763D01*
X365748Y432587D01*
X362572Y432587D01*
X362572Y435603D02*
X365748Y435603D01*
X362572Y426873D02*
X362572Y423697D01*
X362572Y426873D02*
X365748Y426873D01*
X365748Y423697D01*
X362572Y423697D01*
X362572Y426713D02*
X365748Y426713D01*
X329552Y391567D02*
X329552Y388391D01*
X329552Y391567D02*
X332728Y391567D01*
X332728Y388391D01*
X329552Y388391D01*
X329552Y391407D02*
X332728Y391407D01*
X329552Y382677D02*
X329552Y379501D01*
X329552Y382677D02*
X332728Y382677D01*
X332728Y379501D01*
X329552Y379501D01*
X329552Y382517D02*
X332728Y382517D01*
X232779Y416078D02*
X229603Y416078D01*
X232779Y416078D02*
X232779Y412902D01*
X229603Y412902D01*
X229603Y416078D01*
X229603Y415918D02*
X232779Y415918D01*
X223889Y416078D02*
X220713Y416078D01*
X223889Y416078D02*
X223889Y412902D01*
X220713Y412902D01*
X220713Y416078D01*
X220713Y415918D02*
X223889Y415918D01*
X229603Y426492D02*
X232779Y426492D01*
X232779Y423316D01*
X229603Y423316D01*
X229603Y426492D01*
X229603Y426332D02*
X232779Y426332D01*
X223889Y426492D02*
X220713Y426492D01*
X223889Y426492D02*
X223889Y423316D01*
X220713Y423316D01*
X220713Y426492D01*
X220713Y426332D02*
X223889Y426332D01*
X239636Y364897D02*
X239636Y361721D01*
X239636Y364897D02*
X242812Y364897D01*
X242812Y361721D01*
X239636Y361721D01*
X239636Y364737D02*
X242812Y364737D01*
X239636Y356007D02*
X239636Y352831D01*
X239636Y356007D02*
X242812Y356007D01*
X242812Y352831D01*
X239636Y352831D01*
X239636Y355847D02*
X242812Y355847D01*
X175882Y305207D02*
X175882Y302031D01*
X175882Y305207D02*
X179058Y305207D01*
X179058Y302031D01*
X175882Y302031D01*
X175882Y305047D02*
X179058Y305047D01*
X175882Y296317D02*
X175882Y293141D01*
X175882Y296317D02*
X179058Y296317D01*
X179058Y293141D01*
X175882Y293141D01*
X175882Y296157D02*
X179058Y296157D01*
X178803Y157124D02*
X181979Y157124D01*
X178803Y157124D02*
X178803Y160300D01*
X181979Y160300D01*
X181979Y157124D01*
X181979Y160140D02*
X178803Y160140D01*
X187693Y157124D02*
X190869Y157124D01*
X187693Y157124D02*
X187693Y160300D01*
X190869Y160300D01*
X190869Y157124D01*
X190869Y160140D02*
X187693Y160140D01*
X319392Y388391D02*
X319392Y391567D01*
X322568Y391567D01*
X322568Y388391D01*
X319392Y388391D01*
X319392Y391407D02*
X322568Y391407D01*
X319392Y382677D02*
X319392Y379501D01*
X319392Y382677D02*
X322568Y382677D01*
X322568Y379501D01*
X319392Y379501D01*
X319392Y382517D02*
X322568Y382517D01*
X173850Y364389D02*
X173850Y361213D01*
X173850Y364389D02*
X177026Y364389D01*
X177026Y361213D01*
X173850Y361213D01*
X173850Y364229D02*
X177026Y364229D01*
X173850Y355499D02*
X173850Y352323D01*
X173850Y355499D02*
X177026Y355499D01*
X177026Y352323D01*
X173850Y352323D01*
X173850Y355339D02*
X177026Y355339D01*
X335013Y175666D02*
X338189Y175666D01*
X335013Y175666D02*
X335013Y178842D01*
X338189Y178842D01*
X338189Y175666D01*
X338189Y178682D02*
X335013Y178682D01*
X343903Y175666D02*
X347079Y175666D01*
X343903Y175666D02*
X343903Y178842D01*
X347079Y178842D01*
X347079Y175666D01*
X347079Y178682D02*
X343903Y178682D01*
X222111Y161062D02*
X218935Y161062D01*
X222111Y161062D02*
X222111Y157886D01*
X218935Y157886D01*
X218935Y161062D01*
X218935Y160902D02*
X222111Y160902D01*
X213221Y161062D02*
X210045Y161062D01*
X213221Y161062D02*
X213221Y157886D01*
X210045Y157886D01*
X210045Y161062D01*
X210045Y160902D02*
X213221Y160902D01*
X351904Y432587D02*
X351904Y435763D01*
X355080Y435763D01*
X355080Y432587D01*
X351904Y432587D01*
X351904Y435603D02*
X355080Y435603D01*
X351904Y426873D02*
X351904Y423697D01*
X351904Y426873D02*
X355080Y426873D01*
X355080Y423697D01*
X351904Y423697D01*
X351904Y426713D02*
X355080Y426713D01*
X165722Y305207D02*
X165722Y302031D01*
X165722Y305207D02*
X168898Y305207D01*
X168898Y302031D01*
X165722Y302031D01*
X165722Y305047D02*
X168898Y305047D01*
X165722Y296317D02*
X165722Y293141D01*
X165722Y296317D02*
X168898Y296317D01*
X168898Y293141D01*
X165722Y293141D01*
X165722Y296157D02*
X168898Y296157D01*
X360921Y363754D02*
X364097Y363754D01*
X364097Y360578D01*
X360921Y360578D01*
X360921Y363754D01*
X360921Y363594D02*
X364097Y363594D01*
X355207Y363754D02*
X352031Y363754D01*
X355207Y363754D02*
X355207Y360578D01*
X352031Y360578D01*
X352031Y363754D01*
X352031Y363594D02*
X355207Y363594D01*
X263132Y356007D02*
X263132Y352831D01*
X259956Y352831D01*
X259956Y356007D01*
X263132Y356007D01*
X263132Y355847D02*
X259956Y355847D01*
X263132Y361721D02*
X263132Y364897D01*
X263132Y361721D02*
X259956Y361721D01*
X259956Y364897D01*
X263132Y364897D01*
X263132Y364737D02*
X259956Y364737D01*
X187440Y355753D02*
X187440Y352577D01*
X184264Y352577D01*
X184264Y355753D01*
X187440Y355753D01*
X187440Y355593D02*
X184264Y355593D01*
X187440Y361467D02*
X187440Y364643D01*
X187440Y361467D02*
X184264Y361467D01*
X184264Y364643D01*
X187440Y364643D01*
X187440Y364483D02*
X184264Y364483D01*
X208522Y355753D02*
X208522Y352577D01*
X205346Y352577D01*
X205346Y355753D01*
X208522Y355753D01*
X208522Y355593D02*
X205346Y355593D01*
X208522Y361467D02*
X208522Y364643D01*
X208522Y361467D02*
X205346Y361467D01*
X205346Y364643D01*
X208522Y364643D01*
X208522Y364483D02*
X205346Y364483D01*
X197854Y355753D02*
X197854Y352577D01*
X194678Y352577D01*
X194678Y355753D01*
X197854Y355753D01*
X197854Y355593D02*
X194678Y355593D01*
X197854Y361467D02*
X197854Y364643D01*
X197854Y361467D02*
X194678Y361467D01*
X194678Y364643D01*
X197854Y364643D01*
X197854Y364483D02*
X194678Y364483D01*
X180454Y406679D02*
X180454Y409855D01*
X183630Y409855D01*
X183630Y406679D01*
X180454Y406679D01*
X180454Y409695D02*
X183630Y409695D01*
X180454Y400965D02*
X180454Y397789D01*
X180454Y400965D02*
X183630Y400965D01*
X183630Y397789D01*
X180454Y397789D01*
X180454Y400805D02*
X183630Y400805D01*
X170040Y406679D02*
X170040Y409855D01*
X173216Y409855D01*
X173216Y406679D01*
X170040Y406679D01*
X170040Y409695D02*
X173216Y409695D01*
X170040Y400965D02*
X170040Y397789D01*
X170040Y400965D02*
X173216Y400965D01*
X173216Y397789D01*
X170040Y397789D01*
X170040Y400805D02*
X173216Y400805D01*
D21*
X191534Y278888D03*
X186534Y278888D03*
X181534Y278888D03*
X176534Y278888D03*
X171534Y278888D03*
X171534Y251388D03*
X176534Y251388D03*
X181534Y251388D03*
X186534Y251388D03*
X191534Y251388D03*
D22*
X166534Y265138D03*
X196534Y265138D03*
D23*
X371932Y201083D03*
X381432Y201083D03*
X390932Y201083D03*
X390932Y227085D03*
X371932Y227085D03*
D24*
X281927Y185827D02*
X281927Y178841D01*
X281927Y185827D02*
X286373Y185827D01*
X286373Y178841D01*
X281927Y178841D01*
X281927Y183064D02*
X286373Y183064D01*
X281927Y160427D02*
X281927Y153441D01*
X281927Y160427D02*
X286373Y160427D01*
X286373Y153441D01*
X281927Y153441D01*
X281927Y157664D02*
X286373Y157664D01*
X261607Y178841D02*
X261607Y185827D01*
X266053Y185827D01*
X266053Y178841D01*
X261607Y178841D01*
X261607Y183064D02*
X266053Y183064D01*
X261607Y160427D02*
X261607Y153441D01*
X261607Y160427D02*
X266053Y160427D01*
X266053Y153441D01*
X261607Y153441D01*
X261607Y157664D02*
X266053Y157664D01*
D25*
X247066Y160634D03*
X247066Y178634D03*
D10*
X312154Y379501D02*
X312154Y382677D01*
X312154Y379501D02*
X308978Y379501D01*
X308978Y382677D01*
X312154Y382677D01*
X312154Y382517D02*
X308978Y382517D01*
X312154Y388391D02*
X312154Y391567D01*
X312154Y388391D02*
X308978Y388391D01*
X308978Y391567D01*
X312154Y391567D01*
X312154Y391407D02*
X308978Y391407D01*
M02*
