G04 EAGLE Gerber RS-274X export*
G75*
%MOMM*%
%FSLAX34Y34*%
%LPD*%
%INSilkscreen Top*%
%IPPOS*%
%AMOC8*
5,1,8,0,0,1.08239X$1,22.5*%
G01*
%ADD10C,0.076200*%
%ADD11C,0.101600*%
%ADD12C,0.152400*%
%ADD13C,0.127000*%
%ADD14C,0.254000*%
%ADD15C,0.400000*%
%ADD16C,0.200000*%
%ADD17C,0.406400*%
%ADD18C,0.050800*%

G36*
X447602Y61827D02*
X447602Y61827D01*
X447704Y61835D01*
X447732Y61847D01*
X447763Y61852D01*
X447855Y61896D01*
X447951Y61934D01*
X447974Y61954D01*
X448002Y61967D01*
X448077Y62037D01*
X448157Y62102D01*
X448174Y62128D01*
X448196Y62149D01*
X448247Y62238D01*
X448304Y62323D01*
X448310Y62347D01*
X448328Y62379D01*
X448386Y62639D01*
X448383Y62677D01*
X448388Y62700D01*
X448388Y81242D01*
X448373Y81344D01*
X448365Y81446D01*
X448353Y81474D01*
X448348Y81505D01*
X448304Y81597D01*
X448266Y81693D01*
X448246Y81716D01*
X448233Y81744D01*
X448163Y81819D01*
X448098Y81899D01*
X448072Y81916D01*
X448051Y81938D01*
X447962Y81989D01*
X447877Y82046D01*
X447853Y82052D01*
X447821Y82070D01*
X447561Y82128D01*
X447523Y82125D01*
X447500Y82130D01*
X427532Y82130D01*
X427532Y103848D01*
X427517Y103950D01*
X427509Y104052D01*
X427497Y104080D01*
X427492Y104111D01*
X427448Y104203D01*
X427410Y104299D01*
X427390Y104322D01*
X427377Y104350D01*
X427307Y104425D01*
X427242Y104505D01*
X427216Y104522D01*
X427195Y104544D01*
X427106Y104595D01*
X427021Y104652D01*
X426997Y104658D01*
X426965Y104676D01*
X426705Y104734D01*
X426667Y104731D01*
X426644Y104736D01*
X405054Y104736D01*
X404952Y104721D01*
X404850Y104713D01*
X404822Y104701D01*
X404791Y104696D01*
X404699Y104652D01*
X404603Y104614D01*
X404580Y104594D01*
X404552Y104581D01*
X404477Y104511D01*
X404397Y104446D01*
X404380Y104420D01*
X404358Y104399D01*
X404307Y104310D01*
X404250Y104225D01*
X404244Y104201D01*
X404226Y104169D01*
X404168Y103909D01*
X404171Y103871D01*
X404166Y103848D01*
X404166Y62700D01*
X404181Y62598D01*
X404189Y62496D01*
X404201Y62468D01*
X404206Y62437D01*
X404250Y62345D01*
X404288Y62249D01*
X404308Y62226D01*
X404321Y62198D01*
X404391Y62123D01*
X404456Y62043D01*
X404482Y62026D01*
X404503Y62004D01*
X404592Y61953D01*
X404677Y61896D01*
X404701Y61890D01*
X404733Y61872D01*
X404993Y61814D01*
X405031Y61817D01*
X405054Y61812D01*
X447500Y61812D01*
X447602Y61827D01*
G37*
D10*
X296291Y491369D02*
X296291Y483997D01*
X301206Y483997D01*
X303775Y488912D02*
X306233Y491369D01*
X306233Y483997D01*
X308690Y483997D02*
X303775Y483997D01*
X315849Y442601D02*
X315849Y435229D01*
X320764Y435229D01*
X323333Y435229D02*
X328248Y435229D01*
X323333Y435229D02*
X328248Y440144D01*
X328248Y441373D01*
X327019Y442601D01*
X324562Y442601D01*
X323333Y441373D01*
X315849Y431933D02*
X315849Y424561D01*
X320764Y424561D01*
X323333Y430705D02*
X324562Y431933D01*
X327019Y431933D01*
X328248Y430705D01*
X328248Y429476D01*
X327019Y428247D01*
X325791Y428247D01*
X327019Y428247D02*
X328248Y427018D01*
X328248Y425790D01*
X327019Y424561D01*
X324562Y424561D01*
X323333Y425790D01*
X315849Y421773D02*
X315849Y414401D01*
X320764Y414401D01*
X327019Y414401D02*
X327019Y421773D01*
X323333Y418087D01*
X328248Y418087D01*
X360429Y73793D02*
X361658Y72565D01*
X360429Y73793D02*
X357972Y73793D01*
X356743Y72565D01*
X356743Y67650D01*
X357972Y66421D01*
X360429Y66421D01*
X361658Y67650D01*
X361658Y70107D01*
X359200Y70107D01*
X364227Y66421D02*
X364227Y73793D01*
X369142Y66421D01*
X369142Y73793D01*
X371711Y73793D02*
X371711Y66421D01*
X375397Y66421D01*
X376626Y67650D01*
X376626Y72565D01*
X375397Y73793D01*
X371711Y73793D01*
X336258Y66421D02*
X331343Y73793D01*
X336258Y73793D02*
X331343Y66421D01*
X338827Y66421D02*
X343742Y66421D01*
X338827Y66421D02*
X343742Y71336D01*
X343742Y72565D01*
X342513Y73793D01*
X340056Y73793D01*
X338827Y72565D01*
X349997Y73793D02*
X349997Y66421D01*
X346311Y70107D02*
X349997Y73793D01*
X351226Y70107D02*
X346311Y70107D01*
D11*
X218015Y183388D02*
X210219Y183388D01*
X208270Y185337D01*
X208270Y189235D01*
X210219Y191184D01*
X218015Y191184D01*
X219964Y189235D01*
X219964Y185337D01*
X218015Y183388D01*
X216066Y187286D02*
X219964Y191184D01*
X218015Y195082D02*
X212168Y195082D01*
X218015Y195082D02*
X219964Y197031D01*
X218015Y198980D01*
X219964Y200929D01*
X218015Y202878D01*
X212168Y202878D01*
X212168Y206776D02*
X212168Y208725D01*
X219964Y208725D01*
X219964Y206776D02*
X219964Y210674D01*
X208270Y208725D02*
X206321Y208725D01*
X212168Y214572D02*
X212168Y216521D01*
X219964Y216521D01*
X219964Y214572D02*
X219964Y218470D01*
X208270Y216521D02*
X206321Y216521D01*
X212168Y224317D02*
X212168Y230164D01*
X212168Y224317D02*
X214117Y222368D01*
X218015Y222368D01*
X219964Y224317D01*
X219964Y230164D01*
X219964Y245756D02*
X208270Y245756D01*
X208270Y251603D01*
X210219Y253552D01*
X214117Y253552D01*
X216066Y251603D01*
X216066Y245756D01*
X210219Y257450D02*
X208270Y257450D01*
X210219Y257450D02*
X214117Y261348D01*
X210219Y265246D01*
X208270Y265246D01*
X214117Y261348D02*
X219964Y261348D01*
X219964Y269144D02*
X208270Y269144D01*
X208270Y274991D01*
X210219Y276940D01*
X212168Y276940D01*
X214117Y274991D01*
X216066Y276940D01*
X218015Y276940D01*
X219964Y274991D01*
X219964Y269144D01*
X214117Y269144D02*
X214117Y274991D01*
X216066Y292532D02*
X208270Y292532D01*
X216066Y292532D02*
X219964Y296430D01*
X216066Y300328D01*
X208270Y300328D01*
X212168Y304226D02*
X208270Y308124D01*
X219964Y308124D01*
X219964Y304226D02*
X219964Y312022D01*
X219964Y315920D02*
X218015Y315920D01*
X218015Y317869D01*
X219964Y317869D01*
X219964Y315920D01*
X212168Y321767D02*
X208270Y325665D01*
X219964Y325665D01*
X219964Y321767D02*
X219964Y329563D01*
D10*
X204851Y420533D02*
X204851Y426803D01*
X204851Y420533D02*
X203283Y418965D01*
X200148Y418965D01*
X198580Y420533D01*
X198580Y426803D01*
X200148Y428371D01*
X203283Y428371D01*
X204851Y426803D01*
X201716Y425236D02*
X198580Y428371D01*
X195496Y426803D02*
X195496Y422100D01*
X195496Y426803D02*
X193928Y428371D01*
X192360Y426803D01*
X190793Y428371D01*
X189225Y426803D01*
X189225Y422100D01*
X186141Y422100D02*
X184573Y422100D01*
X184573Y428371D01*
X186141Y428371D02*
X183005Y428371D01*
X184573Y418965D02*
X184573Y417397D01*
X179904Y422100D02*
X178336Y422100D01*
X178336Y428371D01*
X176769Y428371D02*
X179904Y428371D01*
X178336Y418965D02*
X178336Y417397D01*
X172099Y422100D02*
X167396Y422100D01*
X172099Y422100D02*
X173667Y423668D01*
X173667Y426803D01*
X172099Y428371D01*
X167396Y428371D01*
X164312Y422100D02*
X161177Y418965D01*
X161177Y428371D01*
X164312Y428371D02*
X158041Y428371D01*
X285623Y426803D02*
X285623Y420533D01*
X284055Y418965D01*
X280920Y418965D01*
X279352Y420533D01*
X279352Y426803D01*
X280920Y428371D01*
X284055Y428371D01*
X285623Y426803D01*
X282488Y425236D02*
X279352Y428371D01*
X276268Y426803D02*
X276268Y422100D01*
X276268Y426803D02*
X274700Y428371D01*
X273132Y426803D01*
X271565Y428371D01*
X269997Y426803D01*
X269997Y422100D01*
X266913Y422100D02*
X265345Y422100D01*
X265345Y428371D01*
X266913Y428371D02*
X263777Y428371D01*
X265345Y418965D02*
X265345Y417397D01*
X260676Y422100D02*
X259108Y422100D01*
X259108Y428371D01*
X257541Y428371D02*
X260676Y428371D01*
X259108Y418965D02*
X259108Y417397D01*
X252871Y422100D02*
X248168Y422100D01*
X252871Y422100D02*
X254439Y423668D01*
X254439Y426803D01*
X252871Y428371D01*
X248168Y428371D01*
X245084Y428371D02*
X238813Y428371D01*
X245084Y428371D02*
X238813Y422100D01*
X238813Y420533D01*
X240381Y418965D01*
X243516Y418965D01*
X245084Y420533D01*
X305689Y73793D02*
X310604Y66421D01*
X305689Y66421D02*
X310604Y73793D01*
X313173Y66421D02*
X318088Y66421D01*
X313173Y66421D02*
X318088Y71336D01*
X318088Y72565D01*
X316859Y73793D01*
X314402Y73793D01*
X313173Y72565D01*
X320657Y72565D02*
X321886Y73793D01*
X324343Y73793D01*
X325572Y72565D01*
X325572Y71336D01*
X324343Y70107D01*
X323115Y70107D01*
X324343Y70107D02*
X325572Y68878D01*
X325572Y67650D01*
X324343Y66421D01*
X321886Y66421D01*
X320657Y67650D01*
X285204Y66421D02*
X280289Y73793D01*
X285204Y73793D02*
X280289Y66421D01*
X287773Y66421D02*
X292688Y66421D01*
X287773Y66421D02*
X292688Y71336D01*
X292688Y72565D01*
X291459Y73793D01*
X289002Y73793D01*
X287773Y72565D01*
X295257Y66421D02*
X300172Y66421D01*
X295257Y66421D02*
X300172Y71336D01*
X300172Y72565D01*
X298943Y73793D01*
X296486Y73793D01*
X295257Y72565D01*
X259804Y66421D02*
X254889Y73793D01*
X259804Y73793D02*
X254889Y66421D01*
X262373Y66421D02*
X267288Y66421D01*
X262373Y66421D02*
X267288Y71336D01*
X267288Y72565D01*
X266059Y73793D01*
X263602Y73793D01*
X262373Y72565D01*
X269857Y71336D02*
X272315Y73793D01*
X272315Y66421D01*
X274772Y66421D02*
X269857Y66421D01*
X233642Y66421D02*
X228727Y73793D01*
X233642Y73793D02*
X228727Y66421D01*
X236211Y66421D02*
X241126Y66421D01*
X236211Y66421D02*
X241126Y71336D01*
X241126Y72565D01*
X239897Y73793D01*
X237440Y73793D01*
X236211Y72565D01*
X243695Y72565D02*
X243695Y67650D01*
X243695Y72565D02*
X244924Y73793D01*
X247381Y73793D01*
X248610Y72565D01*
X248610Y67650D01*
X247381Y66421D01*
X244924Y66421D01*
X243695Y67650D01*
X248610Y72565D01*
X207734Y66421D02*
X202819Y73793D01*
X207734Y73793D02*
X202819Y66421D01*
X210303Y71336D02*
X212761Y73793D01*
X212761Y66421D01*
X215218Y66421D02*
X210303Y66421D01*
X217787Y67650D02*
X219016Y66421D01*
X221473Y66421D01*
X222702Y67650D01*
X222702Y72565D01*
X221473Y73793D01*
X219016Y73793D01*
X217787Y72565D01*
X217787Y71336D01*
X219016Y70107D01*
X222702Y70107D01*
X182842Y66421D02*
X177927Y73793D01*
X182842Y73793D02*
X177927Y66421D01*
X185411Y71336D02*
X187869Y73793D01*
X187869Y66421D01*
X190326Y66421D02*
X185411Y66421D01*
X192895Y72565D02*
X194124Y73793D01*
X196581Y73793D01*
X197810Y72565D01*
X197810Y71336D01*
X196581Y70107D01*
X197810Y68878D01*
X197810Y67650D01*
X196581Y66421D01*
X194124Y66421D01*
X192895Y67650D01*
X192895Y68878D01*
X194124Y70107D01*
X192895Y71336D01*
X192895Y72565D01*
X194124Y70107D02*
X196581Y70107D01*
X157696Y66421D02*
X152781Y73793D01*
X157696Y73793D02*
X152781Y66421D01*
X160265Y71336D02*
X162723Y73793D01*
X162723Y66421D01*
X165180Y66421D02*
X160265Y66421D01*
X167749Y73793D02*
X172664Y73793D01*
X172664Y72565D01*
X167749Y67650D01*
X167749Y66421D01*
X132042Y66421D02*
X127127Y73793D01*
X132042Y73793D02*
X127127Y66421D01*
X134611Y71336D02*
X137069Y73793D01*
X137069Y66421D01*
X139526Y66421D02*
X134611Y66421D01*
X144553Y72565D02*
X147010Y73793D01*
X144553Y72565D02*
X142095Y70107D01*
X142095Y67650D01*
X143324Y66421D01*
X145781Y66421D01*
X147010Y67650D01*
X147010Y68878D01*
X145781Y70107D01*
X142095Y70107D01*
X386207Y68878D02*
X386207Y73793D01*
X386207Y68878D02*
X388664Y66421D01*
X391122Y68878D01*
X391122Y73793D01*
X393691Y70107D02*
X398606Y70107D01*
X396149Y67650D02*
X396149Y72565D01*
X121545Y96393D02*
X116630Y96393D01*
X114173Y93936D01*
X116630Y91478D01*
X121545Y91478D01*
X117859Y88909D02*
X117859Y83994D01*
X115402Y86451D02*
X120317Y86451D01*
X121545Y125644D02*
X120317Y126873D01*
X121545Y125644D02*
X121545Y123187D01*
X120317Y121958D01*
X119088Y121958D01*
X117859Y123187D01*
X117859Y124416D01*
X117859Y123187D02*
X116630Y121958D01*
X115402Y121958D01*
X114173Y123187D01*
X114173Y125644D01*
X115402Y126873D01*
X116630Y119389D02*
X121545Y119389D01*
X116630Y119389D02*
X114173Y116931D01*
X116630Y114474D01*
X121545Y114474D01*
X120317Y111905D02*
X121545Y110676D01*
X121545Y108219D01*
X120317Y106990D01*
X119088Y106990D01*
X117859Y108219D01*
X117859Y109447D01*
X117859Y108219D02*
X116630Y106990D01*
X115402Y106990D01*
X114173Y108219D01*
X114173Y110676D01*
X115402Y111905D01*
X120317Y147104D02*
X121545Y148333D01*
X121545Y150790D01*
X120317Y152019D01*
X115402Y152019D01*
X114173Y150790D01*
X114173Y148333D01*
X115402Y147104D01*
X117859Y147104D01*
X117859Y149562D01*
X114173Y144535D02*
X121545Y144535D01*
X114173Y139620D01*
X121545Y139620D01*
X121545Y137051D02*
X114173Y137051D01*
X114173Y133365D01*
X115402Y132136D01*
X120317Y132136D01*
X121545Y133365D01*
X121545Y137051D01*
X121545Y177927D02*
X114173Y177927D01*
X121545Y177927D02*
X121545Y174241D01*
X120317Y173012D01*
X117859Y173012D01*
X116630Y174241D01*
X116630Y177927D01*
X116630Y175470D02*
X114173Y173012D01*
X121545Y166757D02*
X120317Y165528D01*
X121545Y166757D02*
X121545Y169214D01*
X120317Y170443D01*
X119088Y170443D01*
X117859Y169214D01*
X117859Y166757D01*
X116630Y165528D01*
X115402Y165528D01*
X114173Y166757D01*
X114173Y169214D01*
X115402Y170443D01*
X114173Y160501D02*
X121545Y160501D01*
X121545Y158044D02*
X121545Y162959D01*
X114173Y200190D02*
X121545Y205105D01*
X121545Y200190D02*
X114173Y205105D01*
X119088Y197621D02*
X121545Y195163D01*
X114173Y195163D01*
X114173Y192706D02*
X114173Y197621D01*
X114173Y190137D02*
X114173Y185222D01*
X114173Y190137D02*
X119088Y185222D01*
X120317Y185222D01*
X121545Y186451D01*
X121545Y188908D01*
X120317Y190137D01*
X113919Y224574D02*
X121291Y229489D01*
X121291Y224574D02*
X113919Y229489D01*
X118834Y222005D02*
X121291Y219547D01*
X113919Y219547D01*
X113919Y217090D02*
X113919Y222005D01*
X118834Y214521D02*
X121291Y212063D01*
X113919Y212063D01*
X113919Y209606D02*
X113919Y214521D01*
X113919Y248958D02*
X121291Y253873D01*
X121291Y248958D02*
X113919Y253873D01*
X118834Y246389D02*
X121291Y243931D01*
X113919Y243931D01*
X113919Y241474D02*
X113919Y246389D01*
X115148Y238905D02*
X120063Y238905D01*
X121291Y237676D01*
X121291Y235219D01*
X120063Y233990D01*
X115148Y233990D01*
X113919Y235219D01*
X113919Y237676D01*
X115148Y238905D01*
X120063Y233990D01*
X113919Y271310D02*
X121291Y276225D01*
X121291Y271310D02*
X113919Y276225D01*
X115148Y268741D02*
X113919Y267512D01*
X113919Y265055D01*
X115148Y263826D01*
X120063Y263826D01*
X121291Y265055D01*
X121291Y267512D01*
X120063Y268741D01*
X118834Y268741D01*
X117605Y267512D01*
X117605Y263826D01*
X120063Y300101D02*
X121291Y300101D01*
X120063Y300101D02*
X117605Y297644D01*
X120063Y295186D01*
X121291Y295186D01*
X117605Y297644D02*
X113919Y297644D01*
X120063Y292617D02*
X121291Y291388D01*
X121291Y288931D01*
X120063Y287702D01*
X118834Y287702D01*
X117605Y288931D01*
X116376Y287702D01*
X115148Y287702D01*
X113919Y288931D01*
X113919Y291388D01*
X115148Y292617D01*
X116376Y292617D01*
X117605Y291388D01*
X118834Y292617D01*
X120063Y292617D01*
X117605Y291388D02*
X117605Y288931D01*
X120063Y327279D02*
X121291Y327279D01*
X120063Y327279D02*
X117605Y324822D01*
X120063Y322364D01*
X121291Y322364D01*
X117605Y324822D02*
X113919Y324822D01*
X121291Y319795D02*
X121291Y314880D01*
X120063Y314880D01*
X115148Y319795D01*
X113919Y319795D01*
X120063Y351917D02*
X121291Y351917D01*
X120063Y351917D02*
X117605Y349460D01*
X120063Y347002D01*
X121291Y347002D01*
X117605Y349460D02*
X113919Y349460D01*
X120063Y341975D02*
X121291Y339518D01*
X120063Y341975D02*
X117605Y344433D01*
X115148Y344433D01*
X113919Y343204D01*
X113919Y340747D01*
X115148Y339518D01*
X116376Y339518D01*
X117605Y340747D01*
X117605Y344433D01*
X120063Y378587D02*
X121291Y378587D01*
X120063Y378587D02*
X117605Y376130D01*
X120063Y373672D01*
X121291Y373672D01*
X117605Y376130D02*
X113919Y376130D01*
X121291Y371103D02*
X121291Y366188D01*
X121291Y371103D02*
X117605Y371103D01*
X118834Y368645D01*
X118834Y367417D01*
X117605Y366188D01*
X115148Y366188D01*
X113919Y367417D01*
X113919Y369874D01*
X115148Y371103D01*
X120063Y402463D02*
X121291Y402463D01*
X120063Y402463D02*
X117605Y400006D01*
X120063Y397548D01*
X121291Y397548D01*
X117605Y400006D02*
X113919Y400006D01*
X113919Y391293D02*
X121291Y391293D01*
X117605Y394979D01*
X117605Y390064D01*
X120063Y428117D02*
X121291Y428117D01*
X120063Y428117D02*
X117605Y425660D01*
X120063Y423202D01*
X121291Y423202D01*
X117605Y425660D02*
X113919Y425660D01*
X120063Y420633D02*
X121291Y419404D01*
X121291Y416947D01*
X120063Y415718D01*
X118834Y415718D01*
X117605Y416947D01*
X117605Y418175D01*
X117605Y416947D02*
X116376Y415718D01*
X115148Y415718D01*
X113919Y416947D01*
X113919Y419404D01*
X115148Y420633D01*
X120063Y454025D02*
X121291Y454025D01*
X120063Y454025D02*
X117605Y451568D01*
X120063Y449110D01*
X121291Y449110D01*
X117605Y451568D02*
X113919Y451568D01*
X113919Y446541D02*
X113919Y441626D01*
X113919Y446541D02*
X118834Y441626D01*
X120063Y441626D01*
X121291Y442855D01*
X121291Y445312D01*
X120063Y446541D01*
X120063Y478917D02*
X121291Y478917D01*
X120063Y478917D02*
X117605Y476460D01*
X120063Y474002D01*
X121291Y474002D01*
X117605Y476460D02*
X113919Y476460D01*
X118834Y471433D02*
X121291Y468975D01*
X113919Y468975D01*
X113919Y466518D02*
X113919Y471433D01*
X433953Y86487D02*
X441325Y91402D01*
X441325Y86487D02*
X433953Y91402D01*
X436410Y93971D02*
X433953Y96429D01*
X441325Y96429D01*
X441325Y98886D02*
X441325Y93971D01*
X433953Y109601D02*
X441325Y114516D01*
X441325Y109601D02*
X433953Y114516D01*
X441325Y117085D02*
X441325Y122000D01*
X441325Y117085D02*
X436410Y122000D01*
X435181Y122000D01*
X433953Y120771D01*
X433953Y118314D01*
X435181Y117085D01*
X433953Y134493D02*
X441325Y139408D01*
X441325Y134493D02*
X433953Y139408D01*
X435181Y141977D02*
X433953Y143206D01*
X433953Y145663D01*
X435181Y146892D01*
X436410Y146892D01*
X437639Y145663D01*
X437639Y144435D01*
X437639Y145663D02*
X438868Y146892D01*
X440096Y146892D01*
X441325Y145663D01*
X441325Y143206D01*
X440096Y141977D01*
X433953Y159639D02*
X441325Y164554D01*
X441325Y159639D02*
X433953Y164554D01*
X433953Y170809D02*
X441325Y170809D01*
X437639Y167123D02*
X433953Y170809D01*
X437639Y172038D02*
X437639Y167123D01*
X433953Y185293D02*
X441325Y190208D01*
X441325Y185293D02*
X433953Y190208D01*
X433953Y192777D02*
X433953Y197692D01*
X433953Y192777D02*
X437639Y192777D01*
X436410Y195235D01*
X436410Y196463D01*
X437639Y197692D01*
X440096Y197692D01*
X441325Y196463D01*
X441325Y194006D01*
X440096Y192777D01*
X433953Y210947D02*
X441325Y215862D01*
X441325Y210947D02*
X433953Y215862D01*
X435181Y220889D02*
X433953Y223346D01*
X435181Y220889D02*
X437639Y218431D01*
X440096Y218431D01*
X441325Y219660D01*
X441325Y222117D01*
X440096Y223346D01*
X438868Y223346D01*
X437639Y222117D01*
X437639Y218431D01*
X433953Y237109D02*
X441325Y242024D01*
X441325Y237109D02*
X433953Y242024D01*
X433953Y244593D02*
X433953Y249508D01*
X435181Y249508D01*
X440096Y244593D01*
X441325Y244593D01*
X433953Y262255D02*
X441325Y267170D01*
X441325Y262255D02*
X433953Y267170D01*
X435181Y269739D02*
X433953Y270968D01*
X433953Y273425D01*
X435181Y274654D01*
X436410Y274654D01*
X437639Y273425D01*
X438868Y274654D01*
X440096Y274654D01*
X441325Y273425D01*
X441325Y270968D01*
X440096Y269739D01*
X438868Y269739D01*
X437639Y270968D01*
X436410Y269739D01*
X435181Y269739D01*
X437639Y270968D02*
X437639Y273425D01*
X435181Y287655D02*
X433953Y287655D01*
X435181Y287655D02*
X437639Y290112D01*
X435181Y292570D01*
X433953Y292570D01*
X437639Y290112D02*
X441325Y290112D01*
X440096Y295139D02*
X441325Y296368D01*
X441325Y298825D01*
X440096Y300054D01*
X435181Y300054D01*
X433953Y298825D01*
X433953Y296368D01*
X435181Y295139D01*
X436410Y295139D01*
X437639Y296368D01*
X437639Y300054D01*
X435181Y309245D02*
X433953Y309245D01*
X435181Y309245D02*
X437639Y311702D01*
X435181Y314160D01*
X433953Y314160D01*
X437639Y311702D02*
X441325Y311702D01*
X436410Y316729D02*
X433953Y319187D01*
X441325Y319187D01*
X441325Y321644D02*
X441325Y316729D01*
X440096Y324213D02*
X435181Y324213D01*
X433953Y325442D01*
X433953Y327899D01*
X435181Y329128D01*
X440096Y329128D01*
X441325Y327899D01*
X441325Y325442D01*
X440096Y324213D01*
X435181Y329128D01*
X435181Y335407D02*
X433953Y335407D01*
X435181Y335407D02*
X437639Y337864D01*
X435181Y340322D01*
X433953Y340322D01*
X437639Y337864D02*
X441325Y337864D01*
X436410Y342891D02*
X433953Y345349D01*
X441325Y345349D01*
X441325Y347806D02*
X441325Y342891D01*
X436410Y350375D02*
X433953Y352833D01*
X441325Y352833D01*
X441325Y355290D02*
X441325Y350375D01*
X435181Y360553D02*
X433953Y360553D01*
X435181Y360553D02*
X437639Y363010D01*
X435181Y365468D01*
X433953Y365468D01*
X437639Y363010D02*
X441325Y363010D01*
X436410Y368037D02*
X433953Y370495D01*
X441325Y370495D01*
X441325Y372952D02*
X441325Y368037D01*
X441325Y375521D02*
X441325Y380436D01*
X441325Y375521D02*
X436410Y380436D01*
X435181Y380436D01*
X433953Y379207D01*
X433953Y376750D01*
X435181Y375521D01*
X433953Y386715D02*
X441325Y386715D01*
X433953Y386715D02*
X433953Y390401D01*
X435181Y391630D01*
X437639Y391630D01*
X438868Y390401D01*
X438868Y386715D01*
X438868Y389172D02*
X441325Y391630D01*
X433953Y397885D02*
X435181Y399114D01*
X433953Y397885D02*
X433953Y395428D01*
X435181Y394199D01*
X436410Y394199D01*
X437639Y395428D01*
X437639Y397885D01*
X438868Y399114D01*
X440096Y399114D01*
X441325Y397885D01*
X441325Y395428D01*
X440096Y394199D01*
X441325Y404141D02*
X433953Y404141D01*
X433953Y406598D02*
X433953Y401683D01*
X433953Y415039D02*
X435181Y416268D01*
X433953Y415039D02*
X433953Y412582D01*
X435181Y411353D01*
X440096Y411353D01*
X441325Y412582D01*
X441325Y415039D01*
X440096Y416268D01*
X437639Y416268D01*
X437639Y413810D01*
X441325Y418837D02*
X433953Y418837D01*
X441325Y423752D01*
X433953Y423752D01*
X433953Y426321D02*
X441325Y426321D01*
X441325Y430007D01*
X440096Y431236D01*
X435181Y431236D01*
X433953Y430007D01*
X433953Y426321D01*
X435181Y435991D02*
X433953Y437220D01*
X433953Y439677D01*
X435181Y440906D01*
X436410Y440906D01*
X437639Y439677D01*
X437639Y438448D01*
X437639Y439677D02*
X438868Y440906D01*
X440096Y440906D01*
X441325Y439677D01*
X441325Y437220D01*
X440096Y435991D01*
X438868Y443475D02*
X433953Y443475D01*
X438868Y443475D02*
X441325Y445933D01*
X438868Y448390D01*
X433953Y448390D01*
X435181Y450959D02*
X433953Y452188D01*
X433953Y454645D01*
X435181Y455874D01*
X436410Y455874D01*
X437639Y454645D01*
X437639Y453417D01*
X437639Y454645D02*
X438868Y455874D01*
X440096Y455874D01*
X441325Y454645D01*
X441325Y452188D01*
X440096Y450959D01*
X438868Y466217D02*
X433953Y466217D01*
X438868Y466217D02*
X441325Y468674D01*
X438868Y471132D01*
X433953Y471132D01*
X437639Y473701D02*
X437639Y478616D01*
X440096Y476159D02*
X435181Y476159D01*
X267589Y411867D02*
X267589Y405724D01*
X268818Y404495D01*
X271275Y404495D01*
X272504Y405724D01*
X272504Y411867D01*
X278759Y411867D02*
X279988Y410639D01*
X278759Y411867D02*
X276302Y411867D01*
X275073Y410639D01*
X275073Y409410D01*
X276302Y408181D01*
X278759Y408181D01*
X279988Y406952D01*
X279988Y405724D01*
X278759Y404495D01*
X276302Y404495D01*
X275073Y405724D01*
X282557Y404495D02*
X282557Y411867D01*
X286243Y411867D01*
X287472Y410639D01*
X287472Y408181D01*
X286243Y406952D01*
X282557Y406952D01*
X285015Y406952D02*
X287472Y404495D01*
X356743Y404495D02*
X356743Y411867D01*
X360429Y411867D01*
X361658Y410639D01*
X361658Y408181D01*
X360429Y406952D01*
X356743Y406952D01*
X359200Y406952D02*
X361658Y404495D01*
X367913Y411867D02*
X369142Y410639D01*
X367913Y411867D02*
X365456Y411867D01*
X364227Y410639D01*
X364227Y409410D01*
X365456Y408181D01*
X367913Y408181D01*
X369142Y406952D01*
X369142Y405724D01*
X367913Y404495D01*
X365456Y404495D01*
X364227Y405724D01*
X374169Y404495D02*
X374169Y411867D01*
X376626Y411867D02*
X371711Y411867D01*
X159131Y139071D02*
X159131Y131699D01*
X159131Y139071D02*
X162817Y139071D01*
X164046Y137843D01*
X164046Y135385D01*
X162817Y134156D01*
X159131Y134156D01*
X166615Y136614D02*
X169073Y139071D01*
X169073Y131699D01*
X171530Y131699D02*
X166615Y131699D01*
X184277Y131699D02*
X184277Y139071D01*
X187963Y139071D01*
X189192Y137843D01*
X189192Y135385D01*
X187963Y134156D01*
X184277Y134156D01*
X191761Y131699D02*
X196676Y131699D01*
X191761Y131699D02*
X196676Y136614D01*
X196676Y137843D01*
X195447Y139071D01*
X192990Y139071D01*
X191761Y137843D01*
X208407Y139071D02*
X208407Y131699D01*
X208407Y139071D02*
X212093Y139071D01*
X213322Y137843D01*
X213322Y135385D01*
X212093Y134156D01*
X208407Y134156D01*
X215891Y137843D02*
X217120Y139071D01*
X219577Y139071D01*
X220806Y137843D01*
X220806Y136614D01*
X219577Y135385D01*
X218349Y135385D01*
X219577Y135385D02*
X220806Y134156D01*
X220806Y132928D01*
X219577Y131699D01*
X217120Y131699D01*
X215891Y132928D01*
X232283Y131699D02*
X232283Y139071D01*
X235969Y139071D01*
X237198Y137843D01*
X237198Y135385D01*
X235969Y134156D01*
X232283Y134156D01*
X243453Y131699D02*
X243453Y139071D01*
X239767Y135385D01*
X244682Y135385D01*
X256413Y131699D02*
X256413Y139071D01*
X260099Y139071D01*
X261328Y137843D01*
X261328Y135385D01*
X260099Y134156D01*
X256413Y134156D01*
X263897Y139071D02*
X268812Y139071D01*
X263897Y139071D02*
X263897Y135385D01*
X266355Y136614D01*
X267583Y136614D01*
X268812Y135385D01*
X268812Y132928D01*
X267583Y131699D01*
X265126Y131699D01*
X263897Y132928D01*
X279781Y130429D02*
X279781Y137801D01*
X283467Y137801D01*
X284696Y136573D01*
X284696Y134115D01*
X283467Y132886D01*
X279781Y132886D01*
X289723Y136573D02*
X292180Y137801D01*
X289723Y136573D02*
X287265Y134115D01*
X287265Y131658D01*
X288494Y130429D01*
X290951Y130429D01*
X292180Y131658D01*
X292180Y132886D01*
X290951Y134115D01*
X287265Y134115D01*
X298831Y132886D02*
X298831Y137801D01*
X298831Y132886D02*
X301288Y130429D01*
X303746Y132886D01*
X303746Y137801D01*
X306315Y134115D02*
X311230Y134115D01*
X308773Y131658D02*
X308773Y136573D01*
D12*
X343662Y152407D02*
X354509Y152407D01*
X307011Y152407D02*
X296164Y152407D01*
X301587Y157830D02*
X301587Y146984D01*
D10*
X275768Y200495D02*
X275766Y200564D01*
X275761Y200632D01*
X275751Y200700D01*
X275738Y200768D01*
X275722Y200835D01*
X275702Y200901D01*
X275678Y200965D01*
X275651Y201028D01*
X275620Y201090D01*
X275586Y201150D01*
X275549Y201208D01*
X275509Y201264D01*
X275466Y201317D01*
X275420Y201368D01*
X275371Y201417D01*
X275320Y201463D01*
X275267Y201506D01*
X275211Y201546D01*
X275153Y201583D01*
X275093Y201617D01*
X275031Y201648D01*
X274968Y201675D01*
X274904Y201699D01*
X274838Y201719D01*
X274771Y201735D01*
X274703Y201748D01*
X274635Y201758D01*
X274567Y201763D01*
X274498Y201765D01*
X275768Y200495D02*
X275768Y194145D01*
X275766Y194076D01*
X275761Y194008D01*
X275751Y193940D01*
X275738Y193872D01*
X275722Y193805D01*
X275702Y193739D01*
X275678Y193675D01*
X275651Y193612D01*
X275620Y193550D01*
X275586Y193490D01*
X275549Y193432D01*
X275509Y193376D01*
X275466Y193323D01*
X275420Y193272D01*
X275371Y193223D01*
X275320Y193177D01*
X275267Y193134D01*
X275211Y193094D01*
X275153Y193057D01*
X275093Y193023D01*
X275031Y192992D01*
X274968Y192965D01*
X274904Y192941D01*
X274838Y192921D01*
X274771Y192905D01*
X274703Y192892D01*
X274635Y192882D01*
X274567Y192877D01*
X274498Y192875D01*
X259258Y192875D01*
X259189Y192877D01*
X259121Y192882D01*
X259053Y192892D01*
X258985Y192905D01*
X258918Y192921D01*
X258852Y192941D01*
X258788Y192965D01*
X258725Y192992D01*
X258663Y193023D01*
X258603Y193057D01*
X258545Y193094D01*
X258489Y193134D01*
X258436Y193177D01*
X258385Y193223D01*
X258336Y193272D01*
X258290Y193323D01*
X258247Y193376D01*
X258207Y193432D01*
X258170Y193490D01*
X258136Y193550D01*
X258105Y193612D01*
X258078Y193675D01*
X258054Y193739D01*
X258034Y193805D01*
X258018Y193872D01*
X258005Y193940D01*
X257995Y194008D01*
X257990Y194076D01*
X257988Y194145D01*
X257988Y200495D01*
X257990Y200564D01*
X257995Y200632D01*
X258005Y200700D01*
X258018Y200768D01*
X258034Y200835D01*
X258054Y200901D01*
X258078Y200965D01*
X258105Y201028D01*
X258136Y201090D01*
X258170Y201150D01*
X258207Y201208D01*
X258247Y201264D01*
X258290Y201317D01*
X258336Y201368D01*
X258385Y201417D01*
X258436Y201463D01*
X258489Y201506D01*
X258545Y201546D01*
X258603Y201583D01*
X258663Y201617D01*
X258725Y201648D01*
X258788Y201675D01*
X258852Y201699D01*
X258918Y201719D01*
X258985Y201735D01*
X259053Y201748D01*
X259121Y201758D01*
X259189Y201763D01*
X259258Y201765D01*
X274498Y201765D01*
X299390Y184493D02*
X299392Y184424D01*
X299397Y184356D01*
X299407Y184288D01*
X299420Y184220D01*
X299436Y184153D01*
X299456Y184087D01*
X299480Y184023D01*
X299507Y183960D01*
X299538Y183898D01*
X299572Y183838D01*
X299609Y183780D01*
X299649Y183724D01*
X299692Y183671D01*
X299738Y183620D01*
X299787Y183571D01*
X299838Y183525D01*
X299891Y183482D01*
X299947Y183442D01*
X300005Y183405D01*
X300065Y183371D01*
X300127Y183340D01*
X300190Y183313D01*
X300254Y183289D01*
X300320Y183269D01*
X300387Y183253D01*
X300455Y183240D01*
X300523Y183230D01*
X300591Y183225D01*
X300660Y183223D01*
X299390Y184493D02*
X299390Y190843D01*
X299392Y190912D01*
X299397Y190980D01*
X299407Y191048D01*
X299420Y191116D01*
X299436Y191183D01*
X299456Y191249D01*
X299480Y191313D01*
X299507Y191376D01*
X299538Y191438D01*
X299572Y191498D01*
X299609Y191556D01*
X299649Y191612D01*
X299692Y191665D01*
X299738Y191716D01*
X299787Y191765D01*
X299838Y191811D01*
X299891Y191854D01*
X299947Y191894D01*
X300005Y191931D01*
X300065Y191965D01*
X300127Y191996D01*
X300190Y192023D01*
X300254Y192047D01*
X300320Y192067D01*
X300387Y192083D01*
X300455Y192096D01*
X300523Y192106D01*
X300591Y192111D01*
X300660Y192113D01*
X315900Y192113D01*
X315969Y192111D01*
X316037Y192106D01*
X316105Y192096D01*
X316173Y192083D01*
X316240Y192067D01*
X316306Y192047D01*
X316370Y192023D01*
X316433Y191996D01*
X316495Y191965D01*
X316555Y191931D01*
X316613Y191894D01*
X316669Y191854D01*
X316722Y191811D01*
X316773Y191765D01*
X316822Y191716D01*
X316868Y191665D01*
X316911Y191612D01*
X316951Y191556D01*
X316988Y191498D01*
X317022Y191438D01*
X317053Y191376D01*
X317080Y191313D01*
X317104Y191249D01*
X317124Y191183D01*
X317140Y191116D01*
X317153Y191048D01*
X317163Y190980D01*
X317168Y190912D01*
X317170Y190843D01*
X317170Y184493D01*
X317168Y184424D01*
X317163Y184356D01*
X317153Y184288D01*
X317140Y184220D01*
X317124Y184153D01*
X317104Y184087D01*
X317080Y184023D01*
X317053Y183960D01*
X317022Y183898D01*
X316988Y183838D01*
X316951Y183780D01*
X316911Y183724D01*
X316868Y183671D01*
X316822Y183620D01*
X316773Y183571D01*
X316722Y183525D01*
X316669Y183482D01*
X316613Y183442D01*
X316555Y183405D01*
X316495Y183371D01*
X316433Y183340D01*
X316370Y183313D01*
X316306Y183289D01*
X316240Y183269D01*
X316173Y183253D01*
X316105Y183240D01*
X316037Y183230D01*
X315969Y183225D01*
X315900Y183223D01*
X300660Y183223D01*
X235128Y184747D02*
X235059Y184749D01*
X234991Y184754D01*
X234923Y184764D01*
X234855Y184777D01*
X234788Y184793D01*
X234722Y184813D01*
X234658Y184837D01*
X234595Y184864D01*
X234533Y184895D01*
X234473Y184929D01*
X234415Y184966D01*
X234359Y185006D01*
X234306Y185049D01*
X234255Y185095D01*
X234206Y185144D01*
X234160Y185195D01*
X234117Y185248D01*
X234077Y185304D01*
X234040Y185362D01*
X234006Y185422D01*
X233975Y185484D01*
X233948Y185547D01*
X233924Y185611D01*
X233904Y185677D01*
X233888Y185744D01*
X233875Y185812D01*
X233865Y185880D01*
X233860Y185948D01*
X233858Y186017D01*
X233858Y192367D01*
X233860Y192436D01*
X233865Y192504D01*
X233875Y192572D01*
X233888Y192640D01*
X233904Y192707D01*
X233924Y192773D01*
X233948Y192837D01*
X233975Y192900D01*
X234006Y192962D01*
X234040Y193022D01*
X234077Y193080D01*
X234117Y193136D01*
X234160Y193189D01*
X234206Y193240D01*
X234255Y193289D01*
X234306Y193335D01*
X234359Y193378D01*
X234415Y193418D01*
X234473Y193455D01*
X234533Y193489D01*
X234595Y193520D01*
X234658Y193547D01*
X234722Y193571D01*
X234788Y193591D01*
X234855Y193607D01*
X234923Y193620D01*
X234991Y193630D01*
X235059Y193635D01*
X235128Y193637D01*
X250368Y193637D01*
X250437Y193635D01*
X250505Y193630D01*
X250573Y193620D01*
X250641Y193607D01*
X250708Y193591D01*
X250774Y193571D01*
X250838Y193547D01*
X250901Y193520D01*
X250963Y193489D01*
X251023Y193455D01*
X251081Y193418D01*
X251137Y193378D01*
X251190Y193335D01*
X251241Y193289D01*
X251290Y193240D01*
X251336Y193189D01*
X251379Y193136D01*
X251419Y193080D01*
X251456Y193022D01*
X251490Y192962D01*
X251521Y192900D01*
X251548Y192837D01*
X251572Y192773D01*
X251592Y192707D01*
X251608Y192640D01*
X251621Y192572D01*
X251631Y192504D01*
X251636Y192436D01*
X251638Y192367D01*
X251638Y186017D01*
X251636Y185948D01*
X251631Y185880D01*
X251621Y185812D01*
X251608Y185744D01*
X251592Y185677D01*
X251572Y185611D01*
X251548Y185547D01*
X251521Y185484D01*
X251490Y185422D01*
X251456Y185362D01*
X251419Y185304D01*
X251379Y185248D01*
X251336Y185195D01*
X251290Y185144D01*
X251241Y185095D01*
X251190Y185049D01*
X251137Y185006D01*
X251081Y184966D01*
X251023Y184929D01*
X250963Y184895D01*
X250901Y184864D01*
X250838Y184837D01*
X250774Y184813D01*
X250708Y184793D01*
X250641Y184777D01*
X250573Y184764D01*
X250505Y184754D01*
X250437Y184749D01*
X250368Y184747D01*
X235128Y184747D01*
X233858Y146901D02*
X233860Y146832D01*
X233865Y146764D01*
X233875Y146696D01*
X233888Y146628D01*
X233904Y146561D01*
X233924Y146495D01*
X233948Y146431D01*
X233975Y146368D01*
X234006Y146306D01*
X234040Y146246D01*
X234077Y146188D01*
X234117Y146132D01*
X234160Y146079D01*
X234206Y146028D01*
X234255Y145979D01*
X234306Y145933D01*
X234359Y145890D01*
X234415Y145850D01*
X234473Y145813D01*
X234533Y145779D01*
X234595Y145748D01*
X234658Y145721D01*
X234722Y145697D01*
X234788Y145677D01*
X234855Y145661D01*
X234923Y145648D01*
X234991Y145638D01*
X235059Y145633D01*
X235128Y145631D01*
X233858Y146901D02*
X233858Y153251D01*
X233860Y153320D01*
X233865Y153388D01*
X233875Y153456D01*
X233888Y153524D01*
X233904Y153591D01*
X233924Y153657D01*
X233948Y153721D01*
X233975Y153784D01*
X234006Y153846D01*
X234040Y153906D01*
X234077Y153964D01*
X234117Y154020D01*
X234160Y154073D01*
X234206Y154124D01*
X234255Y154173D01*
X234306Y154219D01*
X234359Y154262D01*
X234415Y154302D01*
X234473Y154339D01*
X234533Y154373D01*
X234595Y154404D01*
X234658Y154431D01*
X234722Y154455D01*
X234788Y154475D01*
X234855Y154491D01*
X234923Y154504D01*
X234991Y154514D01*
X235059Y154519D01*
X235128Y154521D01*
X250368Y154521D01*
X250437Y154519D01*
X250505Y154514D01*
X250573Y154504D01*
X250641Y154491D01*
X250708Y154475D01*
X250774Y154455D01*
X250838Y154431D01*
X250901Y154404D01*
X250963Y154373D01*
X251023Y154339D01*
X251081Y154302D01*
X251137Y154262D01*
X251190Y154219D01*
X251241Y154173D01*
X251290Y154124D01*
X251336Y154073D01*
X251379Y154020D01*
X251419Y153964D01*
X251456Y153906D01*
X251490Y153846D01*
X251521Y153784D01*
X251548Y153721D01*
X251572Y153657D01*
X251592Y153591D01*
X251608Y153524D01*
X251621Y153456D01*
X251631Y153388D01*
X251636Y153320D01*
X251638Y153251D01*
X251638Y146901D01*
X251636Y146832D01*
X251631Y146764D01*
X251621Y146696D01*
X251608Y146628D01*
X251592Y146561D01*
X251572Y146495D01*
X251548Y146431D01*
X251521Y146368D01*
X251490Y146306D01*
X251456Y146246D01*
X251419Y146188D01*
X251379Y146132D01*
X251336Y146079D01*
X251290Y146028D01*
X251241Y145979D01*
X251190Y145933D01*
X251137Y145890D01*
X251081Y145850D01*
X251023Y145813D01*
X250963Y145779D01*
X250901Y145748D01*
X250838Y145721D01*
X250774Y145697D01*
X250708Y145677D01*
X250641Y145661D01*
X250573Y145648D01*
X250505Y145638D01*
X250437Y145633D01*
X250368Y145631D01*
X235128Y145631D01*
X386258Y365341D02*
X386256Y365410D01*
X386251Y365478D01*
X386241Y365546D01*
X386228Y365614D01*
X386212Y365681D01*
X386192Y365747D01*
X386168Y365811D01*
X386141Y365874D01*
X386110Y365936D01*
X386076Y365996D01*
X386039Y366054D01*
X385999Y366110D01*
X385956Y366163D01*
X385910Y366214D01*
X385861Y366263D01*
X385810Y366309D01*
X385757Y366352D01*
X385701Y366392D01*
X385643Y366429D01*
X385583Y366463D01*
X385521Y366494D01*
X385458Y366521D01*
X385394Y366545D01*
X385328Y366565D01*
X385261Y366581D01*
X385193Y366594D01*
X385125Y366604D01*
X385057Y366609D01*
X384988Y366611D01*
X386258Y365341D02*
X386258Y358991D01*
X386256Y358922D01*
X386251Y358854D01*
X386241Y358786D01*
X386228Y358718D01*
X386212Y358651D01*
X386192Y358585D01*
X386168Y358521D01*
X386141Y358458D01*
X386110Y358396D01*
X386076Y358336D01*
X386039Y358278D01*
X385999Y358222D01*
X385956Y358169D01*
X385910Y358118D01*
X385861Y358069D01*
X385810Y358023D01*
X385757Y357980D01*
X385701Y357940D01*
X385643Y357903D01*
X385583Y357869D01*
X385521Y357838D01*
X385458Y357811D01*
X385394Y357787D01*
X385328Y357767D01*
X385261Y357751D01*
X385193Y357738D01*
X385125Y357728D01*
X385057Y357723D01*
X384988Y357721D01*
X369748Y357721D01*
X369679Y357723D01*
X369611Y357728D01*
X369543Y357738D01*
X369475Y357751D01*
X369408Y357767D01*
X369342Y357787D01*
X369278Y357811D01*
X369215Y357838D01*
X369153Y357869D01*
X369093Y357903D01*
X369035Y357940D01*
X368979Y357980D01*
X368926Y358023D01*
X368875Y358069D01*
X368826Y358118D01*
X368780Y358169D01*
X368737Y358222D01*
X368697Y358278D01*
X368660Y358336D01*
X368626Y358396D01*
X368595Y358458D01*
X368568Y358521D01*
X368544Y358585D01*
X368524Y358651D01*
X368508Y358718D01*
X368495Y358786D01*
X368485Y358854D01*
X368480Y358922D01*
X368478Y358991D01*
X368478Y365341D01*
X368480Y365410D01*
X368485Y365478D01*
X368495Y365546D01*
X368508Y365614D01*
X368524Y365681D01*
X368544Y365747D01*
X368568Y365811D01*
X368595Y365874D01*
X368626Y365936D01*
X368660Y365996D01*
X368697Y366054D01*
X368737Y366110D01*
X368780Y366163D01*
X368826Y366214D01*
X368875Y366263D01*
X368926Y366309D01*
X368979Y366352D01*
X369035Y366392D01*
X369093Y366429D01*
X369153Y366463D01*
X369215Y366494D01*
X369278Y366521D01*
X369342Y366545D01*
X369408Y366565D01*
X369475Y366581D01*
X369543Y366594D01*
X369611Y366604D01*
X369679Y366609D01*
X369748Y366611D01*
X384988Y366611D01*
X181026Y231991D02*
X180957Y231993D01*
X180889Y231998D01*
X180821Y232008D01*
X180753Y232021D01*
X180686Y232037D01*
X180620Y232057D01*
X180556Y232081D01*
X180493Y232108D01*
X180431Y232139D01*
X180371Y232173D01*
X180313Y232210D01*
X180257Y232250D01*
X180204Y232293D01*
X180153Y232339D01*
X180104Y232388D01*
X180058Y232439D01*
X180015Y232492D01*
X179975Y232548D01*
X179938Y232606D01*
X179904Y232666D01*
X179873Y232728D01*
X179846Y232791D01*
X179822Y232855D01*
X179802Y232921D01*
X179786Y232988D01*
X179773Y233056D01*
X179763Y233124D01*
X179758Y233192D01*
X179756Y233261D01*
X179756Y239611D01*
X179758Y239680D01*
X179763Y239748D01*
X179773Y239816D01*
X179786Y239884D01*
X179802Y239951D01*
X179822Y240017D01*
X179846Y240081D01*
X179873Y240144D01*
X179904Y240206D01*
X179938Y240266D01*
X179975Y240324D01*
X180015Y240380D01*
X180058Y240433D01*
X180104Y240484D01*
X180153Y240533D01*
X180204Y240579D01*
X180257Y240622D01*
X180313Y240662D01*
X180371Y240699D01*
X180431Y240733D01*
X180493Y240764D01*
X180556Y240791D01*
X180620Y240815D01*
X180686Y240835D01*
X180753Y240851D01*
X180821Y240864D01*
X180889Y240874D01*
X180957Y240879D01*
X181026Y240881D01*
X196266Y240881D01*
X196335Y240879D01*
X196403Y240874D01*
X196471Y240864D01*
X196539Y240851D01*
X196606Y240835D01*
X196672Y240815D01*
X196736Y240791D01*
X196799Y240764D01*
X196861Y240733D01*
X196921Y240699D01*
X196979Y240662D01*
X197035Y240622D01*
X197088Y240579D01*
X197139Y240533D01*
X197188Y240484D01*
X197234Y240433D01*
X197277Y240380D01*
X197317Y240324D01*
X197354Y240266D01*
X197388Y240206D01*
X197419Y240144D01*
X197446Y240081D01*
X197470Y240017D01*
X197490Y239951D01*
X197506Y239884D01*
X197519Y239816D01*
X197529Y239748D01*
X197534Y239680D01*
X197536Y239611D01*
X197536Y233261D01*
X197534Y233192D01*
X197529Y233124D01*
X197519Y233056D01*
X197506Y232988D01*
X197490Y232921D01*
X197470Y232855D01*
X197446Y232791D01*
X197419Y232728D01*
X197388Y232666D01*
X197354Y232606D01*
X197317Y232548D01*
X197277Y232492D01*
X197234Y232439D01*
X197188Y232388D01*
X197139Y232339D01*
X197088Y232293D01*
X197035Y232250D01*
X196979Y232210D01*
X196921Y232173D01*
X196861Y232139D01*
X196799Y232108D01*
X196736Y232081D01*
X196672Y232057D01*
X196606Y232037D01*
X196539Y232021D01*
X196471Y232008D01*
X196403Y231998D01*
X196335Y231993D01*
X196266Y231991D01*
X181026Y231991D01*
X183185Y306794D02*
X183187Y306863D01*
X183192Y306931D01*
X183202Y306999D01*
X183215Y307067D01*
X183231Y307134D01*
X183251Y307200D01*
X183275Y307264D01*
X183302Y307327D01*
X183333Y307389D01*
X183367Y307449D01*
X183404Y307507D01*
X183444Y307563D01*
X183487Y307616D01*
X183533Y307667D01*
X183582Y307716D01*
X183633Y307762D01*
X183686Y307805D01*
X183742Y307845D01*
X183800Y307882D01*
X183860Y307916D01*
X183922Y307947D01*
X183985Y307974D01*
X184049Y307998D01*
X184115Y308018D01*
X184182Y308034D01*
X184250Y308047D01*
X184318Y308057D01*
X184386Y308062D01*
X184455Y308064D01*
X190805Y308064D01*
X190874Y308062D01*
X190942Y308057D01*
X191010Y308047D01*
X191078Y308034D01*
X191145Y308018D01*
X191211Y307998D01*
X191275Y307974D01*
X191338Y307947D01*
X191400Y307916D01*
X191460Y307882D01*
X191518Y307845D01*
X191574Y307805D01*
X191627Y307762D01*
X191678Y307716D01*
X191727Y307667D01*
X191773Y307616D01*
X191816Y307563D01*
X191856Y307507D01*
X191893Y307449D01*
X191927Y307389D01*
X191958Y307327D01*
X191985Y307264D01*
X192009Y307200D01*
X192029Y307134D01*
X192045Y307067D01*
X192058Y306999D01*
X192068Y306931D01*
X192073Y306863D01*
X192075Y306794D01*
X192075Y291554D01*
X192073Y291485D01*
X192068Y291417D01*
X192058Y291349D01*
X192045Y291281D01*
X192029Y291214D01*
X192009Y291148D01*
X191985Y291084D01*
X191958Y291021D01*
X191927Y290959D01*
X191893Y290899D01*
X191856Y290841D01*
X191816Y290785D01*
X191773Y290732D01*
X191727Y290681D01*
X191678Y290632D01*
X191627Y290586D01*
X191574Y290543D01*
X191518Y290503D01*
X191460Y290466D01*
X191400Y290432D01*
X191338Y290401D01*
X191275Y290374D01*
X191211Y290350D01*
X191145Y290330D01*
X191078Y290314D01*
X191010Y290301D01*
X190942Y290291D01*
X190874Y290286D01*
X190805Y290284D01*
X184455Y290284D01*
X184386Y290286D01*
X184318Y290291D01*
X184250Y290301D01*
X184182Y290314D01*
X184115Y290330D01*
X184049Y290350D01*
X183985Y290374D01*
X183922Y290401D01*
X183860Y290432D01*
X183800Y290466D01*
X183742Y290503D01*
X183686Y290543D01*
X183633Y290586D01*
X183582Y290632D01*
X183533Y290681D01*
X183487Y290732D01*
X183444Y290785D01*
X183404Y290841D01*
X183367Y290899D01*
X183333Y290959D01*
X183302Y291021D01*
X183275Y291084D01*
X183251Y291148D01*
X183231Y291214D01*
X183215Y291281D01*
X183202Y291349D01*
X183192Y291417D01*
X183187Y291485D01*
X183185Y291554D01*
X183185Y306794D01*
X216205Y366484D02*
X216207Y366553D01*
X216212Y366621D01*
X216222Y366689D01*
X216235Y366757D01*
X216251Y366824D01*
X216271Y366890D01*
X216295Y366954D01*
X216322Y367017D01*
X216353Y367079D01*
X216387Y367139D01*
X216424Y367197D01*
X216464Y367253D01*
X216507Y367306D01*
X216553Y367357D01*
X216602Y367406D01*
X216653Y367452D01*
X216706Y367495D01*
X216762Y367535D01*
X216820Y367572D01*
X216880Y367606D01*
X216942Y367637D01*
X217005Y367664D01*
X217069Y367688D01*
X217135Y367708D01*
X217202Y367724D01*
X217270Y367737D01*
X217338Y367747D01*
X217406Y367752D01*
X217475Y367754D01*
X223825Y367754D01*
X223894Y367752D01*
X223962Y367747D01*
X224030Y367737D01*
X224098Y367724D01*
X224165Y367708D01*
X224231Y367688D01*
X224295Y367664D01*
X224358Y367637D01*
X224420Y367606D01*
X224480Y367572D01*
X224538Y367535D01*
X224594Y367495D01*
X224647Y367452D01*
X224698Y367406D01*
X224747Y367357D01*
X224793Y367306D01*
X224836Y367253D01*
X224876Y367197D01*
X224913Y367139D01*
X224947Y367079D01*
X224978Y367017D01*
X225005Y366954D01*
X225029Y366890D01*
X225049Y366824D01*
X225065Y366757D01*
X225078Y366689D01*
X225088Y366621D01*
X225093Y366553D01*
X225095Y366484D01*
X225095Y351244D01*
X225093Y351175D01*
X225088Y351107D01*
X225078Y351039D01*
X225065Y350971D01*
X225049Y350904D01*
X225029Y350838D01*
X225005Y350774D01*
X224978Y350711D01*
X224947Y350649D01*
X224913Y350589D01*
X224876Y350531D01*
X224836Y350475D01*
X224793Y350422D01*
X224747Y350371D01*
X224698Y350322D01*
X224647Y350276D01*
X224594Y350233D01*
X224538Y350193D01*
X224480Y350156D01*
X224420Y350122D01*
X224358Y350091D01*
X224295Y350064D01*
X224231Y350040D01*
X224165Y350020D01*
X224098Y350004D01*
X224030Y349991D01*
X223962Y349981D01*
X223894Y349976D01*
X223825Y349974D01*
X217475Y349974D01*
X217406Y349976D01*
X217338Y349981D01*
X217270Y349991D01*
X217202Y350004D01*
X217135Y350020D01*
X217069Y350040D01*
X217005Y350064D01*
X216942Y350091D01*
X216880Y350122D01*
X216820Y350156D01*
X216762Y350193D01*
X216706Y350233D01*
X216653Y350276D01*
X216602Y350322D01*
X216553Y350371D01*
X216507Y350422D01*
X216464Y350475D01*
X216424Y350531D01*
X216387Y350589D01*
X216353Y350649D01*
X216322Y350711D01*
X216295Y350774D01*
X216271Y350838D01*
X216251Y350904D01*
X216235Y350971D01*
X216222Y351039D01*
X216212Y351107D01*
X216207Y351175D01*
X216205Y351244D01*
X216205Y366484D01*
X373558Y182969D02*
X373560Y182900D01*
X373565Y182832D01*
X373575Y182764D01*
X373588Y182696D01*
X373604Y182629D01*
X373624Y182563D01*
X373648Y182499D01*
X373675Y182436D01*
X373706Y182374D01*
X373740Y182314D01*
X373777Y182256D01*
X373817Y182200D01*
X373860Y182147D01*
X373906Y182096D01*
X373955Y182047D01*
X374006Y182001D01*
X374059Y181958D01*
X374115Y181918D01*
X374173Y181881D01*
X374233Y181847D01*
X374295Y181816D01*
X374358Y181789D01*
X374422Y181765D01*
X374488Y181745D01*
X374555Y181729D01*
X374623Y181716D01*
X374691Y181706D01*
X374759Y181701D01*
X374828Y181699D01*
X373558Y182969D02*
X373558Y189319D01*
X373560Y189388D01*
X373565Y189456D01*
X373575Y189524D01*
X373588Y189592D01*
X373604Y189659D01*
X373624Y189725D01*
X373648Y189789D01*
X373675Y189852D01*
X373706Y189914D01*
X373740Y189974D01*
X373777Y190032D01*
X373817Y190088D01*
X373860Y190141D01*
X373906Y190192D01*
X373955Y190241D01*
X374006Y190287D01*
X374059Y190330D01*
X374115Y190370D01*
X374173Y190407D01*
X374233Y190441D01*
X374295Y190472D01*
X374358Y190499D01*
X374422Y190523D01*
X374488Y190543D01*
X374555Y190559D01*
X374623Y190572D01*
X374691Y190582D01*
X374759Y190587D01*
X374828Y190589D01*
X390068Y190589D01*
X390137Y190587D01*
X390205Y190582D01*
X390273Y190572D01*
X390341Y190559D01*
X390408Y190543D01*
X390474Y190523D01*
X390538Y190499D01*
X390601Y190472D01*
X390663Y190441D01*
X390723Y190407D01*
X390781Y190370D01*
X390837Y190330D01*
X390890Y190287D01*
X390941Y190241D01*
X390990Y190192D01*
X391036Y190141D01*
X391079Y190088D01*
X391119Y190032D01*
X391156Y189974D01*
X391190Y189914D01*
X391221Y189852D01*
X391248Y189789D01*
X391272Y189725D01*
X391292Y189659D01*
X391308Y189592D01*
X391321Y189524D01*
X391331Y189456D01*
X391336Y189388D01*
X391338Y189319D01*
X391338Y182969D01*
X391336Y182900D01*
X391331Y182832D01*
X391321Y182764D01*
X391308Y182696D01*
X391292Y182629D01*
X391272Y182563D01*
X391248Y182499D01*
X391221Y182436D01*
X391190Y182374D01*
X391156Y182314D01*
X391119Y182256D01*
X391079Y182200D01*
X391036Y182147D01*
X390990Y182096D01*
X390941Y182047D01*
X390890Y182001D01*
X390837Y181958D01*
X390781Y181918D01*
X390723Y181881D01*
X390663Y181847D01*
X390601Y181816D01*
X390538Y181789D01*
X390474Y181765D01*
X390408Y181745D01*
X390341Y181729D01*
X390273Y181716D01*
X390205Y181706D01*
X390137Y181701D01*
X390068Y181699D01*
X374828Y181699D01*
X385750Y244945D02*
X385748Y245014D01*
X385743Y245082D01*
X385733Y245150D01*
X385720Y245218D01*
X385704Y245285D01*
X385684Y245351D01*
X385660Y245415D01*
X385633Y245478D01*
X385602Y245540D01*
X385568Y245600D01*
X385531Y245658D01*
X385491Y245714D01*
X385448Y245767D01*
X385402Y245818D01*
X385353Y245867D01*
X385302Y245913D01*
X385249Y245956D01*
X385193Y245996D01*
X385135Y246033D01*
X385075Y246067D01*
X385013Y246098D01*
X384950Y246125D01*
X384886Y246149D01*
X384820Y246169D01*
X384753Y246185D01*
X384685Y246198D01*
X384617Y246208D01*
X384549Y246213D01*
X384480Y246215D01*
X385750Y244945D02*
X385750Y238595D01*
X385748Y238526D01*
X385743Y238458D01*
X385733Y238390D01*
X385720Y238322D01*
X385704Y238255D01*
X385684Y238189D01*
X385660Y238125D01*
X385633Y238062D01*
X385602Y238000D01*
X385568Y237940D01*
X385531Y237882D01*
X385491Y237826D01*
X385448Y237773D01*
X385402Y237722D01*
X385353Y237673D01*
X385302Y237627D01*
X385249Y237584D01*
X385193Y237544D01*
X385135Y237507D01*
X385075Y237473D01*
X385013Y237442D01*
X384950Y237415D01*
X384886Y237391D01*
X384820Y237371D01*
X384753Y237355D01*
X384685Y237342D01*
X384617Y237332D01*
X384549Y237327D01*
X384480Y237325D01*
X369240Y237325D01*
X369171Y237327D01*
X369103Y237332D01*
X369035Y237342D01*
X368967Y237355D01*
X368900Y237371D01*
X368834Y237391D01*
X368770Y237415D01*
X368707Y237442D01*
X368645Y237473D01*
X368585Y237507D01*
X368527Y237544D01*
X368471Y237584D01*
X368418Y237627D01*
X368367Y237673D01*
X368318Y237722D01*
X368272Y237773D01*
X368229Y237826D01*
X368189Y237882D01*
X368152Y237940D01*
X368118Y238000D01*
X368087Y238062D01*
X368060Y238125D01*
X368036Y238189D01*
X368016Y238255D01*
X368000Y238322D01*
X367987Y238390D01*
X367977Y238458D01*
X367972Y238526D01*
X367970Y238595D01*
X367970Y244945D01*
X367972Y245014D01*
X367977Y245082D01*
X367987Y245150D01*
X368000Y245218D01*
X368016Y245285D01*
X368036Y245351D01*
X368060Y245415D01*
X368087Y245478D01*
X368118Y245540D01*
X368152Y245600D01*
X368189Y245658D01*
X368229Y245714D01*
X368272Y245767D01*
X368318Y245818D01*
X368367Y245867D01*
X368418Y245913D01*
X368471Y245956D01*
X368527Y245996D01*
X368585Y246033D01*
X368645Y246067D01*
X368707Y246098D01*
X368770Y246125D01*
X368834Y246149D01*
X368900Y246169D01*
X368967Y246185D01*
X369035Y246198D01*
X369103Y246208D01*
X369171Y246213D01*
X369240Y246215D01*
X384480Y246215D01*
X388036Y310731D02*
X388034Y310800D01*
X388029Y310868D01*
X388019Y310936D01*
X388006Y311004D01*
X387990Y311071D01*
X387970Y311137D01*
X387946Y311201D01*
X387919Y311264D01*
X387888Y311326D01*
X387854Y311386D01*
X387817Y311444D01*
X387777Y311500D01*
X387734Y311553D01*
X387688Y311604D01*
X387639Y311653D01*
X387588Y311699D01*
X387535Y311742D01*
X387479Y311782D01*
X387421Y311819D01*
X387361Y311853D01*
X387299Y311884D01*
X387236Y311911D01*
X387172Y311935D01*
X387106Y311955D01*
X387039Y311971D01*
X386971Y311984D01*
X386903Y311994D01*
X386835Y311999D01*
X386766Y312001D01*
X388036Y310731D02*
X388036Y304381D01*
X388034Y304312D01*
X388029Y304244D01*
X388019Y304176D01*
X388006Y304108D01*
X387990Y304041D01*
X387970Y303975D01*
X387946Y303911D01*
X387919Y303848D01*
X387888Y303786D01*
X387854Y303726D01*
X387817Y303668D01*
X387777Y303612D01*
X387734Y303559D01*
X387688Y303508D01*
X387639Y303459D01*
X387588Y303413D01*
X387535Y303370D01*
X387479Y303330D01*
X387421Y303293D01*
X387361Y303259D01*
X387299Y303228D01*
X387236Y303201D01*
X387172Y303177D01*
X387106Y303157D01*
X387039Y303141D01*
X386971Y303128D01*
X386903Y303118D01*
X386835Y303113D01*
X386766Y303111D01*
X371526Y303111D01*
X371457Y303113D01*
X371389Y303118D01*
X371321Y303128D01*
X371253Y303141D01*
X371186Y303157D01*
X371120Y303177D01*
X371056Y303201D01*
X370993Y303228D01*
X370931Y303259D01*
X370871Y303293D01*
X370813Y303330D01*
X370757Y303370D01*
X370704Y303413D01*
X370653Y303459D01*
X370604Y303508D01*
X370558Y303559D01*
X370515Y303612D01*
X370475Y303668D01*
X370438Y303726D01*
X370404Y303786D01*
X370373Y303848D01*
X370346Y303911D01*
X370322Y303975D01*
X370302Y304041D01*
X370286Y304108D01*
X370273Y304176D01*
X370263Y304244D01*
X370258Y304312D01*
X370256Y304381D01*
X370256Y310731D01*
X370258Y310800D01*
X370263Y310868D01*
X370273Y310936D01*
X370286Y311004D01*
X370302Y311071D01*
X370322Y311137D01*
X370346Y311201D01*
X370373Y311264D01*
X370404Y311326D01*
X370438Y311386D01*
X370475Y311444D01*
X370515Y311500D01*
X370558Y311553D01*
X370604Y311604D01*
X370653Y311653D01*
X370704Y311699D01*
X370757Y311742D01*
X370813Y311782D01*
X370871Y311819D01*
X370931Y311853D01*
X370993Y311884D01*
X371056Y311911D01*
X371120Y311935D01*
X371186Y311955D01*
X371253Y311971D01*
X371321Y311984D01*
X371389Y311994D01*
X371457Y311999D01*
X371526Y312001D01*
X386766Y312001D01*
X270434Y140297D02*
X270436Y140228D01*
X270441Y140160D01*
X270451Y140092D01*
X270464Y140024D01*
X270480Y139957D01*
X270500Y139891D01*
X270524Y139827D01*
X270551Y139764D01*
X270582Y139702D01*
X270616Y139642D01*
X270653Y139584D01*
X270693Y139528D01*
X270736Y139475D01*
X270782Y139424D01*
X270831Y139375D01*
X270882Y139329D01*
X270935Y139286D01*
X270991Y139246D01*
X271049Y139209D01*
X271109Y139175D01*
X271171Y139144D01*
X271234Y139117D01*
X271298Y139093D01*
X271364Y139073D01*
X271431Y139057D01*
X271499Y139044D01*
X271567Y139034D01*
X271635Y139029D01*
X271704Y139027D01*
X270434Y140297D02*
X270434Y146647D01*
X270436Y146716D01*
X270441Y146784D01*
X270451Y146852D01*
X270464Y146920D01*
X270480Y146987D01*
X270500Y147053D01*
X270524Y147117D01*
X270551Y147180D01*
X270582Y147242D01*
X270616Y147302D01*
X270653Y147360D01*
X270693Y147416D01*
X270736Y147469D01*
X270782Y147520D01*
X270831Y147569D01*
X270882Y147615D01*
X270935Y147658D01*
X270991Y147698D01*
X271049Y147735D01*
X271109Y147769D01*
X271171Y147800D01*
X271234Y147827D01*
X271298Y147851D01*
X271364Y147871D01*
X271431Y147887D01*
X271499Y147900D01*
X271567Y147910D01*
X271635Y147915D01*
X271704Y147917D01*
X286944Y147917D01*
X287013Y147915D01*
X287081Y147910D01*
X287149Y147900D01*
X287217Y147887D01*
X287284Y147871D01*
X287350Y147851D01*
X287414Y147827D01*
X287477Y147800D01*
X287539Y147769D01*
X287599Y147735D01*
X287657Y147698D01*
X287713Y147658D01*
X287766Y147615D01*
X287817Y147569D01*
X287866Y147520D01*
X287912Y147469D01*
X287955Y147416D01*
X287995Y147360D01*
X288032Y147302D01*
X288066Y147242D01*
X288097Y147180D01*
X288124Y147117D01*
X288148Y147053D01*
X288168Y146987D01*
X288184Y146920D01*
X288197Y146852D01*
X288207Y146784D01*
X288212Y146716D01*
X288214Y146647D01*
X288214Y140297D01*
X288212Y140228D01*
X288207Y140160D01*
X288197Y140092D01*
X288184Y140024D01*
X288168Y139957D01*
X288148Y139891D01*
X288124Y139827D01*
X288097Y139764D01*
X288066Y139702D01*
X288032Y139642D01*
X287995Y139584D01*
X287955Y139528D01*
X287912Y139475D01*
X287866Y139424D01*
X287817Y139375D01*
X287766Y139329D01*
X287713Y139286D01*
X287657Y139246D01*
X287599Y139209D01*
X287539Y139175D01*
X287477Y139144D01*
X287414Y139117D01*
X287350Y139093D01*
X287284Y139073D01*
X287217Y139057D01*
X287149Y139044D01*
X287081Y139034D01*
X287013Y139029D01*
X286944Y139027D01*
X271704Y139027D01*
X246939Y366484D02*
X246941Y366553D01*
X246946Y366621D01*
X246956Y366689D01*
X246969Y366757D01*
X246985Y366824D01*
X247005Y366890D01*
X247029Y366954D01*
X247056Y367017D01*
X247087Y367079D01*
X247121Y367139D01*
X247158Y367197D01*
X247198Y367253D01*
X247241Y367306D01*
X247287Y367357D01*
X247336Y367406D01*
X247387Y367452D01*
X247440Y367495D01*
X247496Y367535D01*
X247554Y367572D01*
X247614Y367606D01*
X247676Y367637D01*
X247739Y367664D01*
X247803Y367688D01*
X247869Y367708D01*
X247936Y367724D01*
X248004Y367737D01*
X248072Y367747D01*
X248140Y367752D01*
X248209Y367754D01*
X254559Y367754D01*
X254628Y367752D01*
X254696Y367747D01*
X254764Y367737D01*
X254832Y367724D01*
X254899Y367708D01*
X254965Y367688D01*
X255029Y367664D01*
X255092Y367637D01*
X255154Y367606D01*
X255214Y367572D01*
X255272Y367535D01*
X255328Y367495D01*
X255381Y367452D01*
X255432Y367406D01*
X255481Y367357D01*
X255527Y367306D01*
X255570Y367253D01*
X255610Y367197D01*
X255647Y367139D01*
X255681Y367079D01*
X255712Y367017D01*
X255739Y366954D01*
X255763Y366890D01*
X255783Y366824D01*
X255799Y366757D01*
X255812Y366689D01*
X255822Y366621D01*
X255827Y366553D01*
X255829Y366484D01*
X255829Y351244D01*
X255827Y351175D01*
X255822Y351107D01*
X255812Y351039D01*
X255799Y350971D01*
X255783Y350904D01*
X255763Y350838D01*
X255739Y350774D01*
X255712Y350711D01*
X255681Y350649D01*
X255647Y350589D01*
X255610Y350531D01*
X255570Y350475D01*
X255527Y350422D01*
X255481Y350371D01*
X255432Y350322D01*
X255381Y350276D01*
X255328Y350233D01*
X255272Y350193D01*
X255214Y350156D01*
X255154Y350122D01*
X255092Y350091D01*
X255029Y350064D01*
X254965Y350040D01*
X254899Y350020D01*
X254832Y350004D01*
X254764Y349991D01*
X254696Y349981D01*
X254628Y349976D01*
X254559Y349974D01*
X248209Y349974D01*
X248140Y349976D01*
X248072Y349981D01*
X248004Y349991D01*
X247936Y350004D01*
X247869Y350020D01*
X247803Y350040D01*
X247739Y350064D01*
X247676Y350091D01*
X247614Y350122D01*
X247554Y350156D01*
X247496Y350193D01*
X247440Y350233D01*
X247387Y350276D01*
X247336Y350322D01*
X247287Y350371D01*
X247241Y350422D01*
X247198Y350475D01*
X247158Y350531D01*
X247121Y350589D01*
X247087Y350649D01*
X247056Y350711D01*
X247029Y350774D01*
X247005Y350838D01*
X246985Y350904D01*
X246969Y350971D01*
X246956Y351039D01*
X246946Y351107D01*
X246941Y351175D01*
X246939Y351244D01*
X246939Y366484D01*
X227889Y367754D02*
X227820Y367752D01*
X227752Y367747D01*
X227684Y367737D01*
X227616Y367724D01*
X227549Y367708D01*
X227483Y367688D01*
X227419Y367664D01*
X227356Y367637D01*
X227294Y367606D01*
X227234Y367572D01*
X227176Y367535D01*
X227120Y367495D01*
X227067Y367452D01*
X227016Y367406D01*
X226967Y367357D01*
X226921Y367306D01*
X226878Y367253D01*
X226838Y367197D01*
X226801Y367139D01*
X226767Y367079D01*
X226736Y367017D01*
X226709Y366954D01*
X226685Y366890D01*
X226665Y366824D01*
X226649Y366757D01*
X226636Y366689D01*
X226626Y366621D01*
X226621Y366553D01*
X226619Y366484D01*
X227889Y367754D02*
X234239Y367754D01*
X234308Y367752D01*
X234376Y367747D01*
X234444Y367737D01*
X234512Y367724D01*
X234579Y367708D01*
X234645Y367688D01*
X234709Y367664D01*
X234772Y367637D01*
X234834Y367606D01*
X234894Y367572D01*
X234952Y367535D01*
X235008Y367495D01*
X235061Y367452D01*
X235112Y367406D01*
X235161Y367357D01*
X235207Y367306D01*
X235250Y367253D01*
X235290Y367197D01*
X235327Y367139D01*
X235361Y367079D01*
X235392Y367017D01*
X235419Y366954D01*
X235443Y366890D01*
X235463Y366824D01*
X235479Y366757D01*
X235492Y366689D01*
X235502Y366621D01*
X235507Y366553D01*
X235509Y366484D01*
X235509Y351244D01*
X235507Y351175D01*
X235502Y351107D01*
X235492Y351039D01*
X235479Y350971D01*
X235463Y350904D01*
X235443Y350838D01*
X235419Y350774D01*
X235392Y350711D01*
X235361Y350649D01*
X235327Y350589D01*
X235290Y350531D01*
X235250Y350475D01*
X235207Y350422D01*
X235161Y350371D01*
X235112Y350322D01*
X235061Y350276D01*
X235008Y350233D01*
X234952Y350193D01*
X234894Y350156D01*
X234834Y350122D01*
X234772Y350091D01*
X234709Y350064D01*
X234645Y350040D01*
X234579Y350020D01*
X234512Y350004D01*
X234444Y349991D01*
X234376Y349981D01*
X234308Y349976D01*
X234239Y349974D01*
X227889Y349974D01*
X227820Y349976D01*
X227752Y349981D01*
X227684Y349991D01*
X227616Y350004D01*
X227549Y350020D01*
X227483Y350040D01*
X227419Y350064D01*
X227356Y350091D01*
X227294Y350122D01*
X227234Y350156D01*
X227176Y350193D01*
X227120Y350233D01*
X227067Y350276D01*
X227016Y350322D01*
X226967Y350371D01*
X226921Y350422D01*
X226878Y350475D01*
X226838Y350531D01*
X226801Y350589D01*
X226767Y350649D01*
X226736Y350711D01*
X226709Y350774D01*
X226685Y350838D01*
X226665Y350904D01*
X226649Y350971D01*
X226636Y351039D01*
X226626Y351107D01*
X226621Y351175D01*
X226619Y351244D01*
X226619Y366484D01*
X386766Y321907D02*
X386835Y321905D01*
X386903Y321900D01*
X386971Y321890D01*
X387039Y321877D01*
X387106Y321861D01*
X387172Y321841D01*
X387236Y321817D01*
X387299Y321790D01*
X387361Y321759D01*
X387421Y321725D01*
X387479Y321688D01*
X387535Y321648D01*
X387588Y321605D01*
X387639Y321559D01*
X387688Y321510D01*
X387734Y321459D01*
X387777Y321406D01*
X387817Y321350D01*
X387854Y321292D01*
X387888Y321232D01*
X387919Y321170D01*
X387946Y321107D01*
X387970Y321043D01*
X387990Y320977D01*
X388006Y320910D01*
X388019Y320842D01*
X388029Y320774D01*
X388034Y320706D01*
X388036Y320637D01*
X388036Y314287D01*
X388034Y314218D01*
X388029Y314150D01*
X388019Y314082D01*
X388006Y314014D01*
X387990Y313947D01*
X387970Y313881D01*
X387946Y313817D01*
X387919Y313754D01*
X387888Y313692D01*
X387854Y313632D01*
X387817Y313574D01*
X387777Y313518D01*
X387734Y313465D01*
X387688Y313414D01*
X387639Y313365D01*
X387588Y313319D01*
X387535Y313276D01*
X387479Y313236D01*
X387421Y313199D01*
X387361Y313165D01*
X387299Y313134D01*
X387236Y313107D01*
X387172Y313083D01*
X387106Y313063D01*
X387039Y313047D01*
X386971Y313034D01*
X386903Y313024D01*
X386835Y313019D01*
X386766Y313017D01*
X371526Y313017D01*
X371457Y313019D01*
X371389Y313024D01*
X371321Y313034D01*
X371253Y313047D01*
X371186Y313063D01*
X371120Y313083D01*
X371056Y313107D01*
X370993Y313134D01*
X370931Y313165D01*
X370871Y313199D01*
X370813Y313236D01*
X370757Y313276D01*
X370704Y313319D01*
X370653Y313365D01*
X370604Y313414D01*
X370558Y313465D01*
X370515Y313518D01*
X370475Y313574D01*
X370438Y313632D01*
X370404Y313692D01*
X370373Y313754D01*
X370346Y313817D01*
X370322Y313881D01*
X370302Y313947D01*
X370286Y314014D01*
X370273Y314082D01*
X370263Y314150D01*
X370258Y314218D01*
X370256Y314287D01*
X370256Y320637D01*
X370258Y320706D01*
X370263Y320774D01*
X370273Y320842D01*
X370286Y320910D01*
X370302Y320977D01*
X370322Y321043D01*
X370346Y321107D01*
X370373Y321170D01*
X370404Y321232D01*
X370438Y321292D01*
X370475Y321350D01*
X370515Y321406D01*
X370558Y321459D01*
X370604Y321510D01*
X370653Y321559D01*
X370704Y321605D01*
X370757Y321648D01*
X370813Y321688D01*
X370871Y321725D01*
X370931Y321759D01*
X370993Y321790D01*
X371056Y321817D01*
X371120Y321841D01*
X371186Y321861D01*
X371253Y321877D01*
X371321Y321890D01*
X371389Y321900D01*
X371457Y321905D01*
X371526Y321907D01*
X386766Y321907D01*
X384480Y256629D02*
X384549Y256627D01*
X384617Y256622D01*
X384685Y256612D01*
X384753Y256599D01*
X384820Y256583D01*
X384886Y256563D01*
X384950Y256539D01*
X385013Y256512D01*
X385075Y256481D01*
X385135Y256447D01*
X385193Y256410D01*
X385249Y256370D01*
X385302Y256327D01*
X385353Y256281D01*
X385402Y256232D01*
X385448Y256181D01*
X385491Y256128D01*
X385531Y256072D01*
X385568Y256014D01*
X385602Y255954D01*
X385633Y255892D01*
X385660Y255829D01*
X385684Y255765D01*
X385704Y255699D01*
X385720Y255632D01*
X385733Y255564D01*
X385743Y255496D01*
X385748Y255428D01*
X385750Y255359D01*
X385750Y249009D01*
X385748Y248940D01*
X385743Y248872D01*
X385733Y248804D01*
X385720Y248736D01*
X385704Y248669D01*
X385684Y248603D01*
X385660Y248539D01*
X385633Y248476D01*
X385602Y248414D01*
X385568Y248354D01*
X385531Y248296D01*
X385491Y248240D01*
X385448Y248187D01*
X385402Y248136D01*
X385353Y248087D01*
X385302Y248041D01*
X385249Y247998D01*
X385193Y247958D01*
X385135Y247921D01*
X385075Y247887D01*
X385013Y247856D01*
X384950Y247829D01*
X384886Y247805D01*
X384820Y247785D01*
X384753Y247769D01*
X384685Y247756D01*
X384617Y247746D01*
X384549Y247741D01*
X384480Y247739D01*
X369240Y247739D01*
X369171Y247741D01*
X369103Y247746D01*
X369035Y247756D01*
X368967Y247769D01*
X368900Y247785D01*
X368834Y247805D01*
X368770Y247829D01*
X368707Y247856D01*
X368645Y247887D01*
X368585Y247921D01*
X368527Y247958D01*
X368471Y247998D01*
X368418Y248041D01*
X368367Y248087D01*
X368318Y248136D01*
X368272Y248187D01*
X368229Y248240D01*
X368189Y248296D01*
X368152Y248354D01*
X368118Y248414D01*
X368087Y248476D01*
X368060Y248539D01*
X368036Y248603D01*
X368016Y248669D01*
X368000Y248736D01*
X367987Y248804D01*
X367977Y248872D01*
X367972Y248940D01*
X367970Y249009D01*
X367970Y255359D01*
X367972Y255428D01*
X367977Y255496D01*
X367987Y255564D01*
X368000Y255632D01*
X368016Y255699D01*
X368036Y255765D01*
X368060Y255829D01*
X368087Y255892D01*
X368118Y255954D01*
X368152Y256014D01*
X368189Y256072D01*
X368229Y256128D01*
X368272Y256181D01*
X368318Y256232D01*
X368367Y256281D01*
X368418Y256327D01*
X368471Y256370D01*
X368527Y256410D01*
X368585Y256447D01*
X368645Y256481D01*
X368707Y256512D01*
X368770Y256539D01*
X368834Y256563D01*
X368900Y256583D01*
X368967Y256599D01*
X369035Y256612D01*
X369103Y256622D01*
X369171Y256627D01*
X369240Y256629D01*
X384480Y256629D01*
X181026Y221831D02*
X180957Y221833D01*
X180889Y221838D01*
X180821Y221848D01*
X180753Y221861D01*
X180686Y221877D01*
X180620Y221897D01*
X180556Y221921D01*
X180493Y221948D01*
X180431Y221979D01*
X180371Y222013D01*
X180313Y222050D01*
X180257Y222090D01*
X180204Y222133D01*
X180153Y222179D01*
X180104Y222228D01*
X180058Y222279D01*
X180015Y222332D01*
X179975Y222388D01*
X179938Y222446D01*
X179904Y222506D01*
X179873Y222568D01*
X179846Y222631D01*
X179822Y222695D01*
X179802Y222761D01*
X179786Y222828D01*
X179773Y222896D01*
X179763Y222964D01*
X179758Y223032D01*
X179756Y223101D01*
X179756Y229451D01*
X179758Y229520D01*
X179763Y229588D01*
X179773Y229656D01*
X179786Y229724D01*
X179802Y229791D01*
X179822Y229857D01*
X179846Y229921D01*
X179873Y229984D01*
X179904Y230046D01*
X179938Y230106D01*
X179975Y230164D01*
X180015Y230220D01*
X180058Y230273D01*
X180104Y230324D01*
X180153Y230373D01*
X180204Y230419D01*
X180257Y230462D01*
X180313Y230502D01*
X180371Y230539D01*
X180431Y230573D01*
X180493Y230604D01*
X180556Y230631D01*
X180620Y230655D01*
X180686Y230675D01*
X180753Y230691D01*
X180821Y230704D01*
X180889Y230714D01*
X180957Y230719D01*
X181026Y230721D01*
X196266Y230721D01*
X196335Y230719D01*
X196403Y230714D01*
X196471Y230704D01*
X196539Y230691D01*
X196606Y230675D01*
X196672Y230655D01*
X196736Y230631D01*
X196799Y230604D01*
X196861Y230573D01*
X196921Y230539D01*
X196979Y230502D01*
X197035Y230462D01*
X197088Y230419D01*
X197139Y230373D01*
X197188Y230324D01*
X197234Y230273D01*
X197277Y230220D01*
X197317Y230164D01*
X197354Y230106D01*
X197388Y230046D01*
X197419Y229984D01*
X197446Y229921D01*
X197470Y229857D01*
X197490Y229791D01*
X197506Y229724D01*
X197519Y229656D01*
X197529Y229588D01*
X197534Y229520D01*
X197536Y229451D01*
X197536Y223101D01*
X197534Y223032D01*
X197529Y222964D01*
X197519Y222896D01*
X197506Y222828D01*
X197490Y222761D01*
X197470Y222695D01*
X197446Y222631D01*
X197419Y222568D01*
X197388Y222506D01*
X197354Y222446D01*
X197317Y222388D01*
X197277Y222332D01*
X197234Y222279D01*
X197188Y222228D01*
X197139Y222179D01*
X197088Y222133D01*
X197035Y222090D01*
X196979Y222050D01*
X196921Y222013D01*
X196861Y221979D01*
X196799Y221948D01*
X196736Y221921D01*
X196672Y221897D01*
X196606Y221877D01*
X196539Y221861D01*
X196471Y221848D01*
X196403Y221838D01*
X196335Y221833D01*
X196266Y221831D01*
X181026Y221831D01*
X179756Y212941D02*
X179758Y212872D01*
X179763Y212804D01*
X179773Y212736D01*
X179786Y212668D01*
X179802Y212601D01*
X179822Y212535D01*
X179846Y212471D01*
X179873Y212408D01*
X179904Y212346D01*
X179938Y212286D01*
X179975Y212228D01*
X180015Y212172D01*
X180058Y212119D01*
X180104Y212068D01*
X180153Y212019D01*
X180204Y211973D01*
X180257Y211930D01*
X180313Y211890D01*
X180371Y211853D01*
X180431Y211819D01*
X180493Y211788D01*
X180556Y211761D01*
X180620Y211737D01*
X180686Y211717D01*
X180753Y211701D01*
X180821Y211688D01*
X180889Y211678D01*
X180957Y211673D01*
X181026Y211671D01*
X179756Y212941D02*
X179756Y219291D01*
X179758Y219360D01*
X179763Y219428D01*
X179773Y219496D01*
X179786Y219564D01*
X179802Y219631D01*
X179822Y219697D01*
X179846Y219761D01*
X179873Y219824D01*
X179904Y219886D01*
X179938Y219946D01*
X179975Y220004D01*
X180015Y220060D01*
X180058Y220113D01*
X180104Y220164D01*
X180153Y220213D01*
X180204Y220259D01*
X180257Y220302D01*
X180313Y220342D01*
X180371Y220379D01*
X180431Y220413D01*
X180493Y220444D01*
X180556Y220471D01*
X180620Y220495D01*
X180686Y220515D01*
X180753Y220531D01*
X180821Y220544D01*
X180889Y220554D01*
X180957Y220559D01*
X181026Y220561D01*
X196266Y220561D01*
X196335Y220559D01*
X196403Y220554D01*
X196471Y220544D01*
X196539Y220531D01*
X196606Y220515D01*
X196672Y220495D01*
X196736Y220471D01*
X196799Y220444D01*
X196861Y220413D01*
X196921Y220379D01*
X196979Y220342D01*
X197035Y220302D01*
X197088Y220259D01*
X197139Y220213D01*
X197188Y220164D01*
X197234Y220113D01*
X197277Y220060D01*
X197317Y220004D01*
X197354Y219946D01*
X197388Y219886D01*
X197419Y219824D01*
X197446Y219761D01*
X197470Y219697D01*
X197490Y219631D01*
X197506Y219564D01*
X197519Y219496D01*
X197529Y219428D01*
X197534Y219360D01*
X197536Y219291D01*
X197536Y212941D01*
X197534Y212872D01*
X197529Y212804D01*
X197519Y212736D01*
X197506Y212668D01*
X197490Y212601D01*
X197470Y212535D01*
X197446Y212471D01*
X197419Y212408D01*
X197388Y212346D01*
X197354Y212286D01*
X197317Y212228D01*
X197277Y212172D01*
X197234Y212119D01*
X197188Y212068D01*
X197139Y212019D01*
X197088Y211973D01*
X197035Y211930D01*
X196979Y211890D01*
X196921Y211853D01*
X196861Y211819D01*
X196799Y211788D01*
X196736Y211761D01*
X196672Y211737D01*
X196606Y211717D01*
X196539Y211701D01*
X196471Y211688D01*
X196403Y211678D01*
X196335Y211673D01*
X196266Y211671D01*
X181026Y211671D01*
X223698Y173825D02*
X223767Y173823D01*
X223835Y173818D01*
X223903Y173808D01*
X223971Y173795D01*
X224038Y173779D01*
X224104Y173759D01*
X224168Y173735D01*
X224231Y173708D01*
X224293Y173677D01*
X224353Y173643D01*
X224411Y173606D01*
X224467Y173566D01*
X224520Y173523D01*
X224571Y173477D01*
X224620Y173428D01*
X224666Y173377D01*
X224709Y173324D01*
X224749Y173268D01*
X224786Y173210D01*
X224820Y173150D01*
X224851Y173088D01*
X224878Y173025D01*
X224902Y172961D01*
X224922Y172895D01*
X224938Y172828D01*
X224951Y172760D01*
X224961Y172692D01*
X224966Y172624D01*
X224968Y172555D01*
X224968Y166205D01*
X224966Y166136D01*
X224961Y166068D01*
X224951Y166000D01*
X224938Y165932D01*
X224922Y165865D01*
X224902Y165799D01*
X224878Y165735D01*
X224851Y165672D01*
X224820Y165610D01*
X224786Y165550D01*
X224749Y165492D01*
X224709Y165436D01*
X224666Y165383D01*
X224620Y165332D01*
X224571Y165283D01*
X224520Y165237D01*
X224467Y165194D01*
X224411Y165154D01*
X224353Y165117D01*
X224293Y165083D01*
X224231Y165052D01*
X224168Y165025D01*
X224104Y165001D01*
X224038Y164981D01*
X223971Y164965D01*
X223903Y164952D01*
X223835Y164942D01*
X223767Y164937D01*
X223698Y164935D01*
X208458Y164935D01*
X208389Y164937D01*
X208321Y164942D01*
X208253Y164952D01*
X208185Y164965D01*
X208118Y164981D01*
X208052Y165001D01*
X207988Y165025D01*
X207925Y165052D01*
X207863Y165083D01*
X207803Y165117D01*
X207745Y165154D01*
X207689Y165194D01*
X207636Y165237D01*
X207585Y165283D01*
X207536Y165332D01*
X207490Y165383D01*
X207447Y165436D01*
X207407Y165492D01*
X207370Y165550D01*
X207336Y165610D01*
X207305Y165672D01*
X207278Y165735D01*
X207254Y165799D01*
X207234Y165865D01*
X207218Y165932D01*
X207205Y166000D01*
X207195Y166068D01*
X207190Y166136D01*
X207188Y166205D01*
X207188Y172555D01*
X207190Y172624D01*
X207195Y172692D01*
X207205Y172760D01*
X207218Y172828D01*
X207234Y172895D01*
X207254Y172961D01*
X207278Y173025D01*
X207305Y173088D01*
X207336Y173150D01*
X207370Y173210D01*
X207407Y173268D01*
X207447Y173324D01*
X207490Y173377D01*
X207536Y173428D01*
X207585Y173477D01*
X207636Y173523D01*
X207689Y173566D01*
X207745Y173606D01*
X207803Y173643D01*
X207863Y173677D01*
X207925Y173708D01*
X207988Y173735D01*
X208052Y173759D01*
X208118Y173779D01*
X208185Y173795D01*
X208253Y173808D01*
X208321Y173818D01*
X208389Y173823D01*
X208458Y173825D01*
X223698Y173825D01*
X299390Y194653D02*
X299392Y194584D01*
X299397Y194516D01*
X299407Y194448D01*
X299420Y194380D01*
X299436Y194313D01*
X299456Y194247D01*
X299480Y194183D01*
X299507Y194120D01*
X299538Y194058D01*
X299572Y193998D01*
X299609Y193940D01*
X299649Y193884D01*
X299692Y193831D01*
X299738Y193780D01*
X299787Y193731D01*
X299838Y193685D01*
X299891Y193642D01*
X299947Y193602D01*
X300005Y193565D01*
X300065Y193531D01*
X300127Y193500D01*
X300190Y193473D01*
X300254Y193449D01*
X300320Y193429D01*
X300387Y193413D01*
X300455Y193400D01*
X300523Y193390D01*
X300591Y193385D01*
X300660Y193383D01*
X299390Y194653D02*
X299390Y201003D01*
X299392Y201072D01*
X299397Y201140D01*
X299407Y201208D01*
X299420Y201276D01*
X299436Y201343D01*
X299456Y201409D01*
X299480Y201473D01*
X299507Y201536D01*
X299538Y201598D01*
X299572Y201658D01*
X299609Y201716D01*
X299649Y201772D01*
X299692Y201825D01*
X299738Y201876D01*
X299787Y201925D01*
X299838Y201971D01*
X299891Y202014D01*
X299947Y202054D01*
X300005Y202091D01*
X300065Y202125D01*
X300127Y202156D01*
X300190Y202183D01*
X300254Y202207D01*
X300320Y202227D01*
X300387Y202243D01*
X300455Y202256D01*
X300523Y202266D01*
X300591Y202271D01*
X300660Y202273D01*
X315900Y202273D01*
X315969Y202271D01*
X316037Y202266D01*
X316105Y202256D01*
X316173Y202243D01*
X316240Y202227D01*
X316306Y202207D01*
X316370Y202183D01*
X316433Y202156D01*
X316495Y202125D01*
X316555Y202091D01*
X316613Y202054D01*
X316669Y202014D01*
X316722Y201971D01*
X316773Y201925D01*
X316822Y201876D01*
X316868Y201825D01*
X316911Y201772D01*
X316951Y201716D01*
X316988Y201658D01*
X317022Y201598D01*
X317053Y201536D01*
X317080Y201473D01*
X317104Y201409D01*
X317124Y201343D01*
X317140Y201276D01*
X317153Y201208D01*
X317163Y201140D01*
X317168Y201072D01*
X317170Y201003D01*
X317170Y194653D01*
X317168Y194584D01*
X317163Y194516D01*
X317153Y194448D01*
X317140Y194380D01*
X317124Y194313D01*
X317104Y194247D01*
X317080Y194183D01*
X317053Y194120D01*
X317022Y194058D01*
X316988Y193998D01*
X316951Y193940D01*
X316911Y193884D01*
X316868Y193831D01*
X316822Y193780D01*
X316773Y193731D01*
X316722Y193685D01*
X316669Y193642D01*
X316613Y193602D01*
X316555Y193565D01*
X316495Y193531D01*
X316433Y193500D01*
X316370Y193473D01*
X316306Y193449D01*
X316240Y193429D01*
X316173Y193413D01*
X316105Y193400D01*
X316037Y193390D01*
X315969Y193385D01*
X315900Y193383D01*
X300660Y193383D01*
D13*
X396282Y423988D02*
X396282Y436488D01*
X396282Y423988D02*
X379282Y423988D01*
X379282Y436488D01*
X396282Y436488D01*
X386382Y434048D02*
X386382Y426428D01*
X390322Y430238D02*
X386512Y434048D01*
X390322Y430238D02*
X386512Y426428D01*
X310946Y415696D02*
X294946Y415696D01*
X310946Y415696D02*
X310946Y407696D01*
X294946Y407696D01*
X294946Y415696D01*
X301676Y415506D02*
X301676Y407886D01*
X302946Y409791D01*
X304216Y411696D01*
X302946Y413601D01*
X301676Y415506D01*
X302311Y414236D02*
X302311Y409156D01*
X302946Y409791D02*
X302946Y413601D01*
X294946Y427888D02*
X310946Y427888D01*
X310946Y419888D01*
X294946Y419888D01*
X294946Y427888D01*
X301676Y427698D02*
X301676Y420078D01*
X302946Y421983D01*
X304216Y423888D01*
X302946Y425793D01*
X301676Y427698D01*
X302311Y426428D02*
X302311Y421348D01*
X302946Y421983D02*
X302946Y425793D01*
X306946Y434938D02*
X306946Y450938D01*
X306946Y434938D02*
X298946Y434938D01*
X298946Y450938D01*
X306946Y450938D01*
X306756Y444208D02*
X299136Y444208D01*
X301041Y442938D01*
X302946Y441668D01*
X304851Y442938D01*
X306756Y444208D01*
X305486Y443573D02*
X300406Y443573D01*
X301041Y442938D02*
X304851Y442938D01*
X298946Y462878D02*
X298946Y478878D01*
X306946Y478878D01*
X306946Y462878D01*
X298946Y462878D01*
X299136Y469608D02*
X306756Y469608D01*
X304851Y470878D01*
X302946Y472148D01*
X301041Y470878D01*
X299136Y469608D01*
X300406Y470243D02*
X305486Y470243D01*
X304851Y470878D02*
X301041Y470878D01*
X240246Y329870D02*
X240246Y229870D01*
X240246Y329870D02*
X340246Y329870D01*
X340246Y229870D01*
X240246Y229870D01*
X240445Y224140D02*
X240447Y224251D01*
X240453Y224361D01*
X240463Y224471D01*
X240477Y224581D01*
X240495Y224690D01*
X240517Y224798D01*
X240542Y224906D01*
X240572Y225012D01*
X240605Y225117D01*
X240642Y225221D01*
X240683Y225324D01*
X240728Y225425D01*
X240776Y225525D01*
X240828Y225622D01*
X240883Y225718D01*
X240942Y225812D01*
X241004Y225903D01*
X241069Y225992D01*
X241138Y226079D01*
X241209Y226163D01*
X241284Y226245D01*
X241361Y226324D01*
X241441Y226400D01*
X241524Y226473D01*
X241610Y226543D01*
X241698Y226610D01*
X241788Y226674D01*
X241881Y226734D01*
X241975Y226791D01*
X242072Y226844D01*
X242171Y226894D01*
X242271Y226941D01*
X242373Y226984D01*
X242476Y227023D01*
X242581Y227058D01*
X242687Y227089D01*
X242794Y227117D01*
X242902Y227141D01*
X243011Y227161D01*
X243120Y227177D01*
X243230Y227189D01*
X243340Y227197D01*
X243451Y227201D01*
X243561Y227201D01*
X243672Y227197D01*
X243782Y227189D01*
X243892Y227177D01*
X244001Y227161D01*
X244110Y227141D01*
X244218Y227117D01*
X244325Y227089D01*
X244431Y227058D01*
X244536Y227023D01*
X244639Y226984D01*
X244741Y226941D01*
X244841Y226894D01*
X244940Y226844D01*
X245036Y226791D01*
X245131Y226734D01*
X245224Y226674D01*
X245314Y226610D01*
X245402Y226543D01*
X245488Y226473D01*
X245571Y226400D01*
X245651Y226324D01*
X245728Y226245D01*
X245803Y226163D01*
X245874Y226079D01*
X245943Y225992D01*
X246008Y225903D01*
X246070Y225812D01*
X246129Y225718D01*
X246184Y225622D01*
X246236Y225525D01*
X246284Y225425D01*
X246329Y225324D01*
X246370Y225221D01*
X246407Y225117D01*
X246440Y225012D01*
X246470Y224906D01*
X246495Y224798D01*
X246517Y224690D01*
X246535Y224581D01*
X246549Y224471D01*
X246559Y224361D01*
X246565Y224251D01*
X246567Y224140D01*
X246565Y224029D01*
X246559Y223919D01*
X246549Y223809D01*
X246535Y223699D01*
X246517Y223590D01*
X246495Y223482D01*
X246470Y223374D01*
X246440Y223268D01*
X246407Y223163D01*
X246370Y223059D01*
X246329Y222956D01*
X246284Y222855D01*
X246236Y222755D01*
X246184Y222658D01*
X246129Y222562D01*
X246070Y222468D01*
X246008Y222377D01*
X245943Y222288D01*
X245874Y222201D01*
X245803Y222117D01*
X245728Y222035D01*
X245651Y221956D01*
X245571Y221880D01*
X245488Y221807D01*
X245402Y221737D01*
X245314Y221670D01*
X245224Y221606D01*
X245131Y221546D01*
X245037Y221489D01*
X244940Y221436D01*
X244841Y221386D01*
X244741Y221339D01*
X244639Y221296D01*
X244536Y221257D01*
X244431Y221222D01*
X244325Y221191D01*
X244218Y221163D01*
X244110Y221139D01*
X244001Y221119D01*
X243892Y221103D01*
X243782Y221091D01*
X243672Y221083D01*
X243561Y221079D01*
X243451Y221079D01*
X243340Y221083D01*
X243230Y221091D01*
X243120Y221103D01*
X243011Y221119D01*
X242902Y221139D01*
X242794Y221163D01*
X242687Y221191D01*
X242581Y221222D01*
X242476Y221257D01*
X242373Y221296D01*
X242271Y221339D01*
X242171Y221386D01*
X242072Y221436D01*
X241975Y221489D01*
X241881Y221546D01*
X241788Y221606D01*
X241698Y221670D01*
X241610Y221737D01*
X241524Y221807D01*
X241441Y221880D01*
X241361Y221956D01*
X241284Y222035D01*
X241209Y222117D01*
X241138Y222201D01*
X241069Y222288D01*
X241004Y222377D01*
X240942Y222468D01*
X240883Y222562D01*
X240828Y222658D01*
X240776Y222755D01*
X240728Y222855D01*
X240683Y222956D01*
X240642Y223059D01*
X240605Y223163D01*
X240572Y223268D01*
X240542Y223374D01*
X240517Y223482D01*
X240495Y223590D01*
X240477Y223699D01*
X240463Y223809D01*
X240453Y223919D01*
X240447Y224029D01*
X240445Y224140D01*
D14*
X319964Y451828D02*
X391084Y451828D01*
X319964Y451828D02*
X319964Y469608D01*
X312344Y469608D01*
X312344Y489928D01*
X319964Y489928D01*
X319964Y502628D01*
X391084Y502628D01*
X391084Y489928D01*
X398704Y489928D01*
X398704Y469608D01*
X391084Y469608D01*
X391084Y451828D01*
D15*
X282336Y437779D02*
X282338Y437854D01*
X282344Y437928D01*
X282354Y438002D01*
X282367Y438075D01*
X282385Y438148D01*
X282406Y438219D01*
X282431Y438290D01*
X282460Y438359D01*
X282493Y438426D01*
X282529Y438491D01*
X282568Y438555D01*
X282610Y438616D01*
X282656Y438675D01*
X282705Y438732D01*
X282757Y438785D01*
X282811Y438836D01*
X282868Y438885D01*
X282928Y438929D01*
X282990Y438971D01*
X283054Y439010D01*
X283120Y439045D01*
X283187Y439076D01*
X283257Y439104D01*
X283327Y439128D01*
X283399Y439149D01*
X283472Y439165D01*
X283545Y439178D01*
X283620Y439187D01*
X283694Y439192D01*
X283769Y439193D01*
X283843Y439190D01*
X283918Y439183D01*
X283991Y439172D01*
X284065Y439158D01*
X284137Y439139D01*
X284208Y439117D01*
X284278Y439091D01*
X284347Y439061D01*
X284413Y439028D01*
X284478Y438991D01*
X284541Y438951D01*
X284602Y438907D01*
X284660Y438861D01*
X284716Y438811D01*
X284769Y438759D01*
X284820Y438704D01*
X284867Y438646D01*
X284911Y438586D01*
X284952Y438523D01*
X284990Y438459D01*
X285024Y438393D01*
X285055Y438324D01*
X285082Y438255D01*
X285105Y438184D01*
X285124Y438112D01*
X285140Y438039D01*
X285152Y437965D01*
X285160Y437891D01*
X285164Y437816D01*
X285164Y437742D01*
X285160Y437667D01*
X285152Y437593D01*
X285140Y437519D01*
X285124Y437446D01*
X285105Y437374D01*
X285082Y437303D01*
X285055Y437234D01*
X285024Y437165D01*
X284990Y437099D01*
X284952Y437035D01*
X284911Y436972D01*
X284867Y436912D01*
X284820Y436854D01*
X284769Y436799D01*
X284716Y436747D01*
X284660Y436697D01*
X284602Y436651D01*
X284541Y436607D01*
X284478Y436567D01*
X284413Y436530D01*
X284347Y436497D01*
X284278Y436467D01*
X284208Y436441D01*
X284137Y436419D01*
X284065Y436400D01*
X283991Y436386D01*
X283918Y436375D01*
X283843Y436368D01*
X283769Y436365D01*
X283694Y436366D01*
X283620Y436371D01*
X283545Y436380D01*
X283472Y436393D01*
X283399Y436409D01*
X283327Y436430D01*
X283257Y436454D01*
X283187Y436482D01*
X283120Y436513D01*
X283054Y436548D01*
X282990Y436587D01*
X282928Y436629D01*
X282868Y436673D01*
X282811Y436722D01*
X282757Y436773D01*
X282705Y436826D01*
X282656Y436883D01*
X282610Y436942D01*
X282568Y437003D01*
X282529Y437067D01*
X282493Y437132D01*
X282460Y437199D01*
X282431Y437268D01*
X282406Y437339D01*
X282385Y437410D01*
X282367Y437483D01*
X282354Y437556D01*
X282344Y437630D01*
X282338Y437704D01*
X282336Y437779D01*
D14*
X273750Y486779D02*
X243750Y486779D01*
X288750Y460779D02*
X288750Y444279D01*
X236250Y444279D02*
X228750Y444279D01*
X228750Y460779D01*
X281250Y444279D02*
X288750Y444279D01*
D15*
X210486Y437779D02*
X210488Y437854D01*
X210494Y437928D01*
X210504Y438002D01*
X210517Y438075D01*
X210535Y438148D01*
X210556Y438219D01*
X210581Y438290D01*
X210610Y438359D01*
X210643Y438426D01*
X210679Y438491D01*
X210718Y438555D01*
X210760Y438616D01*
X210806Y438675D01*
X210855Y438732D01*
X210907Y438785D01*
X210961Y438836D01*
X211018Y438885D01*
X211078Y438929D01*
X211140Y438971D01*
X211204Y439010D01*
X211270Y439045D01*
X211337Y439076D01*
X211407Y439104D01*
X211477Y439128D01*
X211549Y439149D01*
X211622Y439165D01*
X211695Y439178D01*
X211770Y439187D01*
X211844Y439192D01*
X211919Y439193D01*
X211993Y439190D01*
X212068Y439183D01*
X212141Y439172D01*
X212215Y439158D01*
X212287Y439139D01*
X212358Y439117D01*
X212428Y439091D01*
X212497Y439061D01*
X212563Y439028D01*
X212628Y438991D01*
X212691Y438951D01*
X212752Y438907D01*
X212810Y438861D01*
X212866Y438811D01*
X212919Y438759D01*
X212970Y438704D01*
X213017Y438646D01*
X213061Y438586D01*
X213102Y438523D01*
X213140Y438459D01*
X213174Y438393D01*
X213205Y438324D01*
X213232Y438255D01*
X213255Y438184D01*
X213274Y438112D01*
X213290Y438039D01*
X213302Y437965D01*
X213310Y437891D01*
X213314Y437816D01*
X213314Y437742D01*
X213310Y437667D01*
X213302Y437593D01*
X213290Y437519D01*
X213274Y437446D01*
X213255Y437374D01*
X213232Y437303D01*
X213205Y437234D01*
X213174Y437165D01*
X213140Y437099D01*
X213102Y437035D01*
X213061Y436972D01*
X213017Y436912D01*
X212970Y436854D01*
X212919Y436799D01*
X212866Y436747D01*
X212810Y436697D01*
X212752Y436651D01*
X212691Y436607D01*
X212628Y436567D01*
X212563Y436530D01*
X212497Y436497D01*
X212428Y436467D01*
X212358Y436441D01*
X212287Y436419D01*
X212215Y436400D01*
X212141Y436386D01*
X212068Y436375D01*
X211993Y436368D01*
X211919Y436365D01*
X211844Y436366D01*
X211770Y436371D01*
X211695Y436380D01*
X211622Y436393D01*
X211549Y436409D01*
X211477Y436430D01*
X211407Y436454D01*
X211337Y436482D01*
X211270Y436513D01*
X211204Y436548D01*
X211140Y436587D01*
X211078Y436629D01*
X211018Y436673D01*
X210961Y436722D01*
X210907Y436773D01*
X210855Y436826D01*
X210806Y436883D01*
X210760Y436942D01*
X210718Y437003D01*
X210679Y437067D01*
X210643Y437132D01*
X210610Y437199D01*
X210581Y437268D01*
X210556Y437339D01*
X210535Y437410D01*
X210517Y437483D01*
X210504Y437556D01*
X210494Y437630D01*
X210488Y437704D01*
X210486Y437779D01*
D14*
X201900Y486779D02*
X171900Y486779D01*
X216900Y460779D02*
X216900Y444279D01*
X164400Y444279D02*
X156900Y444279D01*
X156900Y460779D01*
X209400Y444279D02*
X216900Y444279D01*
D16*
X347708Y401050D02*
X386708Y401050D01*
X386708Y372050D01*
X347708Y372050D01*
X347708Y401050D01*
X358208Y386550D02*
X358211Y386771D01*
X358219Y386992D01*
X358232Y387212D01*
X358251Y387432D01*
X358276Y387652D01*
X358305Y387871D01*
X358341Y388089D01*
X358381Y388306D01*
X358427Y388522D01*
X358478Y388737D01*
X358534Y388950D01*
X358596Y389163D01*
X358662Y389373D01*
X358734Y389582D01*
X358811Y389789D01*
X358893Y389994D01*
X358980Y390197D01*
X359072Y390398D01*
X359169Y390597D01*
X359271Y390793D01*
X359377Y390986D01*
X359488Y391177D01*
X359604Y391365D01*
X359725Y391550D01*
X359850Y391732D01*
X359979Y391911D01*
X360113Y392087D01*
X360251Y392260D01*
X360393Y392429D01*
X360539Y392594D01*
X360690Y392756D01*
X360844Y392914D01*
X361002Y393068D01*
X361164Y393219D01*
X361329Y393365D01*
X361498Y393507D01*
X361671Y393645D01*
X361847Y393779D01*
X362026Y393908D01*
X362208Y394033D01*
X362393Y394154D01*
X362581Y394270D01*
X362772Y394381D01*
X362965Y394487D01*
X363161Y394589D01*
X363360Y394686D01*
X363561Y394778D01*
X363764Y394865D01*
X363969Y394947D01*
X364176Y395024D01*
X364385Y395096D01*
X364595Y395162D01*
X364808Y395224D01*
X365021Y395280D01*
X365236Y395331D01*
X365452Y395377D01*
X365669Y395417D01*
X365887Y395453D01*
X366106Y395482D01*
X366326Y395507D01*
X366546Y395526D01*
X366766Y395539D01*
X366987Y395547D01*
X367208Y395550D01*
X367429Y395547D01*
X367650Y395539D01*
X367870Y395526D01*
X368090Y395507D01*
X368310Y395482D01*
X368529Y395453D01*
X368747Y395417D01*
X368964Y395377D01*
X369180Y395331D01*
X369395Y395280D01*
X369608Y395224D01*
X369821Y395162D01*
X370031Y395096D01*
X370240Y395024D01*
X370447Y394947D01*
X370652Y394865D01*
X370855Y394778D01*
X371056Y394686D01*
X371255Y394589D01*
X371451Y394487D01*
X371644Y394381D01*
X371835Y394270D01*
X372023Y394154D01*
X372208Y394033D01*
X372390Y393908D01*
X372569Y393779D01*
X372745Y393645D01*
X372918Y393507D01*
X373087Y393365D01*
X373252Y393219D01*
X373414Y393068D01*
X373572Y392914D01*
X373726Y392756D01*
X373877Y392594D01*
X374023Y392429D01*
X374165Y392260D01*
X374303Y392087D01*
X374437Y391911D01*
X374566Y391732D01*
X374691Y391550D01*
X374812Y391365D01*
X374928Y391177D01*
X375039Y390986D01*
X375145Y390793D01*
X375247Y390597D01*
X375344Y390398D01*
X375436Y390197D01*
X375523Y389994D01*
X375605Y389789D01*
X375682Y389582D01*
X375754Y389373D01*
X375820Y389163D01*
X375882Y388950D01*
X375938Y388737D01*
X375989Y388522D01*
X376035Y388306D01*
X376075Y388089D01*
X376111Y387871D01*
X376140Y387652D01*
X376165Y387432D01*
X376184Y387212D01*
X376197Y386992D01*
X376205Y386771D01*
X376208Y386550D01*
X376205Y386329D01*
X376197Y386108D01*
X376184Y385888D01*
X376165Y385668D01*
X376140Y385448D01*
X376111Y385229D01*
X376075Y385011D01*
X376035Y384794D01*
X375989Y384578D01*
X375938Y384363D01*
X375882Y384150D01*
X375820Y383937D01*
X375754Y383727D01*
X375682Y383518D01*
X375605Y383311D01*
X375523Y383106D01*
X375436Y382903D01*
X375344Y382702D01*
X375247Y382503D01*
X375145Y382307D01*
X375039Y382114D01*
X374928Y381923D01*
X374812Y381735D01*
X374691Y381550D01*
X374566Y381368D01*
X374437Y381189D01*
X374303Y381013D01*
X374165Y380840D01*
X374023Y380671D01*
X373877Y380506D01*
X373726Y380344D01*
X373572Y380186D01*
X373414Y380032D01*
X373252Y379881D01*
X373087Y379735D01*
X372918Y379593D01*
X372745Y379455D01*
X372569Y379321D01*
X372390Y379192D01*
X372208Y379067D01*
X372023Y378946D01*
X371835Y378830D01*
X371644Y378719D01*
X371451Y378613D01*
X371255Y378511D01*
X371056Y378414D01*
X370855Y378322D01*
X370652Y378235D01*
X370447Y378153D01*
X370240Y378076D01*
X370031Y378004D01*
X369821Y377938D01*
X369608Y377876D01*
X369395Y377820D01*
X369180Y377769D01*
X368964Y377723D01*
X368747Y377683D01*
X368529Y377647D01*
X368310Y377618D01*
X368090Y377593D01*
X367870Y377574D01*
X367650Y377561D01*
X367429Y377553D01*
X367208Y377550D01*
X366987Y377553D01*
X366766Y377561D01*
X366546Y377574D01*
X366326Y377593D01*
X366106Y377618D01*
X365887Y377647D01*
X365669Y377683D01*
X365452Y377723D01*
X365236Y377769D01*
X365021Y377820D01*
X364808Y377876D01*
X364595Y377938D01*
X364385Y378004D01*
X364176Y378076D01*
X363969Y378153D01*
X363764Y378235D01*
X363561Y378322D01*
X363360Y378414D01*
X363161Y378511D01*
X362965Y378613D01*
X362772Y378719D01*
X362581Y378830D01*
X362393Y378946D01*
X362208Y379067D01*
X362026Y379192D01*
X361847Y379321D01*
X361671Y379455D01*
X361498Y379593D01*
X361329Y379735D01*
X361164Y379881D01*
X361002Y380032D01*
X360844Y380186D01*
X360690Y380344D01*
X360539Y380506D01*
X360393Y380671D01*
X360251Y380840D01*
X360113Y381013D01*
X359979Y381189D01*
X359850Y381368D01*
X359725Y381550D01*
X359604Y381735D01*
X359488Y381923D01*
X359377Y382114D01*
X359271Y382307D01*
X359169Y382503D01*
X359072Y382702D01*
X358980Y382903D01*
X358893Y383106D01*
X358811Y383311D01*
X358734Y383518D01*
X358662Y383727D01*
X358596Y383937D01*
X358534Y384150D01*
X358478Y384363D01*
X358427Y384578D01*
X358381Y384794D01*
X358341Y385011D01*
X358305Y385229D01*
X358276Y385448D01*
X358251Y385668D01*
X358232Y385888D01*
X358219Y386108D01*
X358211Y386329D01*
X358208Y386550D01*
X297046Y401050D02*
X258046Y401050D01*
X297046Y401050D02*
X297046Y372050D01*
X258046Y372050D01*
X258046Y401050D01*
X268546Y386550D02*
X268549Y386771D01*
X268557Y386992D01*
X268570Y387212D01*
X268589Y387432D01*
X268614Y387652D01*
X268643Y387871D01*
X268679Y388089D01*
X268719Y388306D01*
X268765Y388522D01*
X268816Y388737D01*
X268872Y388950D01*
X268934Y389163D01*
X269000Y389373D01*
X269072Y389582D01*
X269149Y389789D01*
X269231Y389994D01*
X269318Y390197D01*
X269410Y390398D01*
X269507Y390597D01*
X269609Y390793D01*
X269715Y390986D01*
X269826Y391177D01*
X269942Y391365D01*
X270063Y391550D01*
X270188Y391732D01*
X270317Y391911D01*
X270451Y392087D01*
X270589Y392260D01*
X270731Y392429D01*
X270877Y392594D01*
X271028Y392756D01*
X271182Y392914D01*
X271340Y393068D01*
X271502Y393219D01*
X271667Y393365D01*
X271836Y393507D01*
X272009Y393645D01*
X272185Y393779D01*
X272364Y393908D01*
X272546Y394033D01*
X272731Y394154D01*
X272919Y394270D01*
X273110Y394381D01*
X273303Y394487D01*
X273499Y394589D01*
X273698Y394686D01*
X273899Y394778D01*
X274102Y394865D01*
X274307Y394947D01*
X274514Y395024D01*
X274723Y395096D01*
X274933Y395162D01*
X275146Y395224D01*
X275359Y395280D01*
X275574Y395331D01*
X275790Y395377D01*
X276007Y395417D01*
X276225Y395453D01*
X276444Y395482D01*
X276664Y395507D01*
X276884Y395526D01*
X277104Y395539D01*
X277325Y395547D01*
X277546Y395550D01*
X277767Y395547D01*
X277988Y395539D01*
X278208Y395526D01*
X278428Y395507D01*
X278648Y395482D01*
X278867Y395453D01*
X279085Y395417D01*
X279302Y395377D01*
X279518Y395331D01*
X279733Y395280D01*
X279946Y395224D01*
X280159Y395162D01*
X280369Y395096D01*
X280578Y395024D01*
X280785Y394947D01*
X280990Y394865D01*
X281193Y394778D01*
X281394Y394686D01*
X281593Y394589D01*
X281789Y394487D01*
X281982Y394381D01*
X282173Y394270D01*
X282361Y394154D01*
X282546Y394033D01*
X282728Y393908D01*
X282907Y393779D01*
X283083Y393645D01*
X283256Y393507D01*
X283425Y393365D01*
X283590Y393219D01*
X283752Y393068D01*
X283910Y392914D01*
X284064Y392756D01*
X284215Y392594D01*
X284361Y392429D01*
X284503Y392260D01*
X284641Y392087D01*
X284775Y391911D01*
X284904Y391732D01*
X285029Y391550D01*
X285150Y391365D01*
X285266Y391177D01*
X285377Y390986D01*
X285483Y390793D01*
X285585Y390597D01*
X285682Y390398D01*
X285774Y390197D01*
X285861Y389994D01*
X285943Y389789D01*
X286020Y389582D01*
X286092Y389373D01*
X286158Y389163D01*
X286220Y388950D01*
X286276Y388737D01*
X286327Y388522D01*
X286373Y388306D01*
X286413Y388089D01*
X286449Y387871D01*
X286478Y387652D01*
X286503Y387432D01*
X286522Y387212D01*
X286535Y386992D01*
X286543Y386771D01*
X286546Y386550D01*
X286543Y386329D01*
X286535Y386108D01*
X286522Y385888D01*
X286503Y385668D01*
X286478Y385448D01*
X286449Y385229D01*
X286413Y385011D01*
X286373Y384794D01*
X286327Y384578D01*
X286276Y384363D01*
X286220Y384150D01*
X286158Y383937D01*
X286092Y383727D01*
X286020Y383518D01*
X285943Y383311D01*
X285861Y383106D01*
X285774Y382903D01*
X285682Y382702D01*
X285585Y382503D01*
X285483Y382307D01*
X285377Y382114D01*
X285266Y381923D01*
X285150Y381735D01*
X285029Y381550D01*
X284904Y381368D01*
X284775Y381189D01*
X284641Y381013D01*
X284503Y380840D01*
X284361Y380671D01*
X284215Y380506D01*
X284064Y380344D01*
X283910Y380186D01*
X283752Y380032D01*
X283590Y379881D01*
X283425Y379735D01*
X283256Y379593D01*
X283083Y379455D01*
X282907Y379321D01*
X282728Y379192D01*
X282546Y379067D01*
X282361Y378946D01*
X282173Y378830D01*
X281982Y378719D01*
X281789Y378613D01*
X281593Y378511D01*
X281394Y378414D01*
X281193Y378322D01*
X280990Y378235D01*
X280785Y378153D01*
X280578Y378076D01*
X280369Y378004D01*
X280159Y377938D01*
X279946Y377876D01*
X279733Y377820D01*
X279518Y377769D01*
X279302Y377723D01*
X279085Y377683D01*
X278867Y377647D01*
X278648Y377618D01*
X278428Y377593D01*
X278208Y377574D01*
X277988Y377561D01*
X277767Y377553D01*
X277546Y377550D01*
X277325Y377553D01*
X277104Y377561D01*
X276884Y377574D01*
X276664Y377593D01*
X276444Y377618D01*
X276225Y377647D01*
X276007Y377683D01*
X275790Y377723D01*
X275574Y377769D01*
X275359Y377820D01*
X275146Y377876D01*
X274933Y377938D01*
X274723Y378004D01*
X274514Y378076D01*
X274307Y378153D01*
X274102Y378235D01*
X273899Y378322D01*
X273698Y378414D01*
X273499Y378511D01*
X273303Y378613D01*
X273110Y378719D01*
X272919Y378830D01*
X272731Y378946D01*
X272546Y379067D01*
X272364Y379192D01*
X272185Y379321D01*
X272009Y379455D01*
X271836Y379593D01*
X271667Y379735D01*
X271502Y379881D01*
X271340Y380032D01*
X271182Y380186D01*
X271028Y380344D01*
X270877Y380506D01*
X270731Y380671D01*
X270589Y380840D01*
X270451Y381013D01*
X270317Y381189D01*
X270188Y381368D01*
X270063Y381550D01*
X269942Y381735D01*
X269826Y381923D01*
X269715Y382114D01*
X269609Y382307D01*
X269507Y382503D01*
X269410Y382702D01*
X269318Y382903D01*
X269231Y383106D01*
X269149Y383311D01*
X269072Y383518D01*
X269000Y383727D01*
X268934Y383937D01*
X268872Y384150D01*
X268816Y384363D01*
X268765Y384578D01*
X268719Y384794D01*
X268679Y385011D01*
X268643Y385229D01*
X268614Y385448D01*
X268589Y385668D01*
X268570Y385888D01*
X268557Y386108D01*
X268549Y386329D01*
X268546Y386550D01*
D10*
X335204Y192113D02*
X335273Y192111D01*
X335341Y192106D01*
X335409Y192096D01*
X335477Y192083D01*
X335544Y192067D01*
X335610Y192047D01*
X335674Y192023D01*
X335737Y191996D01*
X335799Y191965D01*
X335859Y191931D01*
X335917Y191894D01*
X335973Y191854D01*
X336026Y191811D01*
X336077Y191765D01*
X336126Y191716D01*
X336172Y191665D01*
X336215Y191612D01*
X336255Y191556D01*
X336292Y191498D01*
X336326Y191438D01*
X336357Y191376D01*
X336384Y191313D01*
X336408Y191249D01*
X336428Y191183D01*
X336444Y191116D01*
X336457Y191048D01*
X336467Y190980D01*
X336472Y190912D01*
X336474Y190843D01*
X336474Y184493D01*
X336472Y184424D01*
X336467Y184356D01*
X336457Y184288D01*
X336444Y184220D01*
X336428Y184153D01*
X336408Y184087D01*
X336384Y184023D01*
X336357Y183960D01*
X336326Y183898D01*
X336292Y183838D01*
X336255Y183780D01*
X336215Y183724D01*
X336172Y183671D01*
X336126Y183620D01*
X336077Y183571D01*
X336026Y183525D01*
X335973Y183482D01*
X335917Y183442D01*
X335859Y183405D01*
X335799Y183371D01*
X335737Y183340D01*
X335674Y183313D01*
X335610Y183289D01*
X335544Y183269D01*
X335477Y183253D01*
X335409Y183240D01*
X335341Y183230D01*
X335273Y183225D01*
X335204Y183223D01*
X319964Y183223D01*
X319895Y183225D01*
X319827Y183230D01*
X319759Y183240D01*
X319691Y183253D01*
X319624Y183269D01*
X319558Y183289D01*
X319494Y183313D01*
X319431Y183340D01*
X319369Y183371D01*
X319309Y183405D01*
X319251Y183442D01*
X319195Y183482D01*
X319142Y183525D01*
X319091Y183571D01*
X319042Y183620D01*
X318996Y183671D01*
X318953Y183724D01*
X318913Y183780D01*
X318876Y183838D01*
X318842Y183898D01*
X318811Y183960D01*
X318784Y184023D01*
X318760Y184087D01*
X318740Y184153D01*
X318724Y184220D01*
X318711Y184288D01*
X318701Y184356D01*
X318696Y184424D01*
X318694Y184493D01*
X318694Y190843D01*
X318696Y190912D01*
X318701Y190980D01*
X318711Y191048D01*
X318724Y191116D01*
X318740Y191183D01*
X318760Y191249D01*
X318784Y191313D01*
X318811Y191376D01*
X318842Y191438D01*
X318876Y191498D01*
X318913Y191556D01*
X318953Y191612D01*
X318996Y191665D01*
X319042Y191716D01*
X319091Y191765D01*
X319142Y191811D01*
X319195Y191854D01*
X319251Y191894D01*
X319309Y191931D01*
X319369Y191965D01*
X319431Y191996D01*
X319494Y192023D01*
X319558Y192047D01*
X319624Y192067D01*
X319691Y192083D01*
X319759Y192096D01*
X319827Y192106D01*
X319895Y192111D01*
X319964Y192113D01*
X335204Y192113D01*
D13*
X306678Y172786D02*
X306678Y161286D01*
X328678Y161286D02*
X328678Y172786D01*
X311178Y161286D02*
X306678Y161286D01*
X324178Y161286D02*
X328678Y161286D01*
D10*
X359715Y437350D02*
X359717Y437419D01*
X359722Y437487D01*
X359732Y437555D01*
X359745Y437623D01*
X359761Y437690D01*
X359781Y437756D01*
X359805Y437820D01*
X359832Y437883D01*
X359863Y437945D01*
X359897Y438005D01*
X359934Y438063D01*
X359974Y438119D01*
X360017Y438172D01*
X360063Y438223D01*
X360112Y438272D01*
X360163Y438318D01*
X360216Y438361D01*
X360272Y438401D01*
X360330Y438438D01*
X360390Y438472D01*
X360452Y438503D01*
X360515Y438530D01*
X360579Y438554D01*
X360645Y438574D01*
X360712Y438590D01*
X360780Y438603D01*
X360848Y438613D01*
X360916Y438618D01*
X360985Y438620D01*
X367335Y438620D01*
X367404Y438618D01*
X367472Y438613D01*
X367540Y438603D01*
X367608Y438590D01*
X367675Y438574D01*
X367741Y438554D01*
X367805Y438530D01*
X367868Y438503D01*
X367930Y438472D01*
X367990Y438438D01*
X368048Y438401D01*
X368104Y438361D01*
X368157Y438318D01*
X368208Y438272D01*
X368257Y438223D01*
X368303Y438172D01*
X368346Y438119D01*
X368386Y438063D01*
X368423Y438005D01*
X368457Y437945D01*
X368488Y437883D01*
X368515Y437820D01*
X368539Y437756D01*
X368559Y437690D01*
X368575Y437623D01*
X368588Y437555D01*
X368598Y437487D01*
X368603Y437419D01*
X368605Y437350D01*
X368605Y422110D01*
X368603Y422041D01*
X368598Y421973D01*
X368588Y421905D01*
X368575Y421837D01*
X368559Y421770D01*
X368539Y421704D01*
X368515Y421640D01*
X368488Y421577D01*
X368457Y421515D01*
X368423Y421455D01*
X368386Y421397D01*
X368346Y421341D01*
X368303Y421288D01*
X368257Y421237D01*
X368208Y421188D01*
X368157Y421142D01*
X368104Y421099D01*
X368048Y421059D01*
X367990Y421022D01*
X367930Y420988D01*
X367868Y420957D01*
X367805Y420930D01*
X367741Y420906D01*
X367675Y420886D01*
X367608Y420870D01*
X367540Y420857D01*
X367472Y420847D01*
X367404Y420842D01*
X367335Y420840D01*
X360985Y420840D01*
X360916Y420842D01*
X360848Y420847D01*
X360780Y420857D01*
X360712Y420870D01*
X360645Y420886D01*
X360579Y420906D01*
X360515Y420930D01*
X360452Y420957D01*
X360390Y420988D01*
X360330Y421022D01*
X360272Y421059D01*
X360216Y421099D01*
X360163Y421142D01*
X360112Y421188D01*
X360063Y421237D01*
X360017Y421288D01*
X359974Y421341D01*
X359934Y421397D01*
X359897Y421455D01*
X359863Y421515D01*
X359832Y421577D01*
X359805Y421640D01*
X359781Y421704D01*
X359761Y421770D01*
X359745Y421837D01*
X359732Y421905D01*
X359722Y421973D01*
X359717Y422041D01*
X359715Y422110D01*
X359715Y437350D01*
X327965Y394424D02*
X327896Y394422D01*
X327828Y394417D01*
X327760Y394407D01*
X327692Y394394D01*
X327625Y394378D01*
X327559Y394358D01*
X327495Y394334D01*
X327432Y394307D01*
X327370Y394276D01*
X327310Y394242D01*
X327252Y394205D01*
X327196Y394165D01*
X327143Y394122D01*
X327092Y394076D01*
X327043Y394027D01*
X326997Y393976D01*
X326954Y393923D01*
X326914Y393867D01*
X326877Y393809D01*
X326843Y393749D01*
X326812Y393687D01*
X326785Y393624D01*
X326761Y393560D01*
X326741Y393494D01*
X326725Y393427D01*
X326712Y393359D01*
X326702Y393291D01*
X326697Y393223D01*
X326695Y393154D01*
X327965Y394424D02*
X334315Y394424D01*
X334384Y394422D01*
X334452Y394417D01*
X334520Y394407D01*
X334588Y394394D01*
X334655Y394378D01*
X334721Y394358D01*
X334785Y394334D01*
X334848Y394307D01*
X334910Y394276D01*
X334970Y394242D01*
X335028Y394205D01*
X335084Y394165D01*
X335137Y394122D01*
X335188Y394076D01*
X335237Y394027D01*
X335283Y393976D01*
X335326Y393923D01*
X335366Y393867D01*
X335403Y393809D01*
X335437Y393749D01*
X335468Y393687D01*
X335495Y393624D01*
X335519Y393560D01*
X335539Y393494D01*
X335555Y393427D01*
X335568Y393359D01*
X335578Y393291D01*
X335583Y393223D01*
X335585Y393154D01*
X335585Y377914D01*
X335583Y377845D01*
X335578Y377777D01*
X335568Y377709D01*
X335555Y377641D01*
X335539Y377574D01*
X335519Y377508D01*
X335495Y377444D01*
X335468Y377381D01*
X335437Y377319D01*
X335403Y377259D01*
X335366Y377201D01*
X335326Y377145D01*
X335283Y377092D01*
X335237Y377041D01*
X335188Y376992D01*
X335137Y376946D01*
X335084Y376903D01*
X335028Y376863D01*
X334970Y376826D01*
X334910Y376792D01*
X334848Y376761D01*
X334785Y376734D01*
X334721Y376710D01*
X334655Y376690D01*
X334588Y376674D01*
X334520Y376661D01*
X334452Y376651D01*
X334384Y376646D01*
X334315Y376644D01*
X327965Y376644D01*
X327896Y376646D01*
X327828Y376651D01*
X327760Y376661D01*
X327692Y376674D01*
X327625Y376690D01*
X327559Y376710D01*
X327495Y376734D01*
X327432Y376761D01*
X327370Y376792D01*
X327310Y376826D01*
X327252Y376863D01*
X327196Y376903D01*
X327143Y376946D01*
X327092Y376992D01*
X327043Y377041D01*
X326997Y377092D01*
X326954Y377145D01*
X326914Y377201D01*
X326877Y377259D01*
X326843Y377319D01*
X326812Y377381D01*
X326785Y377444D01*
X326761Y377508D01*
X326741Y377574D01*
X326725Y377641D01*
X326712Y377709D01*
X326702Y377777D01*
X326697Y377845D01*
X326695Y377914D01*
X326695Y393154D01*
X235636Y417665D02*
X235634Y417734D01*
X235629Y417802D01*
X235619Y417870D01*
X235606Y417938D01*
X235590Y418005D01*
X235570Y418071D01*
X235546Y418135D01*
X235519Y418198D01*
X235488Y418260D01*
X235454Y418320D01*
X235417Y418378D01*
X235377Y418434D01*
X235334Y418487D01*
X235288Y418538D01*
X235239Y418587D01*
X235188Y418633D01*
X235135Y418676D01*
X235079Y418716D01*
X235021Y418753D01*
X234961Y418787D01*
X234899Y418818D01*
X234836Y418845D01*
X234772Y418869D01*
X234706Y418889D01*
X234639Y418905D01*
X234571Y418918D01*
X234503Y418928D01*
X234435Y418933D01*
X234366Y418935D01*
X235636Y417665D02*
X235636Y411315D01*
X235634Y411246D01*
X235629Y411178D01*
X235619Y411110D01*
X235606Y411042D01*
X235590Y410975D01*
X235570Y410909D01*
X235546Y410845D01*
X235519Y410782D01*
X235488Y410720D01*
X235454Y410660D01*
X235417Y410602D01*
X235377Y410546D01*
X235334Y410493D01*
X235288Y410442D01*
X235239Y410393D01*
X235188Y410347D01*
X235135Y410304D01*
X235079Y410264D01*
X235021Y410227D01*
X234961Y410193D01*
X234899Y410162D01*
X234836Y410135D01*
X234772Y410111D01*
X234706Y410091D01*
X234639Y410075D01*
X234571Y410062D01*
X234503Y410052D01*
X234435Y410047D01*
X234366Y410045D01*
X219126Y410045D01*
X219057Y410047D01*
X218989Y410052D01*
X218921Y410062D01*
X218853Y410075D01*
X218786Y410091D01*
X218720Y410111D01*
X218656Y410135D01*
X218593Y410162D01*
X218531Y410193D01*
X218471Y410227D01*
X218413Y410264D01*
X218357Y410304D01*
X218304Y410347D01*
X218253Y410393D01*
X218204Y410442D01*
X218158Y410493D01*
X218115Y410546D01*
X218075Y410602D01*
X218038Y410660D01*
X218004Y410720D01*
X217973Y410782D01*
X217946Y410845D01*
X217922Y410909D01*
X217902Y410975D01*
X217886Y411042D01*
X217873Y411110D01*
X217863Y411178D01*
X217858Y411246D01*
X217856Y411315D01*
X217856Y417665D01*
X217858Y417734D01*
X217863Y417802D01*
X217873Y417870D01*
X217886Y417938D01*
X217902Y418005D01*
X217922Y418071D01*
X217946Y418135D01*
X217973Y418198D01*
X218004Y418260D01*
X218038Y418320D01*
X218075Y418378D01*
X218115Y418434D01*
X218158Y418487D01*
X218204Y418538D01*
X218253Y418587D01*
X218304Y418633D01*
X218357Y418676D01*
X218413Y418716D01*
X218471Y418753D01*
X218531Y418787D01*
X218593Y418818D01*
X218656Y418845D01*
X218720Y418869D01*
X218786Y418889D01*
X218853Y418905D01*
X218921Y418918D01*
X218989Y418928D01*
X219057Y418933D01*
X219126Y418935D01*
X234366Y418935D01*
X235636Y428079D02*
X235634Y428148D01*
X235629Y428216D01*
X235619Y428284D01*
X235606Y428352D01*
X235590Y428419D01*
X235570Y428485D01*
X235546Y428549D01*
X235519Y428612D01*
X235488Y428674D01*
X235454Y428734D01*
X235417Y428792D01*
X235377Y428848D01*
X235334Y428901D01*
X235288Y428952D01*
X235239Y429001D01*
X235188Y429047D01*
X235135Y429090D01*
X235079Y429130D01*
X235021Y429167D01*
X234961Y429201D01*
X234899Y429232D01*
X234836Y429259D01*
X234772Y429283D01*
X234706Y429303D01*
X234639Y429319D01*
X234571Y429332D01*
X234503Y429342D01*
X234435Y429347D01*
X234366Y429349D01*
X235636Y428079D02*
X235636Y421729D01*
X235634Y421660D01*
X235629Y421592D01*
X235619Y421524D01*
X235606Y421456D01*
X235590Y421389D01*
X235570Y421323D01*
X235546Y421259D01*
X235519Y421196D01*
X235488Y421134D01*
X235454Y421074D01*
X235417Y421016D01*
X235377Y420960D01*
X235334Y420907D01*
X235288Y420856D01*
X235239Y420807D01*
X235188Y420761D01*
X235135Y420718D01*
X235079Y420678D01*
X235021Y420641D01*
X234961Y420607D01*
X234899Y420576D01*
X234836Y420549D01*
X234772Y420525D01*
X234706Y420505D01*
X234639Y420489D01*
X234571Y420476D01*
X234503Y420466D01*
X234435Y420461D01*
X234366Y420459D01*
X219126Y420459D01*
X219057Y420461D01*
X218989Y420466D01*
X218921Y420476D01*
X218853Y420489D01*
X218786Y420505D01*
X218720Y420525D01*
X218656Y420549D01*
X218593Y420576D01*
X218531Y420607D01*
X218471Y420641D01*
X218413Y420678D01*
X218357Y420718D01*
X218304Y420761D01*
X218253Y420807D01*
X218204Y420856D01*
X218158Y420907D01*
X218115Y420960D01*
X218075Y421016D01*
X218038Y421074D01*
X218004Y421134D01*
X217973Y421196D01*
X217946Y421259D01*
X217922Y421323D01*
X217902Y421389D01*
X217886Y421456D01*
X217873Y421524D01*
X217863Y421592D01*
X217858Y421660D01*
X217856Y421729D01*
X217856Y428079D01*
X217858Y428148D01*
X217863Y428216D01*
X217873Y428284D01*
X217886Y428352D01*
X217902Y428419D01*
X217922Y428485D01*
X217946Y428549D01*
X217973Y428612D01*
X218004Y428674D01*
X218038Y428734D01*
X218075Y428792D01*
X218115Y428848D01*
X218158Y428901D01*
X218204Y428952D01*
X218253Y429001D01*
X218304Y429047D01*
X218357Y429090D01*
X218413Y429130D01*
X218471Y429167D01*
X218531Y429201D01*
X218593Y429232D01*
X218656Y429259D01*
X218720Y429283D01*
X218786Y429303D01*
X218853Y429319D01*
X218921Y429332D01*
X218989Y429342D01*
X219057Y429347D01*
X219126Y429349D01*
X234366Y429349D01*
X238049Y367754D02*
X237980Y367752D01*
X237912Y367747D01*
X237844Y367737D01*
X237776Y367724D01*
X237709Y367708D01*
X237643Y367688D01*
X237579Y367664D01*
X237516Y367637D01*
X237454Y367606D01*
X237394Y367572D01*
X237336Y367535D01*
X237280Y367495D01*
X237227Y367452D01*
X237176Y367406D01*
X237127Y367357D01*
X237081Y367306D01*
X237038Y367253D01*
X236998Y367197D01*
X236961Y367139D01*
X236927Y367079D01*
X236896Y367017D01*
X236869Y366954D01*
X236845Y366890D01*
X236825Y366824D01*
X236809Y366757D01*
X236796Y366689D01*
X236786Y366621D01*
X236781Y366553D01*
X236779Y366484D01*
X238049Y367754D02*
X244399Y367754D01*
X244468Y367752D01*
X244536Y367747D01*
X244604Y367737D01*
X244672Y367724D01*
X244739Y367708D01*
X244805Y367688D01*
X244869Y367664D01*
X244932Y367637D01*
X244994Y367606D01*
X245054Y367572D01*
X245112Y367535D01*
X245168Y367495D01*
X245221Y367452D01*
X245272Y367406D01*
X245321Y367357D01*
X245367Y367306D01*
X245410Y367253D01*
X245450Y367197D01*
X245487Y367139D01*
X245521Y367079D01*
X245552Y367017D01*
X245579Y366954D01*
X245603Y366890D01*
X245623Y366824D01*
X245639Y366757D01*
X245652Y366689D01*
X245662Y366621D01*
X245667Y366553D01*
X245669Y366484D01*
X245669Y351244D01*
X245667Y351175D01*
X245662Y351107D01*
X245652Y351039D01*
X245639Y350971D01*
X245623Y350904D01*
X245603Y350838D01*
X245579Y350774D01*
X245552Y350711D01*
X245521Y350649D01*
X245487Y350589D01*
X245450Y350531D01*
X245410Y350475D01*
X245367Y350422D01*
X245321Y350371D01*
X245272Y350322D01*
X245221Y350276D01*
X245168Y350233D01*
X245112Y350193D01*
X245054Y350156D01*
X244994Y350122D01*
X244932Y350091D01*
X244869Y350064D01*
X244805Y350040D01*
X244739Y350020D01*
X244672Y350004D01*
X244604Y349991D01*
X244536Y349981D01*
X244468Y349976D01*
X244399Y349974D01*
X238049Y349974D01*
X237980Y349976D01*
X237912Y349981D01*
X237844Y349991D01*
X237776Y350004D01*
X237709Y350020D01*
X237643Y350040D01*
X237579Y350064D01*
X237516Y350091D01*
X237454Y350122D01*
X237394Y350156D01*
X237336Y350193D01*
X237280Y350233D01*
X237227Y350276D01*
X237176Y350322D01*
X237127Y350371D01*
X237081Y350422D01*
X237038Y350475D01*
X236998Y350531D01*
X236961Y350589D01*
X236927Y350649D01*
X236896Y350711D01*
X236869Y350774D01*
X236845Y350838D01*
X236825Y350904D01*
X236809Y350971D01*
X236796Y351039D01*
X236786Y351107D01*
X236781Y351175D01*
X236779Y351244D01*
X236779Y366484D01*
X174295Y308064D02*
X174226Y308062D01*
X174158Y308057D01*
X174090Y308047D01*
X174022Y308034D01*
X173955Y308018D01*
X173889Y307998D01*
X173825Y307974D01*
X173762Y307947D01*
X173700Y307916D01*
X173640Y307882D01*
X173582Y307845D01*
X173526Y307805D01*
X173473Y307762D01*
X173422Y307716D01*
X173373Y307667D01*
X173327Y307616D01*
X173284Y307563D01*
X173244Y307507D01*
X173207Y307449D01*
X173173Y307389D01*
X173142Y307327D01*
X173115Y307264D01*
X173091Y307200D01*
X173071Y307134D01*
X173055Y307067D01*
X173042Y306999D01*
X173032Y306931D01*
X173027Y306863D01*
X173025Y306794D01*
X174295Y308064D02*
X180645Y308064D01*
X180714Y308062D01*
X180782Y308057D01*
X180850Y308047D01*
X180918Y308034D01*
X180985Y308018D01*
X181051Y307998D01*
X181115Y307974D01*
X181178Y307947D01*
X181240Y307916D01*
X181300Y307882D01*
X181358Y307845D01*
X181414Y307805D01*
X181467Y307762D01*
X181518Y307716D01*
X181567Y307667D01*
X181613Y307616D01*
X181656Y307563D01*
X181696Y307507D01*
X181733Y307449D01*
X181767Y307389D01*
X181798Y307327D01*
X181825Y307264D01*
X181849Y307200D01*
X181869Y307134D01*
X181885Y307067D01*
X181898Y306999D01*
X181908Y306931D01*
X181913Y306863D01*
X181915Y306794D01*
X181915Y291554D01*
X181913Y291485D01*
X181908Y291417D01*
X181898Y291349D01*
X181885Y291281D01*
X181869Y291214D01*
X181849Y291148D01*
X181825Y291084D01*
X181798Y291021D01*
X181767Y290959D01*
X181733Y290899D01*
X181696Y290841D01*
X181656Y290785D01*
X181613Y290732D01*
X181567Y290681D01*
X181518Y290632D01*
X181467Y290586D01*
X181414Y290543D01*
X181358Y290503D01*
X181300Y290466D01*
X181240Y290432D01*
X181178Y290401D01*
X181115Y290374D01*
X181051Y290350D01*
X180985Y290330D01*
X180918Y290314D01*
X180850Y290301D01*
X180782Y290291D01*
X180714Y290286D01*
X180645Y290284D01*
X174295Y290284D01*
X174226Y290286D01*
X174158Y290291D01*
X174090Y290301D01*
X174022Y290314D01*
X173955Y290330D01*
X173889Y290350D01*
X173825Y290374D01*
X173762Y290401D01*
X173700Y290432D01*
X173640Y290466D01*
X173582Y290503D01*
X173526Y290543D01*
X173473Y290586D01*
X173422Y290632D01*
X173373Y290681D01*
X173327Y290732D01*
X173284Y290785D01*
X173244Y290841D01*
X173207Y290899D01*
X173173Y290959D01*
X173142Y291021D01*
X173115Y291084D01*
X173091Y291148D01*
X173071Y291214D01*
X173055Y291281D01*
X173042Y291349D01*
X173032Y291417D01*
X173027Y291485D01*
X173025Y291554D01*
X173025Y306794D01*
X175946Y155537D02*
X175948Y155468D01*
X175953Y155400D01*
X175963Y155332D01*
X175976Y155264D01*
X175992Y155197D01*
X176012Y155131D01*
X176036Y155067D01*
X176063Y155004D01*
X176094Y154942D01*
X176128Y154882D01*
X176165Y154824D01*
X176205Y154768D01*
X176248Y154715D01*
X176294Y154664D01*
X176343Y154615D01*
X176394Y154569D01*
X176447Y154526D01*
X176503Y154486D01*
X176561Y154449D01*
X176621Y154415D01*
X176683Y154384D01*
X176746Y154357D01*
X176810Y154333D01*
X176876Y154313D01*
X176943Y154297D01*
X177011Y154284D01*
X177079Y154274D01*
X177147Y154269D01*
X177216Y154267D01*
X175946Y155537D02*
X175946Y161887D01*
X175948Y161956D01*
X175953Y162024D01*
X175963Y162092D01*
X175976Y162160D01*
X175992Y162227D01*
X176012Y162293D01*
X176036Y162357D01*
X176063Y162420D01*
X176094Y162482D01*
X176128Y162542D01*
X176165Y162600D01*
X176205Y162656D01*
X176248Y162709D01*
X176294Y162760D01*
X176343Y162809D01*
X176394Y162855D01*
X176447Y162898D01*
X176503Y162938D01*
X176561Y162975D01*
X176621Y163009D01*
X176683Y163040D01*
X176746Y163067D01*
X176810Y163091D01*
X176876Y163111D01*
X176943Y163127D01*
X177011Y163140D01*
X177079Y163150D01*
X177147Y163155D01*
X177216Y163157D01*
X192456Y163157D01*
X192525Y163155D01*
X192593Y163150D01*
X192661Y163140D01*
X192729Y163127D01*
X192796Y163111D01*
X192862Y163091D01*
X192926Y163067D01*
X192989Y163040D01*
X193051Y163009D01*
X193111Y162975D01*
X193169Y162938D01*
X193225Y162898D01*
X193278Y162855D01*
X193329Y162809D01*
X193378Y162760D01*
X193424Y162709D01*
X193467Y162656D01*
X193507Y162600D01*
X193544Y162542D01*
X193578Y162482D01*
X193609Y162420D01*
X193636Y162357D01*
X193660Y162293D01*
X193680Y162227D01*
X193696Y162160D01*
X193709Y162092D01*
X193719Y162024D01*
X193724Y161956D01*
X193726Y161887D01*
X193726Y155537D01*
X193724Y155468D01*
X193719Y155400D01*
X193709Y155332D01*
X193696Y155264D01*
X193680Y155197D01*
X193660Y155131D01*
X193636Y155067D01*
X193609Y155004D01*
X193578Y154942D01*
X193544Y154882D01*
X193507Y154824D01*
X193467Y154768D01*
X193424Y154715D01*
X193378Y154664D01*
X193329Y154615D01*
X193278Y154569D01*
X193225Y154526D01*
X193169Y154486D01*
X193111Y154449D01*
X193051Y154415D01*
X192989Y154384D01*
X192926Y154357D01*
X192862Y154333D01*
X192796Y154313D01*
X192729Y154297D01*
X192661Y154284D01*
X192593Y154274D01*
X192525Y154269D01*
X192456Y154267D01*
X177216Y154267D01*
X316535Y393154D02*
X316537Y393223D01*
X316542Y393291D01*
X316552Y393359D01*
X316565Y393427D01*
X316581Y393494D01*
X316601Y393560D01*
X316625Y393624D01*
X316652Y393687D01*
X316683Y393749D01*
X316717Y393809D01*
X316754Y393867D01*
X316794Y393923D01*
X316837Y393976D01*
X316883Y394027D01*
X316932Y394076D01*
X316983Y394122D01*
X317036Y394165D01*
X317092Y394205D01*
X317150Y394242D01*
X317210Y394276D01*
X317272Y394307D01*
X317335Y394334D01*
X317399Y394358D01*
X317465Y394378D01*
X317532Y394394D01*
X317600Y394407D01*
X317668Y394417D01*
X317736Y394422D01*
X317805Y394424D01*
X324155Y394424D01*
X324224Y394422D01*
X324292Y394417D01*
X324360Y394407D01*
X324428Y394394D01*
X324495Y394378D01*
X324561Y394358D01*
X324625Y394334D01*
X324688Y394307D01*
X324750Y394276D01*
X324810Y394242D01*
X324868Y394205D01*
X324924Y394165D01*
X324977Y394122D01*
X325028Y394076D01*
X325077Y394027D01*
X325123Y393976D01*
X325166Y393923D01*
X325206Y393867D01*
X325243Y393809D01*
X325277Y393749D01*
X325308Y393687D01*
X325335Y393624D01*
X325359Y393560D01*
X325379Y393494D01*
X325395Y393427D01*
X325408Y393359D01*
X325418Y393291D01*
X325423Y393223D01*
X325425Y393154D01*
X325425Y377914D01*
X325423Y377845D01*
X325418Y377777D01*
X325408Y377709D01*
X325395Y377641D01*
X325379Y377574D01*
X325359Y377508D01*
X325335Y377444D01*
X325308Y377381D01*
X325277Y377319D01*
X325243Y377259D01*
X325206Y377201D01*
X325166Y377145D01*
X325123Y377092D01*
X325077Y377041D01*
X325028Y376992D01*
X324977Y376946D01*
X324924Y376903D01*
X324868Y376863D01*
X324810Y376826D01*
X324750Y376792D01*
X324688Y376761D01*
X324625Y376734D01*
X324561Y376710D01*
X324495Y376690D01*
X324428Y376674D01*
X324360Y376661D01*
X324292Y376651D01*
X324224Y376646D01*
X324155Y376644D01*
X317805Y376644D01*
X317736Y376646D01*
X317668Y376651D01*
X317600Y376661D01*
X317532Y376674D01*
X317465Y376690D01*
X317399Y376710D01*
X317335Y376734D01*
X317272Y376761D01*
X317210Y376792D01*
X317150Y376826D01*
X317092Y376863D01*
X317036Y376903D01*
X316983Y376946D01*
X316932Y376992D01*
X316883Y377041D01*
X316837Y377092D01*
X316794Y377145D01*
X316754Y377201D01*
X316717Y377259D01*
X316683Y377319D01*
X316652Y377381D01*
X316625Y377444D01*
X316601Y377508D01*
X316581Y377574D01*
X316565Y377641D01*
X316552Y377709D01*
X316542Y377777D01*
X316537Y377845D01*
X316535Y377914D01*
X316535Y393154D01*
X172263Y367246D02*
X172194Y367244D01*
X172126Y367239D01*
X172058Y367229D01*
X171990Y367216D01*
X171923Y367200D01*
X171857Y367180D01*
X171793Y367156D01*
X171730Y367129D01*
X171668Y367098D01*
X171608Y367064D01*
X171550Y367027D01*
X171494Y366987D01*
X171441Y366944D01*
X171390Y366898D01*
X171341Y366849D01*
X171295Y366798D01*
X171252Y366745D01*
X171212Y366689D01*
X171175Y366631D01*
X171141Y366571D01*
X171110Y366509D01*
X171083Y366446D01*
X171059Y366382D01*
X171039Y366316D01*
X171023Y366249D01*
X171010Y366181D01*
X171000Y366113D01*
X170995Y366045D01*
X170993Y365976D01*
X172263Y367246D02*
X178613Y367246D01*
X178682Y367244D01*
X178750Y367239D01*
X178818Y367229D01*
X178886Y367216D01*
X178953Y367200D01*
X179019Y367180D01*
X179083Y367156D01*
X179146Y367129D01*
X179208Y367098D01*
X179268Y367064D01*
X179326Y367027D01*
X179382Y366987D01*
X179435Y366944D01*
X179486Y366898D01*
X179535Y366849D01*
X179581Y366798D01*
X179624Y366745D01*
X179664Y366689D01*
X179701Y366631D01*
X179735Y366571D01*
X179766Y366509D01*
X179793Y366446D01*
X179817Y366382D01*
X179837Y366316D01*
X179853Y366249D01*
X179866Y366181D01*
X179876Y366113D01*
X179881Y366045D01*
X179883Y365976D01*
X179883Y350736D01*
X179881Y350667D01*
X179876Y350599D01*
X179866Y350531D01*
X179853Y350463D01*
X179837Y350396D01*
X179817Y350330D01*
X179793Y350266D01*
X179766Y350203D01*
X179735Y350141D01*
X179701Y350081D01*
X179664Y350023D01*
X179624Y349967D01*
X179581Y349914D01*
X179535Y349863D01*
X179486Y349814D01*
X179435Y349768D01*
X179382Y349725D01*
X179326Y349685D01*
X179268Y349648D01*
X179208Y349614D01*
X179146Y349583D01*
X179083Y349556D01*
X179019Y349532D01*
X178953Y349512D01*
X178886Y349496D01*
X178818Y349483D01*
X178750Y349473D01*
X178682Y349468D01*
X178613Y349466D01*
X172263Y349466D01*
X172194Y349468D01*
X172126Y349473D01*
X172058Y349483D01*
X171990Y349496D01*
X171923Y349512D01*
X171857Y349532D01*
X171793Y349556D01*
X171730Y349583D01*
X171668Y349614D01*
X171608Y349648D01*
X171550Y349685D01*
X171494Y349725D01*
X171441Y349768D01*
X171390Y349814D01*
X171341Y349863D01*
X171295Y349914D01*
X171252Y349967D01*
X171212Y350023D01*
X171175Y350081D01*
X171141Y350141D01*
X171110Y350203D01*
X171083Y350266D01*
X171059Y350330D01*
X171039Y350396D01*
X171023Y350463D01*
X171010Y350531D01*
X171000Y350599D01*
X170995Y350667D01*
X170993Y350736D01*
X170993Y365976D01*
X332156Y174079D02*
X332158Y174010D01*
X332163Y173942D01*
X332173Y173874D01*
X332186Y173806D01*
X332202Y173739D01*
X332222Y173673D01*
X332246Y173609D01*
X332273Y173546D01*
X332304Y173484D01*
X332338Y173424D01*
X332375Y173366D01*
X332415Y173310D01*
X332458Y173257D01*
X332504Y173206D01*
X332553Y173157D01*
X332604Y173111D01*
X332657Y173068D01*
X332713Y173028D01*
X332771Y172991D01*
X332831Y172957D01*
X332893Y172926D01*
X332956Y172899D01*
X333020Y172875D01*
X333086Y172855D01*
X333153Y172839D01*
X333221Y172826D01*
X333289Y172816D01*
X333357Y172811D01*
X333426Y172809D01*
X332156Y174079D02*
X332156Y180429D01*
X332158Y180498D01*
X332163Y180566D01*
X332173Y180634D01*
X332186Y180702D01*
X332202Y180769D01*
X332222Y180835D01*
X332246Y180899D01*
X332273Y180962D01*
X332304Y181024D01*
X332338Y181084D01*
X332375Y181142D01*
X332415Y181198D01*
X332458Y181251D01*
X332504Y181302D01*
X332553Y181351D01*
X332604Y181397D01*
X332657Y181440D01*
X332713Y181480D01*
X332771Y181517D01*
X332831Y181551D01*
X332893Y181582D01*
X332956Y181609D01*
X333020Y181633D01*
X333086Y181653D01*
X333153Y181669D01*
X333221Y181682D01*
X333289Y181692D01*
X333357Y181697D01*
X333426Y181699D01*
X348666Y181699D01*
X348735Y181697D01*
X348803Y181692D01*
X348871Y181682D01*
X348939Y181669D01*
X349006Y181653D01*
X349072Y181633D01*
X349136Y181609D01*
X349199Y181582D01*
X349261Y181551D01*
X349321Y181517D01*
X349379Y181480D01*
X349435Y181440D01*
X349488Y181397D01*
X349539Y181351D01*
X349588Y181302D01*
X349634Y181251D01*
X349677Y181198D01*
X349717Y181142D01*
X349754Y181084D01*
X349788Y181024D01*
X349819Y180962D01*
X349846Y180899D01*
X349870Y180835D01*
X349890Y180769D01*
X349906Y180702D01*
X349919Y180634D01*
X349929Y180566D01*
X349934Y180498D01*
X349936Y180429D01*
X349936Y174079D01*
X349934Y174010D01*
X349929Y173942D01*
X349919Y173874D01*
X349906Y173806D01*
X349890Y173739D01*
X349870Y173673D01*
X349846Y173609D01*
X349819Y173546D01*
X349788Y173484D01*
X349754Y173424D01*
X349717Y173366D01*
X349677Y173310D01*
X349634Y173257D01*
X349588Y173206D01*
X349539Y173157D01*
X349488Y173111D01*
X349435Y173068D01*
X349379Y173028D01*
X349321Y172991D01*
X349261Y172957D01*
X349199Y172926D01*
X349136Y172899D01*
X349072Y172875D01*
X349006Y172855D01*
X348939Y172839D01*
X348871Y172826D01*
X348803Y172816D01*
X348735Y172811D01*
X348666Y172809D01*
X333426Y172809D01*
X224968Y162649D02*
X224966Y162718D01*
X224961Y162786D01*
X224951Y162854D01*
X224938Y162922D01*
X224922Y162989D01*
X224902Y163055D01*
X224878Y163119D01*
X224851Y163182D01*
X224820Y163244D01*
X224786Y163304D01*
X224749Y163362D01*
X224709Y163418D01*
X224666Y163471D01*
X224620Y163522D01*
X224571Y163571D01*
X224520Y163617D01*
X224467Y163660D01*
X224411Y163700D01*
X224353Y163737D01*
X224293Y163771D01*
X224231Y163802D01*
X224168Y163829D01*
X224104Y163853D01*
X224038Y163873D01*
X223971Y163889D01*
X223903Y163902D01*
X223835Y163912D01*
X223767Y163917D01*
X223698Y163919D01*
X224968Y162649D02*
X224968Y156299D01*
X224966Y156230D01*
X224961Y156162D01*
X224951Y156094D01*
X224938Y156026D01*
X224922Y155959D01*
X224902Y155893D01*
X224878Y155829D01*
X224851Y155766D01*
X224820Y155704D01*
X224786Y155644D01*
X224749Y155586D01*
X224709Y155530D01*
X224666Y155477D01*
X224620Y155426D01*
X224571Y155377D01*
X224520Y155331D01*
X224467Y155288D01*
X224411Y155248D01*
X224353Y155211D01*
X224293Y155177D01*
X224231Y155146D01*
X224168Y155119D01*
X224104Y155095D01*
X224038Y155075D01*
X223971Y155059D01*
X223903Y155046D01*
X223835Y155036D01*
X223767Y155031D01*
X223698Y155029D01*
X208458Y155029D01*
X208389Y155031D01*
X208321Y155036D01*
X208253Y155046D01*
X208185Y155059D01*
X208118Y155075D01*
X208052Y155095D01*
X207988Y155119D01*
X207925Y155146D01*
X207863Y155177D01*
X207803Y155211D01*
X207745Y155248D01*
X207689Y155288D01*
X207636Y155331D01*
X207585Y155377D01*
X207536Y155426D01*
X207490Y155477D01*
X207447Y155530D01*
X207407Y155586D01*
X207370Y155644D01*
X207336Y155704D01*
X207305Y155766D01*
X207278Y155829D01*
X207254Y155893D01*
X207234Y155959D01*
X207218Y156026D01*
X207205Y156094D01*
X207195Y156162D01*
X207190Y156230D01*
X207188Y156299D01*
X207188Y162649D01*
X207190Y162718D01*
X207195Y162786D01*
X207205Y162854D01*
X207218Y162922D01*
X207234Y162989D01*
X207254Y163055D01*
X207278Y163119D01*
X207305Y163182D01*
X207336Y163244D01*
X207370Y163304D01*
X207407Y163362D01*
X207447Y163418D01*
X207490Y163471D01*
X207536Y163522D01*
X207585Y163571D01*
X207636Y163617D01*
X207689Y163660D01*
X207745Y163700D01*
X207803Y163737D01*
X207863Y163771D01*
X207925Y163802D01*
X207988Y163829D01*
X208052Y163853D01*
X208118Y163873D01*
X208185Y163889D01*
X208253Y163902D01*
X208321Y163912D01*
X208389Y163917D01*
X208458Y163919D01*
X223698Y163919D01*
X349047Y437350D02*
X349049Y437419D01*
X349054Y437487D01*
X349064Y437555D01*
X349077Y437623D01*
X349093Y437690D01*
X349113Y437756D01*
X349137Y437820D01*
X349164Y437883D01*
X349195Y437945D01*
X349229Y438005D01*
X349266Y438063D01*
X349306Y438119D01*
X349349Y438172D01*
X349395Y438223D01*
X349444Y438272D01*
X349495Y438318D01*
X349548Y438361D01*
X349604Y438401D01*
X349662Y438438D01*
X349722Y438472D01*
X349784Y438503D01*
X349847Y438530D01*
X349911Y438554D01*
X349977Y438574D01*
X350044Y438590D01*
X350112Y438603D01*
X350180Y438613D01*
X350248Y438618D01*
X350317Y438620D01*
X356667Y438620D01*
X356736Y438618D01*
X356804Y438613D01*
X356872Y438603D01*
X356940Y438590D01*
X357007Y438574D01*
X357073Y438554D01*
X357137Y438530D01*
X357200Y438503D01*
X357262Y438472D01*
X357322Y438438D01*
X357380Y438401D01*
X357436Y438361D01*
X357489Y438318D01*
X357540Y438272D01*
X357589Y438223D01*
X357635Y438172D01*
X357678Y438119D01*
X357718Y438063D01*
X357755Y438005D01*
X357789Y437945D01*
X357820Y437883D01*
X357847Y437820D01*
X357871Y437756D01*
X357891Y437690D01*
X357907Y437623D01*
X357920Y437555D01*
X357930Y437487D01*
X357935Y437419D01*
X357937Y437350D01*
X357937Y422110D01*
X357935Y422041D01*
X357930Y421973D01*
X357920Y421905D01*
X357907Y421837D01*
X357891Y421770D01*
X357871Y421704D01*
X357847Y421640D01*
X357820Y421577D01*
X357789Y421515D01*
X357755Y421455D01*
X357718Y421397D01*
X357678Y421341D01*
X357635Y421288D01*
X357589Y421237D01*
X357540Y421188D01*
X357489Y421142D01*
X357436Y421099D01*
X357380Y421059D01*
X357322Y421022D01*
X357262Y420988D01*
X357200Y420957D01*
X357137Y420930D01*
X357073Y420906D01*
X357007Y420886D01*
X356940Y420870D01*
X356872Y420857D01*
X356804Y420847D01*
X356736Y420842D01*
X356667Y420840D01*
X350317Y420840D01*
X350248Y420842D01*
X350180Y420847D01*
X350112Y420857D01*
X350044Y420870D01*
X349977Y420886D01*
X349911Y420906D01*
X349847Y420930D01*
X349784Y420957D01*
X349722Y420988D01*
X349662Y421022D01*
X349604Y421059D01*
X349548Y421099D01*
X349495Y421142D01*
X349444Y421188D01*
X349395Y421237D01*
X349349Y421288D01*
X349306Y421341D01*
X349266Y421397D01*
X349229Y421455D01*
X349195Y421515D01*
X349164Y421577D01*
X349137Y421640D01*
X349113Y421704D01*
X349093Y421770D01*
X349077Y421837D01*
X349064Y421905D01*
X349054Y421973D01*
X349049Y422041D01*
X349047Y422110D01*
X349047Y437350D01*
X164135Y308064D02*
X164066Y308062D01*
X163998Y308057D01*
X163930Y308047D01*
X163862Y308034D01*
X163795Y308018D01*
X163729Y307998D01*
X163665Y307974D01*
X163602Y307947D01*
X163540Y307916D01*
X163480Y307882D01*
X163422Y307845D01*
X163366Y307805D01*
X163313Y307762D01*
X163262Y307716D01*
X163213Y307667D01*
X163167Y307616D01*
X163124Y307563D01*
X163084Y307507D01*
X163047Y307449D01*
X163013Y307389D01*
X162982Y307327D01*
X162955Y307264D01*
X162931Y307200D01*
X162911Y307134D01*
X162895Y307067D01*
X162882Y306999D01*
X162872Y306931D01*
X162867Y306863D01*
X162865Y306794D01*
X164135Y308064D02*
X170485Y308064D01*
X170554Y308062D01*
X170622Y308057D01*
X170690Y308047D01*
X170758Y308034D01*
X170825Y308018D01*
X170891Y307998D01*
X170955Y307974D01*
X171018Y307947D01*
X171080Y307916D01*
X171140Y307882D01*
X171198Y307845D01*
X171254Y307805D01*
X171307Y307762D01*
X171358Y307716D01*
X171407Y307667D01*
X171453Y307616D01*
X171496Y307563D01*
X171536Y307507D01*
X171573Y307449D01*
X171607Y307389D01*
X171638Y307327D01*
X171665Y307264D01*
X171689Y307200D01*
X171709Y307134D01*
X171725Y307067D01*
X171738Y306999D01*
X171748Y306931D01*
X171753Y306863D01*
X171755Y306794D01*
X171755Y291554D01*
X171753Y291485D01*
X171748Y291417D01*
X171738Y291349D01*
X171725Y291281D01*
X171709Y291214D01*
X171689Y291148D01*
X171665Y291084D01*
X171638Y291021D01*
X171607Y290959D01*
X171573Y290899D01*
X171536Y290841D01*
X171496Y290785D01*
X171453Y290732D01*
X171407Y290681D01*
X171358Y290632D01*
X171307Y290586D01*
X171254Y290543D01*
X171198Y290503D01*
X171140Y290466D01*
X171080Y290432D01*
X171018Y290401D01*
X170955Y290374D01*
X170891Y290350D01*
X170825Y290330D01*
X170758Y290314D01*
X170690Y290301D01*
X170622Y290291D01*
X170554Y290286D01*
X170485Y290284D01*
X164135Y290284D01*
X164066Y290286D01*
X163998Y290291D01*
X163930Y290301D01*
X163862Y290314D01*
X163795Y290330D01*
X163729Y290350D01*
X163665Y290374D01*
X163602Y290401D01*
X163540Y290432D01*
X163480Y290466D01*
X163422Y290503D01*
X163366Y290543D01*
X163313Y290586D01*
X163262Y290632D01*
X163213Y290681D01*
X163167Y290732D01*
X163124Y290785D01*
X163084Y290841D01*
X163047Y290899D01*
X163013Y290959D01*
X162982Y291021D01*
X162955Y291084D01*
X162931Y291148D01*
X162911Y291214D01*
X162895Y291281D01*
X162882Y291349D01*
X162872Y291417D01*
X162867Y291485D01*
X162865Y291554D01*
X162865Y306794D01*
X365684Y366611D02*
X365753Y366609D01*
X365821Y366604D01*
X365889Y366594D01*
X365957Y366581D01*
X366024Y366565D01*
X366090Y366545D01*
X366154Y366521D01*
X366217Y366494D01*
X366279Y366463D01*
X366339Y366429D01*
X366397Y366392D01*
X366453Y366352D01*
X366506Y366309D01*
X366557Y366263D01*
X366606Y366214D01*
X366652Y366163D01*
X366695Y366110D01*
X366735Y366054D01*
X366772Y365996D01*
X366806Y365936D01*
X366837Y365874D01*
X366864Y365811D01*
X366888Y365747D01*
X366908Y365681D01*
X366924Y365614D01*
X366937Y365546D01*
X366947Y365478D01*
X366952Y365410D01*
X366954Y365341D01*
X366954Y358991D01*
X366952Y358922D01*
X366947Y358854D01*
X366937Y358786D01*
X366924Y358718D01*
X366908Y358651D01*
X366888Y358585D01*
X366864Y358521D01*
X366837Y358458D01*
X366806Y358396D01*
X366772Y358336D01*
X366735Y358278D01*
X366695Y358222D01*
X366652Y358169D01*
X366606Y358118D01*
X366557Y358069D01*
X366506Y358023D01*
X366453Y357980D01*
X366397Y357940D01*
X366339Y357903D01*
X366279Y357869D01*
X366217Y357838D01*
X366154Y357811D01*
X366090Y357787D01*
X366024Y357767D01*
X365957Y357751D01*
X365889Y357738D01*
X365821Y357728D01*
X365753Y357723D01*
X365684Y357721D01*
X350444Y357721D01*
X350375Y357723D01*
X350307Y357728D01*
X350239Y357738D01*
X350171Y357751D01*
X350104Y357767D01*
X350038Y357787D01*
X349974Y357811D01*
X349911Y357838D01*
X349849Y357869D01*
X349789Y357903D01*
X349731Y357940D01*
X349675Y357980D01*
X349622Y358023D01*
X349571Y358069D01*
X349522Y358118D01*
X349476Y358169D01*
X349433Y358222D01*
X349393Y358278D01*
X349356Y358336D01*
X349322Y358396D01*
X349291Y358458D01*
X349264Y358521D01*
X349240Y358585D01*
X349220Y358651D01*
X349204Y358718D01*
X349191Y358786D01*
X349181Y358854D01*
X349176Y358922D01*
X349174Y358991D01*
X349174Y365341D01*
X349176Y365410D01*
X349181Y365478D01*
X349191Y365546D01*
X349204Y365614D01*
X349220Y365681D01*
X349240Y365747D01*
X349264Y365811D01*
X349291Y365874D01*
X349322Y365936D01*
X349356Y365996D01*
X349393Y366054D01*
X349433Y366110D01*
X349476Y366163D01*
X349522Y366214D01*
X349571Y366263D01*
X349622Y366309D01*
X349675Y366352D01*
X349731Y366392D01*
X349789Y366429D01*
X349849Y366463D01*
X349911Y366494D01*
X349974Y366521D01*
X350038Y366545D01*
X350104Y366565D01*
X350171Y366581D01*
X350239Y366594D01*
X350307Y366604D01*
X350375Y366609D01*
X350444Y366611D01*
X365684Y366611D01*
X265989Y351244D02*
X265987Y351175D01*
X265982Y351107D01*
X265972Y351039D01*
X265959Y350971D01*
X265943Y350904D01*
X265923Y350838D01*
X265899Y350774D01*
X265872Y350711D01*
X265841Y350649D01*
X265807Y350589D01*
X265770Y350531D01*
X265730Y350475D01*
X265687Y350422D01*
X265641Y350371D01*
X265592Y350322D01*
X265541Y350276D01*
X265488Y350233D01*
X265432Y350193D01*
X265374Y350156D01*
X265314Y350122D01*
X265252Y350091D01*
X265189Y350064D01*
X265125Y350040D01*
X265059Y350020D01*
X264992Y350004D01*
X264924Y349991D01*
X264856Y349981D01*
X264788Y349976D01*
X264719Y349974D01*
X258369Y349974D01*
X258300Y349976D01*
X258232Y349981D01*
X258164Y349991D01*
X258096Y350004D01*
X258029Y350020D01*
X257963Y350040D01*
X257899Y350064D01*
X257836Y350091D01*
X257774Y350122D01*
X257714Y350156D01*
X257656Y350193D01*
X257600Y350233D01*
X257547Y350276D01*
X257496Y350322D01*
X257447Y350371D01*
X257401Y350422D01*
X257358Y350475D01*
X257318Y350531D01*
X257281Y350589D01*
X257247Y350649D01*
X257216Y350711D01*
X257189Y350774D01*
X257165Y350838D01*
X257145Y350904D01*
X257129Y350971D01*
X257116Y351039D01*
X257106Y351107D01*
X257101Y351175D01*
X257099Y351244D01*
X257099Y366484D01*
X257101Y366553D01*
X257106Y366621D01*
X257116Y366689D01*
X257129Y366757D01*
X257145Y366824D01*
X257165Y366890D01*
X257189Y366954D01*
X257216Y367017D01*
X257247Y367079D01*
X257281Y367139D01*
X257318Y367197D01*
X257358Y367253D01*
X257401Y367306D01*
X257447Y367357D01*
X257496Y367406D01*
X257547Y367452D01*
X257600Y367495D01*
X257656Y367535D01*
X257714Y367572D01*
X257774Y367606D01*
X257836Y367637D01*
X257899Y367664D01*
X257963Y367688D01*
X258029Y367708D01*
X258096Y367724D01*
X258164Y367737D01*
X258232Y367747D01*
X258300Y367752D01*
X258369Y367754D01*
X264719Y367754D01*
X264788Y367752D01*
X264856Y367747D01*
X264924Y367737D01*
X264992Y367724D01*
X265059Y367708D01*
X265125Y367688D01*
X265189Y367664D01*
X265252Y367637D01*
X265314Y367606D01*
X265374Y367572D01*
X265432Y367535D01*
X265488Y367495D01*
X265541Y367452D01*
X265592Y367406D01*
X265641Y367357D01*
X265687Y367306D01*
X265730Y367253D01*
X265770Y367197D01*
X265807Y367139D01*
X265841Y367079D01*
X265872Y367017D01*
X265899Y366954D01*
X265923Y366890D01*
X265943Y366824D01*
X265959Y366757D01*
X265972Y366689D01*
X265982Y366621D01*
X265987Y366553D01*
X265989Y366484D01*
X265989Y351244D01*
X190297Y350990D02*
X190295Y350921D01*
X190290Y350853D01*
X190280Y350785D01*
X190267Y350717D01*
X190251Y350650D01*
X190231Y350584D01*
X190207Y350520D01*
X190180Y350457D01*
X190149Y350395D01*
X190115Y350335D01*
X190078Y350277D01*
X190038Y350221D01*
X189995Y350168D01*
X189949Y350117D01*
X189900Y350068D01*
X189849Y350022D01*
X189796Y349979D01*
X189740Y349939D01*
X189682Y349902D01*
X189622Y349868D01*
X189560Y349837D01*
X189497Y349810D01*
X189433Y349786D01*
X189367Y349766D01*
X189300Y349750D01*
X189232Y349737D01*
X189164Y349727D01*
X189096Y349722D01*
X189027Y349720D01*
X182677Y349720D01*
X182608Y349722D01*
X182540Y349727D01*
X182472Y349737D01*
X182404Y349750D01*
X182337Y349766D01*
X182271Y349786D01*
X182207Y349810D01*
X182144Y349837D01*
X182082Y349868D01*
X182022Y349902D01*
X181964Y349939D01*
X181908Y349979D01*
X181855Y350022D01*
X181804Y350068D01*
X181755Y350117D01*
X181709Y350168D01*
X181666Y350221D01*
X181626Y350277D01*
X181589Y350335D01*
X181555Y350395D01*
X181524Y350457D01*
X181497Y350520D01*
X181473Y350584D01*
X181453Y350650D01*
X181437Y350717D01*
X181424Y350785D01*
X181414Y350853D01*
X181409Y350921D01*
X181407Y350990D01*
X181407Y366230D01*
X181409Y366299D01*
X181414Y366367D01*
X181424Y366435D01*
X181437Y366503D01*
X181453Y366570D01*
X181473Y366636D01*
X181497Y366700D01*
X181524Y366763D01*
X181555Y366825D01*
X181589Y366885D01*
X181626Y366943D01*
X181666Y366999D01*
X181709Y367052D01*
X181755Y367103D01*
X181804Y367152D01*
X181855Y367198D01*
X181908Y367241D01*
X181964Y367281D01*
X182022Y367318D01*
X182082Y367352D01*
X182144Y367383D01*
X182207Y367410D01*
X182271Y367434D01*
X182337Y367454D01*
X182404Y367470D01*
X182472Y367483D01*
X182540Y367493D01*
X182608Y367498D01*
X182677Y367500D01*
X189027Y367500D01*
X189096Y367498D01*
X189164Y367493D01*
X189232Y367483D01*
X189300Y367470D01*
X189367Y367454D01*
X189433Y367434D01*
X189497Y367410D01*
X189560Y367383D01*
X189622Y367352D01*
X189682Y367318D01*
X189740Y367281D01*
X189796Y367241D01*
X189849Y367198D01*
X189900Y367152D01*
X189949Y367103D01*
X189995Y367052D01*
X190038Y366999D01*
X190078Y366943D01*
X190115Y366885D01*
X190149Y366825D01*
X190180Y366763D01*
X190207Y366700D01*
X190231Y366636D01*
X190251Y366570D01*
X190267Y366503D01*
X190280Y366435D01*
X190290Y366367D01*
X190295Y366299D01*
X190297Y366230D01*
X190297Y350990D01*
X210109Y349720D02*
X210178Y349722D01*
X210246Y349727D01*
X210314Y349737D01*
X210382Y349750D01*
X210449Y349766D01*
X210515Y349786D01*
X210579Y349810D01*
X210642Y349837D01*
X210704Y349868D01*
X210764Y349902D01*
X210822Y349939D01*
X210878Y349979D01*
X210931Y350022D01*
X210982Y350068D01*
X211031Y350117D01*
X211077Y350168D01*
X211120Y350221D01*
X211160Y350277D01*
X211197Y350335D01*
X211231Y350395D01*
X211262Y350457D01*
X211289Y350520D01*
X211313Y350584D01*
X211333Y350650D01*
X211349Y350717D01*
X211362Y350785D01*
X211372Y350853D01*
X211377Y350921D01*
X211379Y350990D01*
X210109Y349720D02*
X203759Y349720D01*
X203690Y349722D01*
X203622Y349727D01*
X203554Y349737D01*
X203486Y349750D01*
X203419Y349766D01*
X203353Y349786D01*
X203289Y349810D01*
X203226Y349837D01*
X203164Y349868D01*
X203104Y349902D01*
X203046Y349939D01*
X202990Y349979D01*
X202937Y350022D01*
X202886Y350068D01*
X202837Y350117D01*
X202791Y350168D01*
X202748Y350221D01*
X202708Y350277D01*
X202671Y350335D01*
X202637Y350395D01*
X202606Y350457D01*
X202579Y350520D01*
X202555Y350584D01*
X202535Y350650D01*
X202519Y350717D01*
X202506Y350785D01*
X202496Y350853D01*
X202491Y350921D01*
X202489Y350990D01*
X202489Y366230D01*
X202491Y366299D01*
X202496Y366367D01*
X202506Y366435D01*
X202519Y366503D01*
X202535Y366570D01*
X202555Y366636D01*
X202579Y366700D01*
X202606Y366763D01*
X202637Y366825D01*
X202671Y366885D01*
X202708Y366943D01*
X202748Y366999D01*
X202791Y367052D01*
X202837Y367103D01*
X202886Y367152D01*
X202937Y367198D01*
X202990Y367241D01*
X203046Y367281D01*
X203104Y367318D01*
X203164Y367352D01*
X203226Y367383D01*
X203289Y367410D01*
X203353Y367434D01*
X203419Y367454D01*
X203486Y367470D01*
X203554Y367483D01*
X203622Y367493D01*
X203690Y367498D01*
X203759Y367500D01*
X210109Y367500D01*
X210178Y367498D01*
X210246Y367493D01*
X210314Y367483D01*
X210382Y367470D01*
X210449Y367454D01*
X210515Y367434D01*
X210579Y367410D01*
X210642Y367383D01*
X210704Y367352D01*
X210764Y367318D01*
X210822Y367281D01*
X210878Y367241D01*
X210931Y367198D01*
X210982Y367152D01*
X211031Y367103D01*
X211077Y367052D01*
X211120Y366999D01*
X211160Y366943D01*
X211197Y366885D01*
X211231Y366825D01*
X211262Y366763D01*
X211289Y366700D01*
X211313Y366636D01*
X211333Y366570D01*
X211349Y366503D01*
X211362Y366435D01*
X211372Y366367D01*
X211377Y366299D01*
X211379Y366230D01*
X211379Y350990D01*
X200711Y350990D02*
X200709Y350921D01*
X200704Y350853D01*
X200694Y350785D01*
X200681Y350717D01*
X200665Y350650D01*
X200645Y350584D01*
X200621Y350520D01*
X200594Y350457D01*
X200563Y350395D01*
X200529Y350335D01*
X200492Y350277D01*
X200452Y350221D01*
X200409Y350168D01*
X200363Y350117D01*
X200314Y350068D01*
X200263Y350022D01*
X200210Y349979D01*
X200154Y349939D01*
X200096Y349902D01*
X200036Y349868D01*
X199974Y349837D01*
X199911Y349810D01*
X199847Y349786D01*
X199781Y349766D01*
X199714Y349750D01*
X199646Y349737D01*
X199578Y349727D01*
X199510Y349722D01*
X199441Y349720D01*
X193091Y349720D01*
X193022Y349722D01*
X192954Y349727D01*
X192886Y349737D01*
X192818Y349750D01*
X192751Y349766D01*
X192685Y349786D01*
X192621Y349810D01*
X192558Y349837D01*
X192496Y349868D01*
X192436Y349902D01*
X192378Y349939D01*
X192322Y349979D01*
X192269Y350022D01*
X192218Y350068D01*
X192169Y350117D01*
X192123Y350168D01*
X192080Y350221D01*
X192040Y350277D01*
X192003Y350335D01*
X191969Y350395D01*
X191938Y350457D01*
X191911Y350520D01*
X191887Y350584D01*
X191867Y350650D01*
X191851Y350717D01*
X191838Y350785D01*
X191828Y350853D01*
X191823Y350921D01*
X191821Y350990D01*
X191821Y366230D01*
X191823Y366299D01*
X191828Y366367D01*
X191838Y366435D01*
X191851Y366503D01*
X191867Y366570D01*
X191887Y366636D01*
X191911Y366700D01*
X191938Y366763D01*
X191969Y366825D01*
X192003Y366885D01*
X192040Y366943D01*
X192080Y366999D01*
X192123Y367052D01*
X192169Y367103D01*
X192218Y367152D01*
X192269Y367198D01*
X192322Y367241D01*
X192378Y367281D01*
X192436Y367318D01*
X192496Y367352D01*
X192558Y367383D01*
X192621Y367410D01*
X192685Y367434D01*
X192751Y367454D01*
X192818Y367470D01*
X192886Y367483D01*
X192954Y367493D01*
X193022Y367498D01*
X193091Y367500D01*
X199441Y367500D01*
X199510Y367498D01*
X199578Y367493D01*
X199646Y367483D01*
X199714Y367470D01*
X199781Y367454D01*
X199847Y367434D01*
X199911Y367410D01*
X199974Y367383D01*
X200036Y367352D01*
X200096Y367318D01*
X200154Y367281D01*
X200210Y367241D01*
X200263Y367198D01*
X200314Y367152D01*
X200363Y367103D01*
X200409Y367052D01*
X200452Y366999D01*
X200492Y366943D01*
X200529Y366885D01*
X200563Y366825D01*
X200594Y366763D01*
X200621Y366700D01*
X200645Y366636D01*
X200665Y366570D01*
X200681Y366503D01*
X200694Y366435D01*
X200704Y366367D01*
X200709Y366299D01*
X200711Y366230D01*
X200711Y350990D01*
X177597Y411442D02*
X177599Y411511D01*
X177604Y411579D01*
X177614Y411647D01*
X177627Y411715D01*
X177643Y411782D01*
X177663Y411848D01*
X177687Y411912D01*
X177714Y411975D01*
X177745Y412037D01*
X177779Y412097D01*
X177816Y412155D01*
X177856Y412211D01*
X177899Y412264D01*
X177945Y412315D01*
X177994Y412364D01*
X178045Y412410D01*
X178098Y412453D01*
X178154Y412493D01*
X178212Y412530D01*
X178272Y412564D01*
X178334Y412595D01*
X178397Y412622D01*
X178461Y412646D01*
X178527Y412666D01*
X178594Y412682D01*
X178662Y412695D01*
X178730Y412705D01*
X178798Y412710D01*
X178867Y412712D01*
X185217Y412712D01*
X185286Y412710D01*
X185354Y412705D01*
X185422Y412695D01*
X185490Y412682D01*
X185557Y412666D01*
X185623Y412646D01*
X185687Y412622D01*
X185750Y412595D01*
X185812Y412564D01*
X185872Y412530D01*
X185930Y412493D01*
X185986Y412453D01*
X186039Y412410D01*
X186090Y412364D01*
X186139Y412315D01*
X186185Y412264D01*
X186228Y412211D01*
X186268Y412155D01*
X186305Y412097D01*
X186339Y412037D01*
X186370Y411975D01*
X186397Y411912D01*
X186421Y411848D01*
X186441Y411782D01*
X186457Y411715D01*
X186470Y411647D01*
X186480Y411579D01*
X186485Y411511D01*
X186487Y411442D01*
X186487Y396202D01*
X186485Y396133D01*
X186480Y396065D01*
X186470Y395997D01*
X186457Y395929D01*
X186441Y395862D01*
X186421Y395796D01*
X186397Y395732D01*
X186370Y395669D01*
X186339Y395607D01*
X186305Y395547D01*
X186268Y395489D01*
X186228Y395433D01*
X186185Y395380D01*
X186139Y395329D01*
X186090Y395280D01*
X186039Y395234D01*
X185986Y395191D01*
X185930Y395151D01*
X185872Y395114D01*
X185812Y395080D01*
X185750Y395049D01*
X185687Y395022D01*
X185623Y394998D01*
X185557Y394978D01*
X185490Y394962D01*
X185422Y394949D01*
X185354Y394939D01*
X185286Y394934D01*
X185217Y394932D01*
X178867Y394932D01*
X178798Y394934D01*
X178730Y394939D01*
X178662Y394949D01*
X178594Y394962D01*
X178527Y394978D01*
X178461Y394998D01*
X178397Y395022D01*
X178334Y395049D01*
X178272Y395080D01*
X178212Y395114D01*
X178154Y395151D01*
X178098Y395191D01*
X178045Y395234D01*
X177994Y395280D01*
X177945Y395329D01*
X177899Y395380D01*
X177856Y395433D01*
X177816Y395489D01*
X177779Y395547D01*
X177745Y395607D01*
X177714Y395669D01*
X177687Y395732D01*
X177663Y395796D01*
X177643Y395862D01*
X177627Y395929D01*
X177614Y395997D01*
X177604Y396065D01*
X177599Y396133D01*
X177597Y396202D01*
X177597Y411442D01*
X168453Y412712D02*
X168384Y412710D01*
X168316Y412705D01*
X168248Y412695D01*
X168180Y412682D01*
X168113Y412666D01*
X168047Y412646D01*
X167983Y412622D01*
X167920Y412595D01*
X167858Y412564D01*
X167798Y412530D01*
X167740Y412493D01*
X167684Y412453D01*
X167631Y412410D01*
X167580Y412364D01*
X167531Y412315D01*
X167485Y412264D01*
X167442Y412211D01*
X167402Y412155D01*
X167365Y412097D01*
X167331Y412037D01*
X167300Y411975D01*
X167273Y411912D01*
X167249Y411848D01*
X167229Y411782D01*
X167213Y411715D01*
X167200Y411647D01*
X167190Y411579D01*
X167185Y411511D01*
X167183Y411442D01*
X168453Y412712D02*
X174803Y412712D01*
X174872Y412710D01*
X174940Y412705D01*
X175008Y412695D01*
X175076Y412682D01*
X175143Y412666D01*
X175209Y412646D01*
X175273Y412622D01*
X175336Y412595D01*
X175398Y412564D01*
X175458Y412530D01*
X175516Y412493D01*
X175572Y412453D01*
X175625Y412410D01*
X175676Y412364D01*
X175725Y412315D01*
X175771Y412264D01*
X175814Y412211D01*
X175854Y412155D01*
X175891Y412097D01*
X175925Y412037D01*
X175956Y411975D01*
X175983Y411912D01*
X176007Y411848D01*
X176027Y411782D01*
X176043Y411715D01*
X176056Y411647D01*
X176066Y411579D01*
X176071Y411511D01*
X176073Y411442D01*
X176073Y396202D01*
X176071Y396133D01*
X176066Y396065D01*
X176056Y395997D01*
X176043Y395929D01*
X176027Y395862D01*
X176007Y395796D01*
X175983Y395732D01*
X175956Y395669D01*
X175925Y395607D01*
X175891Y395547D01*
X175854Y395489D01*
X175814Y395433D01*
X175771Y395380D01*
X175725Y395329D01*
X175676Y395280D01*
X175625Y395234D01*
X175572Y395191D01*
X175516Y395151D01*
X175458Y395114D01*
X175398Y395080D01*
X175336Y395049D01*
X175273Y395022D01*
X175209Y394998D01*
X175143Y394978D01*
X175076Y394962D01*
X175008Y394949D01*
X174940Y394939D01*
X174872Y394934D01*
X174803Y394932D01*
X168453Y394932D01*
X168384Y394934D01*
X168316Y394939D01*
X168248Y394949D01*
X168180Y394962D01*
X168113Y394978D01*
X168047Y394998D01*
X167983Y395022D01*
X167920Y395049D01*
X167858Y395080D01*
X167798Y395114D01*
X167740Y395151D01*
X167684Y395191D01*
X167631Y395234D01*
X167580Y395280D01*
X167531Y395329D01*
X167485Y395380D01*
X167442Y395433D01*
X167402Y395489D01*
X167365Y395547D01*
X167331Y395607D01*
X167300Y395669D01*
X167273Y395732D01*
X167249Y395796D01*
X167229Y395862D01*
X167213Y395929D01*
X167200Y395997D01*
X167190Y396065D01*
X167185Y396133D01*
X167183Y396202D01*
X167183Y411442D01*
D13*
X196534Y280138D02*
X196534Y250138D01*
X166534Y250138D01*
X166534Y280138D01*
X196534Y280138D01*
X195504Y285458D02*
X195506Y285558D01*
X195512Y285659D01*
X195522Y285758D01*
X195536Y285858D01*
X195553Y285957D01*
X195575Y286055D01*
X195601Y286152D01*
X195630Y286248D01*
X195663Y286342D01*
X195700Y286436D01*
X195740Y286528D01*
X195784Y286618D01*
X195832Y286706D01*
X195883Y286793D01*
X195937Y286877D01*
X195995Y286959D01*
X196056Y287039D01*
X196120Y287116D01*
X196187Y287191D01*
X196257Y287263D01*
X196330Y287332D01*
X196405Y287398D01*
X196483Y287462D01*
X196563Y287522D01*
X196646Y287579D01*
X196731Y287632D01*
X196818Y287682D01*
X196907Y287729D01*
X196997Y287772D01*
X197089Y287812D01*
X197183Y287848D01*
X197278Y287880D01*
X197374Y287908D01*
X197472Y287933D01*
X197570Y287953D01*
X197669Y287970D01*
X197769Y287983D01*
X197868Y287992D01*
X197969Y287997D01*
X198069Y287998D01*
X198169Y287995D01*
X198270Y287988D01*
X198369Y287977D01*
X198469Y287962D01*
X198567Y287944D01*
X198665Y287921D01*
X198762Y287894D01*
X198857Y287864D01*
X198952Y287830D01*
X199045Y287792D01*
X199136Y287751D01*
X199226Y287706D01*
X199314Y287658D01*
X199400Y287606D01*
X199484Y287551D01*
X199565Y287492D01*
X199644Y287430D01*
X199721Y287366D01*
X199795Y287298D01*
X199866Y287227D01*
X199935Y287154D01*
X200000Y287078D01*
X200063Y286999D01*
X200122Y286918D01*
X200178Y286835D01*
X200231Y286750D01*
X200280Y286662D01*
X200326Y286573D01*
X200368Y286482D01*
X200407Y286389D01*
X200442Y286295D01*
X200473Y286200D01*
X200501Y286103D01*
X200524Y286006D01*
X200544Y285907D01*
X200560Y285808D01*
X200572Y285709D01*
X200580Y285608D01*
X200584Y285508D01*
X200584Y285408D01*
X200580Y285308D01*
X200572Y285207D01*
X200560Y285108D01*
X200544Y285009D01*
X200524Y284910D01*
X200501Y284813D01*
X200473Y284716D01*
X200442Y284621D01*
X200407Y284527D01*
X200368Y284434D01*
X200326Y284343D01*
X200280Y284254D01*
X200231Y284166D01*
X200178Y284081D01*
X200122Y283998D01*
X200063Y283917D01*
X200000Y283838D01*
X199935Y283762D01*
X199866Y283689D01*
X199795Y283618D01*
X199721Y283550D01*
X199644Y283486D01*
X199565Y283424D01*
X199484Y283365D01*
X199400Y283310D01*
X199314Y283258D01*
X199226Y283210D01*
X199136Y283165D01*
X199045Y283124D01*
X198952Y283086D01*
X198857Y283052D01*
X198762Y283022D01*
X198665Y282995D01*
X198567Y282972D01*
X198469Y282954D01*
X198369Y282939D01*
X198270Y282928D01*
X198169Y282921D01*
X198069Y282918D01*
X197969Y282919D01*
X197868Y282924D01*
X197769Y282933D01*
X197669Y282946D01*
X197570Y282963D01*
X197472Y282983D01*
X197374Y283008D01*
X197278Y283036D01*
X197183Y283068D01*
X197089Y283104D01*
X196997Y283144D01*
X196907Y283187D01*
X196818Y283234D01*
X196731Y283284D01*
X196646Y283337D01*
X196563Y283394D01*
X196483Y283454D01*
X196405Y283518D01*
X196330Y283584D01*
X196257Y283653D01*
X196187Y283725D01*
X196120Y283800D01*
X196056Y283877D01*
X195995Y283957D01*
X195937Y284039D01*
X195883Y284123D01*
X195832Y284210D01*
X195784Y284298D01*
X195740Y284388D01*
X195700Y284480D01*
X195663Y284574D01*
X195630Y284668D01*
X195601Y284764D01*
X195575Y284861D01*
X195553Y284959D01*
X195536Y285058D01*
X195522Y285158D01*
X195512Y285257D01*
X195506Y285358D01*
X195504Y285458D01*
D12*
X395932Y222188D02*
X395932Y205980D01*
X366932Y205980D02*
X366932Y222188D01*
X376208Y222188D02*
X386656Y222188D01*
X377156Y205980D02*
X376208Y205980D01*
X385708Y205980D02*
X386656Y205980D01*
X368156Y205980D02*
X366932Y205980D01*
X394708Y205980D02*
X395932Y205980D01*
X395932Y222188D02*
X394708Y222188D01*
X368156Y222188D02*
X366932Y222188D01*
D13*
X286490Y185634D02*
X286490Y153634D01*
X261490Y153634D01*
X261490Y185634D01*
X286490Y185634D01*
D17*
X290500Y191224D02*
X290502Y191295D01*
X290508Y191366D01*
X290518Y191437D01*
X290532Y191507D01*
X290550Y191576D01*
X290571Y191643D01*
X290597Y191710D01*
X290626Y191775D01*
X290658Y191838D01*
X290695Y191900D01*
X290734Y191959D01*
X290777Y192016D01*
X290823Y192070D01*
X290872Y192122D01*
X290924Y192171D01*
X290978Y192217D01*
X291035Y192260D01*
X291094Y192299D01*
X291156Y192336D01*
X291219Y192368D01*
X291284Y192397D01*
X291351Y192423D01*
X291418Y192444D01*
X291487Y192462D01*
X291557Y192476D01*
X291628Y192486D01*
X291699Y192492D01*
X291770Y192494D01*
X291841Y192492D01*
X291912Y192486D01*
X291983Y192476D01*
X292053Y192462D01*
X292122Y192444D01*
X292189Y192423D01*
X292256Y192397D01*
X292321Y192368D01*
X292384Y192336D01*
X292446Y192299D01*
X292505Y192260D01*
X292562Y192217D01*
X292616Y192171D01*
X292668Y192122D01*
X292717Y192070D01*
X292763Y192016D01*
X292806Y191959D01*
X292845Y191900D01*
X292882Y191838D01*
X292914Y191775D01*
X292943Y191710D01*
X292969Y191643D01*
X292990Y191576D01*
X293008Y191507D01*
X293022Y191437D01*
X293032Y191366D01*
X293038Y191295D01*
X293040Y191224D01*
X293038Y191153D01*
X293032Y191082D01*
X293022Y191011D01*
X293008Y190941D01*
X292990Y190872D01*
X292969Y190805D01*
X292943Y190738D01*
X292914Y190673D01*
X292882Y190610D01*
X292845Y190548D01*
X292806Y190489D01*
X292763Y190432D01*
X292717Y190378D01*
X292668Y190326D01*
X292616Y190277D01*
X292562Y190231D01*
X292505Y190188D01*
X292446Y190149D01*
X292384Y190112D01*
X292321Y190080D01*
X292256Y190051D01*
X292189Y190025D01*
X292122Y190004D01*
X292053Y189986D01*
X291983Y189972D01*
X291912Y189962D01*
X291841Y189956D01*
X291770Y189954D01*
X291699Y189956D01*
X291628Y189962D01*
X291557Y189972D01*
X291487Y189986D01*
X291418Y190004D01*
X291351Y190025D01*
X291284Y190051D01*
X291219Y190080D01*
X291156Y190112D01*
X291094Y190149D01*
X291035Y190188D01*
X290978Y190231D01*
X290924Y190277D01*
X290872Y190326D01*
X290823Y190378D01*
X290777Y190432D01*
X290734Y190489D01*
X290695Y190548D01*
X290658Y190610D01*
X290626Y190673D01*
X290597Y190738D01*
X290571Y190805D01*
X290550Y190872D01*
X290532Y190941D01*
X290518Y191011D01*
X290508Y191082D01*
X290502Y191153D01*
X290500Y191224D01*
D13*
X253416Y175984D02*
X253416Y163284D01*
X240716Y163284D02*
X240716Y175984D01*
D18*
X249095Y165706D02*
X252654Y168079D01*
X252654Y165706D02*
X249095Y168079D01*
X252654Y169448D02*
X252654Y171821D01*
X252654Y169448D02*
X250281Y171821D01*
X249688Y171821D01*
X249095Y171227D01*
X249095Y170041D01*
X249688Y169448D01*
D10*
X313741Y376644D02*
X313810Y376646D01*
X313878Y376651D01*
X313946Y376661D01*
X314014Y376674D01*
X314081Y376690D01*
X314147Y376710D01*
X314211Y376734D01*
X314274Y376761D01*
X314336Y376792D01*
X314396Y376826D01*
X314454Y376863D01*
X314510Y376903D01*
X314563Y376946D01*
X314614Y376992D01*
X314663Y377041D01*
X314709Y377092D01*
X314752Y377145D01*
X314792Y377201D01*
X314829Y377259D01*
X314863Y377319D01*
X314894Y377381D01*
X314921Y377444D01*
X314945Y377508D01*
X314965Y377574D01*
X314981Y377641D01*
X314994Y377709D01*
X315004Y377777D01*
X315009Y377845D01*
X315011Y377914D01*
X313741Y376644D02*
X307391Y376644D01*
X307322Y376646D01*
X307254Y376651D01*
X307186Y376661D01*
X307118Y376674D01*
X307051Y376690D01*
X306985Y376710D01*
X306921Y376734D01*
X306858Y376761D01*
X306796Y376792D01*
X306736Y376826D01*
X306678Y376863D01*
X306622Y376903D01*
X306569Y376946D01*
X306518Y376992D01*
X306469Y377041D01*
X306423Y377092D01*
X306380Y377145D01*
X306340Y377201D01*
X306303Y377259D01*
X306269Y377319D01*
X306238Y377381D01*
X306211Y377444D01*
X306187Y377508D01*
X306167Y377574D01*
X306151Y377641D01*
X306138Y377709D01*
X306128Y377777D01*
X306123Y377845D01*
X306121Y377914D01*
X306121Y393154D01*
X306123Y393223D01*
X306128Y393291D01*
X306138Y393359D01*
X306151Y393427D01*
X306167Y393494D01*
X306187Y393560D01*
X306211Y393624D01*
X306238Y393687D01*
X306269Y393749D01*
X306303Y393809D01*
X306340Y393867D01*
X306380Y393923D01*
X306423Y393976D01*
X306469Y394027D01*
X306518Y394076D01*
X306569Y394122D01*
X306622Y394165D01*
X306678Y394205D01*
X306736Y394242D01*
X306796Y394276D01*
X306858Y394307D01*
X306921Y394334D01*
X306985Y394358D01*
X307051Y394378D01*
X307118Y394394D01*
X307186Y394407D01*
X307254Y394417D01*
X307322Y394422D01*
X307391Y394424D01*
X313741Y394424D01*
X313810Y394422D01*
X313878Y394417D01*
X313946Y394407D01*
X314014Y394394D01*
X314081Y394378D01*
X314147Y394358D01*
X314211Y394334D01*
X314274Y394307D01*
X314336Y394276D01*
X314396Y394242D01*
X314454Y394205D01*
X314510Y394165D01*
X314563Y394122D01*
X314614Y394076D01*
X314663Y394027D01*
X314709Y393976D01*
X314752Y393923D01*
X314792Y393867D01*
X314829Y393809D01*
X314863Y393749D01*
X314894Y393687D01*
X314921Y393624D01*
X314945Y393560D01*
X314965Y393494D01*
X314981Y393427D01*
X314994Y393359D01*
X315004Y393291D01*
X315009Y393223D01*
X315011Y393154D01*
X315011Y377914D01*
M02*
