M48
;GenerationSoftware,Autodesk,EAGLE,9.6.2*%
;CreationDate,2020-07-30T08:11:41Z*%
FMAT,2
ICI,OFF
METRIC,TZ,000.000
T6C0.254
T5C0.305
T4C0.700
T3C0.800
T2C0.889
T1C1.000
%
G90
M71
T1
X18891Y45761
X26871Y45761
T2
X13810Y24367
X13810Y26907
X13810Y29447
X13810Y31987
X13810Y34528
X13810Y37068
X13810Y39608
X13810Y42148
X13810Y44687
X13810Y47227
X23970Y9128
X26510Y9128
X29050Y9128
X31590Y9128
X34130Y9128
X41750Y29447
X41750Y31987
X41750Y34528
X41750Y37068
X41750Y39608
X41750Y42148
X41750Y44687
X41750Y47227
X39210Y9128
X39210Y11667
X39210Y14207
X39210Y16748
X13810Y21828
X36670Y16748
X36670Y14207
X36670Y11667
X36670Y9128
X41750Y26907
X41750Y24367
X41750Y21828
X41750Y19288
X41750Y16748
X41750Y14207
X41750Y11667
X41750Y9128
X13810Y19288
X13810Y16748
X13810Y14207
X13810Y11667
X13810Y9128
X16350Y11667
X18890Y11667
X21430Y11667
X23970Y11667
X26510Y11667
X29050Y11667
X31590Y11667
X34130Y11667
X16350Y9128
X18890Y9128
X21430Y9128
T3
X31758Y14195
X33758Y14195
T4
X32047Y47977
X32047Y48231
X39058Y48002
X39058Y48231
X32047Y47723
X39058Y47723
X33089Y45284
X32936Y45284
X33190Y45284
X38042Y45284
X37915Y45284
X38169Y45284
T5
X30650Y36420
X40429Y33270
X38219Y33194
X36111Y28012
X31158Y23694
X34816Y23237
X35298Y46808
X28466Y46072
X14496Y40890
X12642Y30933
X18280Y32559
X17391Y26869
X15918Y21104
X21227Y14906
X25596Y14677
X22573Y17344
X42563Y23110
X39337Y36801
X34435Y42211
X36797Y41728
X38880Y44040
X37940Y46732
X33114Y46656
X22370Y43760
X16426Y41525
X29533Y43278
X14851Y45742
X17518Y46478
X21100Y45843
X26485Y39747
X19703Y30121
X20363Y29536
X21074Y25955
X21608Y24583
X28364Y26463
X31234Y16582
X12946Y10385
X18179Y14881
X16629Y37436
X34359Y32508
X42588Y15490
X15893Y18868
X16020Y15693
X33012Y23694
X20287Y39925
X35222Y10207
X32835Y8480
X12921Y25523
X42537Y17954
X42512Y12950
X12870Y43354
X42512Y43430
X34003Y36496
X26764Y29740
X17341Y19554
X32047Y34870
X29101Y37842
X25519Y41830
X33571Y43913
X36340Y34235
X14445Y35810
X14496Y38401
X20135Y8378
X32301Y19453
X37483Y33905
X34841Y36750
X33495Y34235
X19309Y20773
X26358Y26539
X26383Y28927
X37193Y23618
X22243Y40649
X25558Y45412
X38829Y41957
X36746Y37639
X33089Y39417
X38143Y22932
X39641Y31365
X39642Y34743
X36162Y19249
X16299Y34312
X16579Y32407
X15359Y27327
X15918Y23085
X12616Y20621
X16706Y20037
X20287Y22983
X26535Y24990
X32911Y30908
X32835Y26641
X28212Y29689
X39312Y24304
X40099Y28952
X42537Y25625
X33571Y20316
X40175Y19630
X16223Y16684
X17823Y17243
X24046Y13001
X23868Y16989
X26662Y17014
X29355Y14398
X19068Y39036
X20236Y41474
X25215Y47545
X39337Y40839
X22598Y37080
X25316Y37055
T6
X30269Y31873
X21481Y32991
X29710Y30730
X24732Y45411
X23843Y45462
X20149Y25230
X17493Y23771
X22141Y26031
X17544Y32102
X19652Y31949
X17153Y28825
X35883Y29536
X15258Y22399
X15258Y17294
X15994Y25853
X17544Y31340
X21417Y31835
X29050Y24761
X26967Y31058
X26586Y32661
X27882Y34870
X32708Y35480
X28440Y32661
X28545Y36445
X36213Y24228
X35552Y22247
X32708Y21104
X32276Y20342
X30947Y39428
X29152Y45246
X28421Y38220
X20947Y39061
X32123Y39468
X32123Y41068
X25265Y13433
X24707Y14017
X22065Y15211
X24300Y29384
X23030Y34185
X23716Y33804
X22979Y32356
X28364Y20418
X24122Y37156
X28283Y23669
X33444Y28724
X32034Y28967
X30447Y20926
X29507Y19783
X28364Y19503
X25494Y30095
X29333Y34870
X21455Y33804
X29177Y35861
X31971Y35709
X22090Y30578
X25088Y29409
X30828Y32508
M30